<?xml version="1.0" encoding="utf-8" standalone="no"?>
<!DOCTYPE svg PUBLIC "-//W3C//DTD SVG 1.1//EN"
  "http://www.w3.org/Graphics/SVG/1.1/DTD/svg11.dtd">
<!-- Created with matplotlib (http://matplotlib.org/) -->
<svg height="432pt" version="1.1" viewBox="0 0 576 432" width="576pt" xmlns="http://www.w3.org/2000/svg" xmlns:xlink="http://www.w3.org/1999/xlink">
 <defs>
  <style type="text/css">
*{stroke-linecap:butt;stroke-linejoin:round;stroke-miterlimit:100000;}
  </style>
 </defs>
 <g id="figure_1">
  <g id="patch_1">
   <path d="M 0 432 
L 576 432 
L 576 0 
L 0 0 
z
" style="fill:#ffffff;"/>
  </g>
  <g id="axes_1">
   <g id="patch_2">
    <path d="M 72 388.8 
L 518.4 388.8 
L 518.4 43.2 
L 72 43.2 
z
" style="fill:#ffffff;"/>
   </g>
   <g id="line2d_1">
    <path clip-path="url(#pdb6af80ec4)" d="M 574.94592 287.08992 
L 557.6832 257.78304 
L 426.7872 258.31872 
L 425.1456 273.43872 
L 436.464 303.3504 
L 565.18272 357.4368 
L 565.94304 347.43168 
L 574.94592 287.08992 
M 545.43168 364.0032 
L 490.25664 376.6176 
L 435.0816 389.232 
L 415.624794 433 
M 546.26126 433 
L 545.43168 364.0032 
M 412.49664 266.85504 
L 338.832 302.98752 
L 347.50656 355.32864 
L 404.3232 351.09504 
L 422.7264 297.14688 
L 412.49664 266.85504 
M 319.030363 -1 
L 336.4992 20.32128 
L 377.52192 1.91808 
L 378.455915 -1 
M 93.09312 399.89376 
L 63.31968 393.91488 
L 4.093514 433 
M 98.260413 433 
L 93.09312 399.89376 
M 247.35168 158.8032 
L 176.95296 131.48352 
L 137.6928 159.70176 
L 157.54752 204.1632 
L 224.93952 196.26624 
L 247.40352 170.51904 
L 247.35168 158.8032 
M 293.52384 275.75424 
L 233.92512 257.42016 
L 208.41984 277.93152 
L 224.90496 323.98272 
L 265.6512 330.2208 
L 293.52384 275.75424 
M 562.55616 231.86304 
L 542.0448 169.84512 
L 521.53344 107.84448 
L 471.83616 175.32288 
L 557.89056 257.71392 
L 562.55616 231.86304 
M 28.416647 -1 
L 28.63872 4.38912 
L 82.5696 29.84256 
L 127.101871 -1 
M 489.13344 43.47648 
L 467.2224 30.65472 
L 414.74304 52.51392 
L 409.04064 98.96256 
L 514.84608 110.45376 
L 489.13344 43.47648 
M 200.3328 277.55136 
L 126.70272 268.9632 
L 128.75904 342.29952 
L 189.74016 355.1904 
L 216.16128 323.84448 
L 200.3328 277.55136 
M 55.3536 189.50976 
L -1 223.99901 
M -1 287.492542 
L 7.76448 298.4256 
L 125.13024 266.95872 
L 55.3536 189.50976 
M 5.72544 99.42912 
L -1 89.804728 
M -1 107.675915 
L 5.72544 99.42912 
M 337.08672 300.91392 
L 293.6448 275.51232 
L 265.77216 329.97888 
L 295.25184 388.2816 
L 314.67456 392.58432 
L 345.76128 353.25504 
L 337.08672 300.91392 
M 107.5392 109.53792 
L 61.00416 92.49984 
L 35.63712 106.23744 
L 61.26336 189.31968 
L 129.77856 154.94976 
L 107.5392 109.53792 
M 367.81056 120.37248 
L 358.49664 115.74144 
L 269.81568 126.42048 
L 253.53792 160.51392 
L 253.76256 172.21248 
L 319.0464 220.37184 
L 395.19936 198.70272 
L 367.81056 120.37248 
M 183.174233 433 
L 93.16224 400.30848 
L 98.263191 433 
M 577 370.579536 
L 549.61344 357.24672 
L 545.44896 365.61024 
L 546.951287 433 
M 124.3872 267.16608 
L 65.70432 282.89088 
L 7.02144 298.61568 
L 62.59392 393.8112 
L 92.54016 398.85696 
L 128.72448 340.39872 
L 124.3872 267.16608 
M 577 293.938211 
L 575.89632 294.39936 
L 565.33824 354.48192 
L 577 354.353103 
M 467.8272 179.95392 
L 407.45088 205.59744 
L 427.11552 258.31872 
L 558.06336 257.78304 
L 467.8272 179.95392 
M 137.88288 160.16832 
L 128.48256 155.58912 
L 59.96736 189.97632 
L 127.29024 269.568 
L 157.75488 204.61248 
L 137.88288 160.16832 
M 434.9952 389.42208 
L 404.51328 351.07776 
L 347.66208 355.31136 
L 316.55808 394.64064 
L 332.28288 420.95808 
L 367.569427 433 
M 415.628683 433 
L 434.9952 389.42208 
M 220.2912 418.24512 
L 190.84608 355.43232 
L 129.86496 342.54144 
L 91.84896 399.82464 
L 183.195314 433 
M 202.754847 433 
L 214.2432 427.4208 
L 220.2912 418.24512 
M 314.24256 216.82944 
L 248.95872 168.67008 
L 226.8576 194.72832 
L 229.29408 255.98592 
L 288.87552 274.32 
L 314.24256 216.82944 
M 6.26112 299.99808 
L -1 309.256008 
M 4.100627 433 
L 58.82688 396.86976 
L 6.26112 299.99808 
M 565.47648 354.48192 
L 564.45696 364.46976 
L 577 370.57221 
M 577 354.35463 
L 565.47648 354.48192 
M 32.18112 104.18112 
L 3.8592 101.67552 
L -1 108.04302 
M -1 223.99397 
L 60.39936 186.41664 
L 32.18112 104.18112 
M 163.407932 -1 
L 182.7936 35.2512 
L 234.3744 52.46208 
L 270.704956 -1 
M 226.73122 433 
L 224.92224 430.22016 
L 219.39646 433 
M 415.65888 251.3376 
L 397.89504 197.9424 
L 321.74208 219.61152 
L 296.37504 277.10208 
L 339.79968 302.50368 
L 413.46432 266.3712 
L 415.65888 251.3376 
M 338.59008 22.79232 
L 318.511793 -1 
M 273.987202 -1 
L 242.11584 52.84224 
L 250.0992 60.01344 
L 330.74496 39.07008 
L 338.59008 22.79232 
M 367.554522 433 
L 332.49024 421.04448 
L 328.793815 433 
M -1 309.259896 
L 6.58944 299.58336 
L -1 289.491192 
M 471.484551 -1 
L 476.4672 23.8464 
L 497.70432 37.73952 
L 539.29314 -1 
M 225.37152 196.2144 
L 157.97952 204.11136 
L 127.53216 269.0496 
L 201.14496 277.63776 
L 226.944 257.50656 
L 225.37152 196.2144 
M 513.41184 110.31552 
L 407.6064 98.80704 
L 376.65792 128.54592 
L 406.81152 205.87392 
L 467.18784 180.2304 
L 513.41184 110.31552 
M 267.50016 333.40032 
L 226.75392 327.16224 
L 200.7648 358.88832 
L 231.10848 421.26912 
L 296.97984 391.70304 
L 267.50016 333.40032 
M 577 211.043873 
L 562.93632 229.68576 
L 558.32256 255.55392 
L 574.06464 285.67296 
L 577 284.530385 
M 326.6496 40.12416 
L 246.00384 61.0848 
L 269.83296 126.42048 
L 358.51392 115.74144 
L 326.6496 40.12416 
M 265.3056 125.41824 
L 242.39232 59.75424 
L 234.51264 52.46208 
L 182.15424 37.77408 
L 175.15584 52.65216 
L 178.16256 131.95008 
L 248.56128 159.26976 
L 265.3056 125.41824 
M 181.65312 36.84096 
L 158.995035 -1 
M 127.112107 -1 
L 78.75072 32.4864 
L 60.22656 92.22336 
L 106.7616 109.24416 
L 174.65472 51.71904 
L 181.65312 36.84096 
M 386.203662 -1 
L 382.61952 12.49344 
L 415.9872 51.99552 
L 468.46656 30.1536 
L 460.570576 -1 
M 549.4752 355.69152 
L 486.12672 326.3328 
L 422.77824 296.99136 
L 404.39232 350.92224 
L 434.89152 389.26656 
L 545.22432 364.0032 
L 549.4752 355.69152 
M 539.295719 -1 
L 497.7216 37.73952 
L 520.0128 105.9264 
L 536.35968 105.11424 
L 577 68.598705 
M 577 130.212554 
L 537.50016 105.87456 
L 521.15328 106.68672 
L 562.176 230.70528 
L 577 211.052174 
M 414.9504 50.78592 
L 381.6 11.28384 
L 341.54496 31.72608 
L 334.27008 48.24576 
L 368.8128 122.688 
L 378.29952 126.97344 
L 409.248 97.23456 
L 414.9504 50.78592 
M 175.12128 51.3216 
L 141.16608 80.0928 
L 107.21088 108.864 
L 129.46752 154.29312 
L 138.85056 158.87232 
L 178.11072 130.61952 
L 175.12128 51.3216 
M 316.368 396.02304 
L 296.96256 391.72032 
L 231.07392 421.2864 
L 225.14688 430.54848 
L 226.741763 433 
M 328.796163 433 
L 332.0928 422.34048 
L 316.368 396.02304 
M 577 68.616584 
L 536.32512 105.1488 
L 577 130.201453 
M 76.07232 26.784 
L 22.15872 1.31328 
L -1 20.131124 
M -1 89.791932 
L 3.91104 96.81984 
L 32.14656 100.224 
L 57.5136 86.50368 
L 76.07232 26.784 
M -1 20.126717 
L 20.7072 2.48832 
L 20.562713 -1 
M 665.1648 704.7648 
" style="fill:none;stroke:#0000ff;stroke-linecap:square;"/>
   </g>
   <g id="line2d_2">
    <path clip-path="url(#pdb6af80ec4)" d="M 122.4 354.24 
L 468 354.24 
L 468 77.76 
L 122.4 77.76 
L 122.4 354.24 
" style="fill:none;stroke:#ff0000;stroke-linecap:square;"/>
   </g>
   <g id="patch_3">
    <path d="M 72 388.8 
L 518.4 388.8 
" style="fill:none;stroke:#000000;stroke-linecap:square;stroke-linejoin:miter;"/>
   </g>
   <g id="patch_4">
    <path d="M 72 43.2 
L 518.4 43.2 
" style="fill:none;stroke:#000000;stroke-linecap:square;stroke-linejoin:miter;"/>
   </g>
   <g id="patch_5">
    <path d="M 518.4 388.8 
L 518.4 43.2 
" style="fill:none;stroke:#000000;stroke-linecap:square;stroke-linejoin:miter;"/>
   </g>
   <g id="patch_6">
    <path d="M 72 388.8 
L 72 43.2 
" style="fill:none;stroke:#000000;stroke-linecap:square;stroke-linejoin:miter;"/>
   </g>
   <g id="matplotlib.axis_1">
    <g id="xtick_1">
     <g id="line2d_3">
      <defs>
       <path d="M 0 0 
L 0 -4 
" id="mb6b273bb90" style="stroke:#000000;stroke-width:0.5;"/>
      </defs>
      <g>
       <use style="stroke:#000000;stroke-width:0.5;" x="122.4" xlink:href="#mb6b273bb90" y="388.8"/>
      </g>
     </g>
     <g id="line2d_4">
      <defs>
       <path d="M 0 0 
L 0 4 
" id="m58cc767b78" style="stroke:#000000;stroke-width:0.5;"/>
      </defs>
      <g>
       <use style="stroke:#000000;stroke-width:0.5;" x="122.4" xlink:href="#m58cc767b78" y="43.2"/>
      </g>
     </g>
     <g id="text_1">
      <!-- 7.0 -->
      <defs>
       <path d="M 8.203125 72.90625 
L 55.078125 72.90625 
L 55.078125 68.703125 
L 28.609375 0 
L 18.3125 0 
L 43.21875 64.59375 
L 8.203125 64.59375 
z
" id="BitstreamVeraSans-Roman-37"/>
       <path d="M 31.78125 66.40625 
Q 24.171875 66.40625 20.328125 58.90625 
Q 16.5 51.421875 16.5 36.375 
Q 16.5 21.390625 20.328125 13.890625 
Q 24.171875 6.390625 31.78125 6.390625 
Q 39.453125 6.390625 43.28125 13.890625 
Q 47.125 21.390625 47.125 36.375 
Q 47.125 51.421875 43.28125 58.90625 
Q 39.453125 66.40625 31.78125 66.40625 
M 31.78125 74.21875 
Q 44.046875 74.21875 50.515625 64.515625 
Q 56.984375 54.828125 56.984375 36.375 
Q 56.984375 17.96875 50.515625 8.265625 
Q 44.046875 -1.421875 31.78125 -1.421875 
Q 19.53125 -1.421875 13.0625 8.265625 
Q 6.59375 17.96875 6.59375 36.375 
Q 6.59375 54.828125 13.0625 64.515625 
Q 19.53125 74.21875 31.78125 74.21875 
" id="BitstreamVeraSans-Roman-30"/>
       <path d="M 10.6875 12.40625 
L 21 12.40625 
L 21 0 
L 10.6875 0 
z
" id="BitstreamVeraSans-Roman-2e"/>
      </defs>
      <g transform="translate(112.858125 401.918125)scale(0.12 -0.12)">
       <use xlink:href="#BitstreamVeraSans-Roman-37"/>
       <use x="63.623046875" xlink:href="#BitstreamVeraSans-Roman-2e"/>
       <use x="95.41015625" xlink:href="#BitstreamVeraSans-Roman-30"/>
      </g>
     </g>
    </g>
    <g id="xtick_2">
     <g id="line2d_5">
      <g>
       <use style="stroke:#000000;stroke-width:0.5;" x="208.8" xlink:href="#mb6b273bb90" y="388.8"/>
      </g>
     </g>
     <g id="line2d_6">
      <g>
       <use style="stroke:#000000;stroke-width:0.5;" x="208.8" xlink:href="#m58cc767b78" y="43.2"/>
      </g>
     </g>
     <g id="text_2">
      <!-- 7.5 -->
      <defs>
       <path d="M 10.796875 72.90625 
L 49.515625 72.90625 
L 49.515625 64.59375 
L 19.828125 64.59375 
L 19.828125 46.734375 
Q 21.96875 47.46875 24.109375 47.828125 
Q 26.265625 48.1875 28.421875 48.1875 
Q 40.625 48.1875 47.75 41.5 
Q 54.890625 34.8125 54.890625 23.390625 
Q 54.890625 11.625 47.5625 5.09375 
Q 40.234375 -1.421875 26.90625 -1.421875 
Q 22.3125 -1.421875 17.546875 -0.640625 
Q 12.796875 0.140625 7.71875 1.703125 
L 7.71875 11.625 
Q 12.109375 9.234375 16.796875 8.0625 
Q 21.484375 6.890625 26.703125 6.890625 
Q 35.15625 6.890625 40.078125 11.328125 
Q 45.015625 15.765625 45.015625 23.390625 
Q 45.015625 31 40.078125 35.4375 
Q 35.15625 39.890625 26.703125 39.890625 
Q 22.75 39.890625 18.8125 39.015625 
Q 14.890625 38.140625 10.796875 36.28125 
z
" id="BitstreamVeraSans-Roman-35"/>
      </defs>
      <g transform="translate(199.258125 401.918125)scale(0.12 -0.12)">
       <use xlink:href="#BitstreamVeraSans-Roman-37"/>
       <use x="63.623046875" xlink:href="#BitstreamVeraSans-Roman-2e"/>
       <use x="95.41015625" xlink:href="#BitstreamVeraSans-Roman-35"/>
      </g>
     </g>
    </g>
    <g id="xtick_3">
     <g id="line2d_7">
      <g>
       <use style="stroke:#000000;stroke-width:0.5;" x="295.2" xlink:href="#mb6b273bb90" y="388.8"/>
      </g>
     </g>
     <g id="line2d_8">
      <g>
       <use style="stroke:#000000;stroke-width:0.5;" x="295.2" xlink:href="#m58cc767b78" y="43.2"/>
      </g>
     </g>
     <g id="text_3">
      <!-- 8.0 -->
      <defs>
       <path d="M 31.78125 34.625 
Q 24.75 34.625 20.71875 30.859375 
Q 16.703125 27.09375 16.703125 20.515625 
Q 16.703125 13.921875 20.71875 10.15625 
Q 24.75 6.390625 31.78125 6.390625 
Q 38.8125 6.390625 42.859375 10.171875 
Q 46.921875 13.96875 46.921875 20.515625 
Q 46.921875 27.09375 42.890625 30.859375 
Q 38.875 34.625 31.78125 34.625 
M 21.921875 38.8125 
Q 15.578125 40.375 12.03125 44.71875 
Q 8.5 49.078125 8.5 55.328125 
Q 8.5 64.0625 14.71875 69.140625 
Q 20.953125 74.21875 31.78125 74.21875 
Q 42.671875 74.21875 48.875 69.140625 
Q 55.078125 64.0625 55.078125 55.328125 
Q 55.078125 49.078125 51.53125 44.71875 
Q 48 40.375 41.703125 38.8125 
Q 48.828125 37.15625 52.796875 32.3125 
Q 56.78125 27.484375 56.78125 20.515625 
Q 56.78125 9.90625 50.3125 4.234375 
Q 43.84375 -1.421875 31.78125 -1.421875 
Q 19.734375 -1.421875 13.25 4.234375 
Q 6.78125 9.90625 6.78125 20.515625 
Q 6.78125 27.484375 10.78125 32.3125 
Q 14.796875 37.15625 21.921875 38.8125 
M 18.3125 54.390625 
Q 18.3125 48.734375 21.84375 45.5625 
Q 25.390625 42.390625 31.78125 42.390625 
Q 38.140625 42.390625 41.71875 45.5625 
Q 45.3125 48.734375 45.3125 54.390625 
Q 45.3125 60.0625 41.71875 63.234375 
Q 38.140625 66.40625 31.78125 66.40625 
Q 25.390625 66.40625 21.84375 63.234375 
Q 18.3125 60.0625 18.3125 54.390625 
" id="BitstreamVeraSans-Roman-38"/>
      </defs>
      <g transform="translate(285.658125 401.918125)scale(0.12 -0.12)">
       <use xlink:href="#BitstreamVeraSans-Roman-38"/>
       <use x="63.623046875" xlink:href="#BitstreamVeraSans-Roman-2e"/>
       <use x="95.41015625" xlink:href="#BitstreamVeraSans-Roman-30"/>
      </g>
     </g>
    </g>
    <g id="xtick_4">
     <g id="line2d_9">
      <g>
       <use style="stroke:#000000;stroke-width:0.5;" x="381.6" xlink:href="#mb6b273bb90" y="388.8"/>
      </g>
     </g>
     <g id="line2d_10">
      <g>
       <use style="stroke:#000000;stroke-width:0.5;" x="381.6" xlink:href="#m58cc767b78" y="43.2"/>
      </g>
     </g>
     <g id="text_4">
      <!-- 8.5 -->
      <g transform="translate(372.058125 401.918125)scale(0.12 -0.12)">
       <use xlink:href="#BitstreamVeraSans-Roman-38"/>
       <use x="63.623046875" xlink:href="#BitstreamVeraSans-Roman-2e"/>
       <use x="95.41015625" xlink:href="#BitstreamVeraSans-Roman-35"/>
      </g>
     </g>
    </g>
    <g id="xtick_5">
     <g id="line2d_11">
      <g>
       <use style="stroke:#000000;stroke-width:0.5;" x="468.0" xlink:href="#mb6b273bb90" y="388.8"/>
      </g>
     </g>
     <g id="line2d_12">
      <g>
       <use style="stroke:#000000;stroke-width:0.5;" x="468.0" xlink:href="#m58cc767b78" y="43.2"/>
      </g>
     </g>
     <g id="text_5">
      <!-- 9.0 -->
      <defs>
       <path d="M 10.984375 1.515625 
L 10.984375 10.5 
Q 14.703125 8.734375 18.5 7.8125 
Q 22.3125 6.890625 25.984375 6.890625 
Q 35.75 6.890625 40.890625 13.453125 
Q 46.046875 20.015625 46.78125 33.40625 
Q 43.953125 29.203125 39.59375 26.953125 
Q 35.25 24.703125 29.984375 24.703125 
Q 19.046875 24.703125 12.671875 31.3125 
Q 6.296875 37.9375 6.296875 49.421875 
Q 6.296875 60.640625 12.9375 67.421875 
Q 19.578125 74.21875 30.609375 74.21875 
Q 43.265625 74.21875 49.921875 64.515625 
Q 56.59375 54.828125 56.59375 36.375 
Q 56.59375 19.140625 48.40625 8.859375 
Q 40.234375 -1.421875 26.421875 -1.421875 
Q 22.703125 -1.421875 18.890625 -0.6875 
Q 15.09375 0.046875 10.984375 1.515625 
M 30.609375 32.421875 
Q 37.25 32.421875 41.125 36.953125 
Q 45.015625 41.5 45.015625 49.421875 
Q 45.015625 57.28125 41.125 61.84375 
Q 37.25 66.40625 30.609375 66.40625 
Q 23.96875 66.40625 20.09375 61.84375 
Q 16.21875 57.28125 16.21875 49.421875 
Q 16.21875 41.5 20.09375 36.953125 
Q 23.96875 32.421875 30.609375 32.421875 
" id="BitstreamVeraSans-Roman-39"/>
      </defs>
      <g transform="translate(458.458125 401.918125)scale(0.12 -0.12)">
       <use xlink:href="#BitstreamVeraSans-Roman-39"/>
       <use x="63.623046875" xlink:href="#BitstreamVeraSans-Roman-2e"/>
       <use x="95.41015625" xlink:href="#BitstreamVeraSans-Roman-30"/>
      </g>
     </g>
    </g>
    <g id="text_6">
     <!-- Horizontal (m) -->
     <defs>
      <path d="M 8.015625 75.875 
L 15.828125 75.875 
Q 23.140625 64.359375 26.78125 53.3125 
Q 30.421875 42.28125 30.421875 31.390625 
Q 30.421875 20.453125 26.78125 9.375 
Q 23.140625 -1.703125 15.828125 -13.1875 
L 8.015625 -13.1875 
Q 14.5 -2 17.703125 9.0625 
Q 20.90625 20.125 20.90625 31.390625 
Q 20.90625 42.671875 17.703125 53.65625 
Q 14.5 64.65625 8.015625 75.875 
" id="BitstreamVeraSans-Roman-29"/>
      <path d="M 9.421875 75.984375 
L 18.40625 75.984375 
L 18.40625 0 
L 9.421875 0 
z
" id="BitstreamVeraSans-Roman-6c"/>
      <path d="M 41.109375 46.296875 
Q 39.59375 47.171875 37.8125 47.578125 
Q 36.03125 48 33.890625 48 
Q 26.265625 48 22.1875 43.046875 
Q 18.109375 38.09375 18.109375 28.8125 
L 18.109375 0 
L 9.078125 0 
L 9.078125 54.6875 
L 18.109375 54.6875 
L 18.109375 46.1875 
Q 20.953125 51.171875 25.484375 53.578125 
Q 30.03125 56 36.53125 56 
Q 37.453125 56 38.578125 55.875 
Q 39.703125 55.765625 41.0625 55.515625 
z
" id="BitstreamVeraSans-Roman-72"/>
      <path d="M 30.609375 48.390625 
Q 23.390625 48.390625 19.1875 42.75 
Q 14.984375 37.109375 14.984375 27.296875 
Q 14.984375 17.484375 19.15625 11.84375 
Q 23.34375 6.203125 30.609375 6.203125 
Q 37.796875 6.203125 41.984375 11.859375 
Q 46.1875 17.53125 46.1875 27.296875 
Q 46.1875 37.015625 41.984375 42.703125 
Q 37.796875 48.390625 30.609375 48.390625 
M 30.609375 56 
Q 42.328125 56 49.015625 48.375 
Q 55.71875 40.765625 55.71875 27.296875 
Q 55.71875 13.875 49.015625 6.21875 
Q 42.328125 -1.421875 30.609375 -1.421875 
Q 18.84375 -1.421875 12.171875 6.21875 
Q 5.515625 13.875 5.515625 27.296875 
Q 5.515625 40.765625 12.171875 48.375 
Q 18.84375 56 30.609375 56 
" id="BitstreamVeraSans-Roman-6f"/>
      <path d="M 18.3125 70.21875 
L 18.3125 54.6875 
L 36.8125 54.6875 
L 36.8125 47.703125 
L 18.3125 47.703125 
L 18.3125 18.015625 
Q 18.3125 11.328125 20.140625 9.421875 
Q 21.96875 7.515625 27.59375 7.515625 
L 36.8125 7.515625 
L 36.8125 0 
L 27.59375 0 
Q 17.1875 0 13.234375 3.875 
Q 9.28125 7.765625 9.28125 18.015625 
L 9.28125 47.703125 
L 2.6875 47.703125 
L 2.6875 54.6875 
L 9.28125 54.6875 
L 9.28125 70.21875 
z
" id="BitstreamVeraSans-Roman-74"/>
      <path d="M 9.8125 72.90625 
L 19.671875 72.90625 
L 19.671875 43.015625 
L 55.515625 43.015625 
L 55.515625 72.90625 
L 65.375 72.90625 
L 65.375 0 
L 55.515625 0 
L 55.515625 34.71875 
L 19.671875 34.71875 
L 19.671875 0 
L 9.8125 0 
z
" id="BitstreamVeraSans-Roman-48"/>
      <path d="M 34.28125 27.484375 
Q 23.390625 27.484375 19.1875 25 
Q 14.984375 22.515625 14.984375 16.5 
Q 14.984375 11.71875 18.140625 8.90625 
Q 21.296875 6.109375 26.703125 6.109375 
Q 34.1875 6.109375 38.703125 11.40625 
Q 43.21875 16.703125 43.21875 25.484375 
L 43.21875 27.484375 
z
M 52.203125 31.203125 
L 52.203125 0 
L 43.21875 0 
L 43.21875 8.296875 
Q 40.140625 3.328125 35.546875 0.953125 
Q 30.953125 -1.421875 24.3125 -1.421875 
Q 15.921875 -1.421875 10.953125 3.296875 
Q 6 8.015625 6 15.921875 
Q 6 25.140625 12.171875 29.828125 
Q 18.359375 34.515625 30.609375 34.515625 
L 43.21875 34.515625 
L 43.21875 35.40625 
Q 43.21875 41.609375 39.140625 45 
Q 35.0625 48.390625 27.6875 48.390625 
Q 23 48.390625 18.546875 47.265625 
Q 14.109375 46.140625 10.015625 43.890625 
L 10.015625 52.203125 
Q 14.9375 54.109375 19.578125 55.046875 
Q 24.21875 56 28.609375 56 
Q 40.484375 56 46.34375 49.84375 
Q 52.203125 43.703125 52.203125 31.203125 
" id="BitstreamVeraSans-Roman-61"/>
      <path d="M 52 44.1875 
Q 55.375 50.25 60.0625 53.125 
Q 64.75 56 71.09375 56 
Q 79.640625 56 84.28125 50.015625 
Q 88.921875 44.046875 88.921875 33.015625 
L 88.921875 0 
L 79.890625 0 
L 79.890625 32.71875 
Q 79.890625 40.578125 77.09375 44.375 
Q 74.3125 48.1875 68.609375 48.1875 
Q 61.625 48.1875 57.5625 43.546875 
Q 53.515625 38.921875 53.515625 30.90625 
L 53.515625 0 
L 44.484375 0 
L 44.484375 32.71875 
Q 44.484375 40.625 41.703125 44.40625 
Q 38.921875 48.1875 33.109375 48.1875 
Q 26.21875 48.1875 22.15625 43.53125 
Q 18.109375 38.875 18.109375 30.90625 
L 18.109375 0 
L 9.078125 0 
L 9.078125 54.6875 
L 18.109375 54.6875 
L 18.109375 46.1875 
Q 21.1875 51.21875 25.484375 53.609375 
Q 29.78125 56 35.6875 56 
Q 41.65625 56 45.828125 52.96875 
Q 50 49.953125 52 44.1875 
" id="BitstreamVeraSans-Roman-6d"/>
      <path d="M 9.421875 54.6875 
L 18.40625 54.6875 
L 18.40625 0 
L 9.421875 0 
z
M 9.421875 75.984375 
L 18.40625 75.984375 
L 18.40625 64.59375 
L 9.421875 64.59375 
z
" id="BitstreamVeraSans-Roman-69"/>
      <path d="M 31 75.875 
Q 24.46875 64.65625 21.28125 53.65625 
Q 18.109375 42.671875 18.109375 31.390625 
Q 18.109375 20.125 21.3125 9.0625 
Q 24.515625 -2 31 -13.1875 
L 23.1875 -13.1875 
Q 15.875 -1.703125 12.234375 9.375 
Q 8.59375 20.453125 8.59375 31.390625 
Q 8.59375 42.28125 12.203125 53.3125 
Q 15.828125 64.359375 23.1875 75.875 
z
" id="BitstreamVeraSans-Roman-28"/>
      <path id="BitstreamVeraSans-Roman-20"/>
      <path d="M 54.890625 33.015625 
L 54.890625 0 
L 45.90625 0 
L 45.90625 32.71875 
Q 45.90625 40.484375 42.875 44.328125 
Q 39.84375 48.1875 33.796875 48.1875 
Q 26.515625 48.1875 22.3125 43.546875 
Q 18.109375 38.921875 18.109375 30.90625 
L 18.109375 0 
L 9.078125 0 
L 9.078125 54.6875 
L 18.109375 54.6875 
L 18.109375 46.1875 
Q 21.34375 51.125 25.703125 53.5625 
Q 30.078125 56 35.796875 56 
Q 45.21875 56 50.046875 50.171875 
Q 54.890625 44.34375 54.890625 33.015625 
" id="BitstreamVeraSans-Roman-6e"/>
      <path d="M 5.515625 54.6875 
L 48.1875 54.6875 
L 48.1875 46.484375 
L 14.40625 7.171875 
L 48.1875 7.171875 
L 48.1875 0 
L 4.296875 0 
L 4.296875 8.203125 
L 38.09375 47.515625 
L 5.515625 47.515625 
z
" id="BitstreamVeraSans-Roman-7a"/>
     </defs>
     <g transform="translate(252.13125 418.531875)scale(0.12 -0.12)">
      <use xlink:href="#BitstreamVeraSans-Roman-48"/>
      <use x="75.1953125" xlink:href="#BitstreamVeraSans-Roman-6f"/>
      <use x="136.376953125" xlink:href="#BitstreamVeraSans-Roman-72"/>
      <use x="177.490234375" xlink:href="#BitstreamVeraSans-Roman-69"/>
      <use x="205.2734375" xlink:href="#BitstreamVeraSans-Roman-7a"/>
      <use x="257.763671875" xlink:href="#BitstreamVeraSans-Roman-6f"/>
      <use x="318.9453125" xlink:href="#BitstreamVeraSans-Roman-6e"/>
      <use x="382.32421875" xlink:href="#BitstreamVeraSans-Roman-74"/>
      <use x="421.533203125" xlink:href="#BitstreamVeraSans-Roman-61"/>
      <use x="482.8125" xlink:href="#BitstreamVeraSans-Roman-6c"/>
      <use x="510.595703125" xlink:href="#BitstreamVeraSans-Roman-20"/>
      <use x="542.3828125" xlink:href="#BitstreamVeraSans-Roman-28"/>
      <use x="581.396484375" xlink:href="#BitstreamVeraSans-Roman-6d"/>
      <use x="678.80859375" xlink:href="#BitstreamVeraSans-Roman-29"/>
     </g>
    </g>
   </g>
   <g id="matplotlib.axis_2">
    <g id="ytick_1">
     <g id="line2d_13">
      <defs>
       <path d="M 0 0 
L 4 0 
" id="m04ad15f18a" style="stroke:#000000;stroke-width:0.5;"/>
      </defs>
      <g>
       <use style="stroke:#000000;stroke-width:0.5;" x="72.0" xlink:href="#m04ad15f18a" y="388.8"/>
      </g>
     </g>
     <g id="line2d_14">
      <defs>
       <path d="M 0 0 
L -4 0 
" id="md6f4f8ab09" style="stroke:#000000;stroke-width:0.5;"/>
      </defs>
      <g>
       <use style="stroke:#000000;stroke-width:0.5;" x="518.4" xlink:href="#md6f4f8ab09" y="388.8"/>
      </g>
     </g>
     <g id="text_7">
      <!-- 7.0 -->
      <g transform="translate(48.91625 392.11125)scale(0.12 -0.12)">
       <use xlink:href="#BitstreamVeraSans-Roman-37"/>
       <use x="63.623046875" xlink:href="#BitstreamVeraSans-Roman-2e"/>
       <use x="95.41015625" xlink:href="#BitstreamVeraSans-Roman-30"/>
      </g>
     </g>
    </g>
    <g id="ytick_2">
     <g id="line2d_15">
      <g>
       <use style="stroke:#000000;stroke-width:0.5;" x="72.0" xlink:href="#m04ad15f18a" y="302.4"/>
      </g>
     </g>
     <g id="line2d_16">
      <g>
       <use style="stroke:#000000;stroke-width:0.5;" x="518.4" xlink:href="#md6f4f8ab09" y="302.4"/>
      </g>
     </g>
     <g id="text_8">
      <!-- 7.5 -->
      <g transform="translate(48.91625 305.71125)scale(0.12 -0.12)">
       <use xlink:href="#BitstreamVeraSans-Roman-37"/>
       <use x="63.623046875" xlink:href="#BitstreamVeraSans-Roman-2e"/>
       <use x="95.41015625" xlink:href="#BitstreamVeraSans-Roman-35"/>
      </g>
     </g>
    </g>
    <g id="ytick_3">
     <g id="line2d_17">
      <g>
       <use style="stroke:#000000;stroke-width:0.5;" x="72.0" xlink:href="#m04ad15f18a" y="216.0"/>
      </g>
     </g>
     <g id="line2d_18">
      <g>
       <use style="stroke:#000000;stroke-width:0.5;" x="518.4" xlink:href="#md6f4f8ab09" y="216.0"/>
      </g>
     </g>
     <g id="text_9">
      <!-- 8.0 -->
      <g transform="translate(48.91625 219.31125)scale(0.12 -0.12)">
       <use xlink:href="#BitstreamVeraSans-Roman-38"/>
       <use x="63.623046875" xlink:href="#BitstreamVeraSans-Roman-2e"/>
       <use x="95.41015625" xlink:href="#BitstreamVeraSans-Roman-30"/>
      </g>
     </g>
    </g>
    <g id="ytick_4">
     <g id="line2d_19">
      <g>
       <use style="stroke:#000000;stroke-width:0.5;" x="72.0" xlink:href="#m04ad15f18a" y="129.6"/>
      </g>
     </g>
     <g id="line2d_20">
      <g>
       <use style="stroke:#000000;stroke-width:0.5;" x="518.4" xlink:href="#md6f4f8ab09" y="129.6"/>
      </g>
     </g>
     <g id="text_10">
      <!-- 8.5 -->
      <g transform="translate(48.91625 132.91125)scale(0.12 -0.12)">
       <use xlink:href="#BitstreamVeraSans-Roman-38"/>
       <use x="63.623046875" xlink:href="#BitstreamVeraSans-Roman-2e"/>
       <use x="95.41015625" xlink:href="#BitstreamVeraSans-Roman-35"/>
      </g>
     </g>
    </g>
    <g id="ytick_5">
     <g id="line2d_21">
      <g>
       <use style="stroke:#000000;stroke-width:0.5;" x="72.0" xlink:href="#m04ad15f18a" y="43.2"/>
      </g>
     </g>
     <g id="line2d_22">
      <g>
       <use style="stroke:#000000;stroke-width:0.5;" x="518.4" xlink:href="#md6f4f8ab09" y="43.2"/>
      </g>
     </g>
     <g id="text_11">
      <!-- 9.0 -->
      <g transform="translate(48.91625 46.51125)scale(0.12 -0.12)">
       <use xlink:href="#BitstreamVeraSans-Roman-39"/>
       <use x="63.623046875" xlink:href="#BitstreamVeraSans-Roman-2e"/>
       <use x="95.41015625" xlink:href="#BitstreamVeraSans-Roman-30"/>
      </g>
     </g>
    </g>
    <g id="text_12">
     <!-- Vertical (m) -->
     <defs>
      <path d="M 28.609375 0 
L 0.78125 72.90625 
L 11.078125 72.90625 
L 34.1875 11.53125 
L 57.328125 72.90625 
L 67.578125 72.90625 
L 39.796875 0 
z
" id="BitstreamVeraSans-Roman-56"/>
      <path d="M 48.78125 52.59375 
L 48.78125 44.1875 
Q 44.96875 46.296875 41.140625 47.34375 
Q 37.3125 48.390625 33.40625 48.390625 
Q 24.65625 48.390625 19.8125 42.84375 
Q 14.984375 37.3125 14.984375 27.296875 
Q 14.984375 17.28125 19.8125 11.734375 
Q 24.65625 6.203125 33.40625 6.203125 
Q 37.3125 6.203125 41.140625 7.25 
Q 44.96875 8.296875 48.78125 10.40625 
L 48.78125 2.09375 
Q 45.015625 0.34375 40.984375 -0.53125 
Q 36.96875 -1.421875 32.421875 -1.421875 
Q 20.0625 -1.421875 12.78125 6.34375 
Q 5.515625 14.109375 5.515625 27.296875 
Q 5.515625 40.671875 12.859375 48.328125 
Q 20.21875 56 33.015625 56 
Q 37.15625 56 41.109375 55.140625 
Q 45.0625 54.296875 48.78125 52.59375 
" id="BitstreamVeraSans-Roman-63"/>
      <path d="M 56.203125 29.59375 
L 56.203125 25.203125 
L 14.890625 25.203125 
Q 15.484375 15.921875 20.484375 11.0625 
Q 25.484375 6.203125 34.421875 6.203125 
Q 39.59375 6.203125 44.453125 7.46875 
Q 49.3125 8.734375 54.109375 11.28125 
L 54.109375 2.78125 
Q 49.265625 0.734375 44.1875 -0.34375 
Q 39.109375 -1.421875 33.890625 -1.421875 
Q 20.796875 -1.421875 13.15625 6.1875 
Q 5.515625 13.8125 5.515625 26.8125 
Q 5.515625 40.234375 12.765625 48.109375 
Q 20.015625 56 32.328125 56 
Q 43.359375 56 49.78125 48.890625 
Q 56.203125 41.796875 56.203125 29.59375 
M 47.21875 32.234375 
Q 47.125 39.59375 43.09375 43.984375 
Q 39.0625 48.390625 32.421875 48.390625 
Q 24.90625 48.390625 20.390625 44.140625 
Q 15.875 39.890625 15.1875 32.171875 
z
" id="BitstreamVeraSans-Roman-65"/>
     </defs>
     <g transform="translate(41.420625 251.35125)rotate(-90.0)scale(0.12 -0.12)">
      <use xlink:href="#BitstreamVeraSans-Roman-56"/>
      <use x="68.298828125" xlink:href="#BitstreamVeraSans-Roman-65"/>
      <use x="129.822265625" xlink:href="#BitstreamVeraSans-Roman-72"/>
      <use x="170.935546875" xlink:href="#BitstreamVeraSans-Roman-74"/>
      <use x="210.14453125" xlink:href="#BitstreamVeraSans-Roman-69"/>
      <use x="237.927734375" xlink:href="#BitstreamVeraSans-Roman-63"/>
      <use x="292.908203125" xlink:href="#BitstreamVeraSans-Roman-61"/>
      <use x="354.1875" xlink:href="#BitstreamVeraSans-Roman-6c"/>
      <use x="381.970703125" xlink:href="#BitstreamVeraSans-Roman-20"/>
      <use x="413.7578125" xlink:href="#BitstreamVeraSans-Roman-28"/>
      <use x="452.771484375" xlink:href="#BitstreamVeraSans-Roman-6d"/>
      <use x="550.18359375" xlink:href="#BitstreamVeraSans-Roman-29"/>
     </g>
    </g>
   </g>
  </g>
 </g>
 <defs>
  <clipPath id="pdb6af80ec4">
   <rect height="345.6" width="446.4" x="72.0" y="43.2"/>
  </clipPath>
 </defs>
</svg>
