<?xml version="1.0" encoding="utf-8" standalone="no"?>
<!DOCTYPE svg PUBLIC "-//W3C//DTD SVG 1.1//EN"
  "http://www.w3.org/Graphics/SVG/1.1/DTD/svg11.dtd">
<!-- Created with matplotlib (http://matplotlib.org/) -->
<svg height="432pt" version="1.1" viewBox="0 0 576 432" width="576pt" xmlns="http://www.w3.org/2000/svg" xmlns:xlink="http://www.w3.org/1999/xlink">
 <defs>
  <style type="text/css">
*{stroke-linecap:butt;stroke-linejoin:round;stroke-miterlimit:100000;}
  </style>
 </defs>
 <g id="figure_1">
  <g id="patch_1">
   <path d="M 0 432 
L 576 432 
L 576 0 
L 0 0 
z
" style="fill:#ffffff;"/>
  </g>
  <g id="axes_1">
   <g id="patch_2">
    <path d="M 72 388.8 
L 518.4 388.8 
L 518.4 43.2 
L 72 43.2 
z
" style="fill:#ffffff;"/>
   </g>
   <g id="line2d_1">
    <path clip-path="url(#p7d3436a0f8)" d="M 191.33568 199.69344 
L 185.10624 194.04576 
L 167.421888 199.56384 
L 169.183872 207.23904 
L 170.33904 208.8576 
L 188.7984 207.87552 
L 191.30976 204.71904 
L 191.33568 199.69344 
M 373.62528 120.0672 
L 361.89216 115.51392 
L 355.3488 120.21696 
L 358.65792 127.6272 
L 369.88992 126.31104 
L 373.63392 122.01984 
L 373.62528 120.0672 
M 179.628768 220.46688 
L 171.047232 211.42368 
L 164.443968 228.65472 
L 165.805056 231.47136 
L 169.673184 232.59744 
L 177.799104 229.41216 
L 179.628768 220.46688 
M 372.0816 299.14848 
L 367.8624 295.37856 
L 362.44512 293.76288 
L 353.22624 306.3456 
L 366.7248 313.94304 
L 374.2128 311.01408 
L 372.0816 299.14848 
M 257.08608 91.86336 
L 255.05856 91.51776 
L 248.33952 100.99584 
L 251.07264 109.5552 
L 254.26944 109.81728 
L 266.35968 100.02816 
L 257.08608 91.86336 
M 299.22048 330.45984 
L 290.46816 331.0704 
L 279.49536 336.68208 
L 278.30592 338.677632 
L 285.96384 353.384928 
L 299.55744 332.265888 
L 299.22048 330.45984 
M 392.76 298.84608 
L 386.17056 293.86944 
L 372.68064 299.33568 
L 374.77728 311.20992 
L 387.35712 318.19392 
L 392.76 298.84608 
M 284.8032 91.24128 
L 276.3072 81.71136 
L 266.65632 100.18944 
L 272.37024 104.44032 
L 278.52768 105.96672 
L 285.77088 102.40704 
L 284.8032 91.24128 
M 192.31776 274.3488 
L 188.00928 264.59136 
L 183.70368 254.83392 
L 177.555744 256.92192 
L 174.842208 264.19968 
L 185.95584 274.53312 
L 192.31776 274.3488 
M 303.08544 94.35456 
L 296.0496 86.63328 
L 284.83776 91.60128 
L 286.33536 102.70656 
L 289.76832 103.75776 
L 302.43456 98.58816 
L 303.49728 97.2432 
L 303.08544 94.35456 
M 239.41152 313.87968 
L 230.15232 312.45696 
L 220.896 311.03424 
L 219.09312 312.10272 
L 219.13344 317.82816 
L 237.87648 330.44832 
L 243.53856 321.70176 
L 239.41152 313.87968 
M 411.264 261.20448 
L 398.22624 260.02944 
L 394.51968 265.62816 
L 403.5024 273.27456 
L 410.65632 269.66304 
L 411.264 261.20448 
M 384.77376 129.73824 
L 373.89312 121.71168 
L 370.2096 126.05472 
L 370.61568 136.26432 
L 380.54592 139.32 
L 384.77376 129.73824 
M 361.58688 102.1536 
L 350.26848 111.744 
L 353.97792 119.31552 
L 355.54176 120.07872 
L 362.08512 115.36992 
L 361.58688 102.1536 
M 306.51264 342.318528 
L 299.60352 332.191872 
L 286.0128 353.30832 
L 286.01856 355.119264 
L 287.784 356.982624 
L 301.12992 354.500064 
L 306.56736 343.878336 
L 306.51264 342.318528 
M 321.8832 90.59328 
L 312.08544 83.98944 
L 303.93504 94.8672 
L 304.20864 97.77312 
L 317.8368 101.56032 
L 321.77376 99.65952 
L 321.8832 90.59328 
M 404.8992 158.50368 
L 399.81888 152.11296 
L 390.34368 152.81856 
L 385.15968 159.37344 
L 387.78048 163.75968 
L 400.61664 168.14016 
L 404.8992 158.50368 
M 236.952 97.28352 
L 225.49248 102.816 
L 222.26112 110.37888 
L 227.1024 116.28576 
L 232.48224 115.95744 
L 238.3344 110.70144 
L 236.952 97.28352 
M 413.41248 251.44128 
L 402.60384 246.3408 
L 396.69984 252.43776 
L 398.15136 260.02368 
L 411.18912 261.19872 
L 416.14848 255.32352 
L 413.41248 251.44128 
M 248.33664 100.99296 
L 237.95424 95.30496 
L 236.952 97.28352 
L 238.3344 110.70144 
L 251.07264 109.5552 
L 248.33664 100.99296 
M 434.41056 198.0864 
L 424.14912 196.1424 
L 419.59584 198.86688 
L 415.04256 206.47584 
L 418.13568 212.63328 
L 422.90208 215.88768 
L 434.9088 203.97312 
L 434.41056 198.0864 
M 362.67552 99.74016 
L 357.34176 90.83232 
L 345.52512 99.0144 
L 342.43776 108.97056 
L 350.1936 111.80736 
L 361.50912 102.21984 
L 362.67552 99.74016 
M 344.29536 311.02848 
L 342.88992 311.61312 
L 332.00928 334.168416 
L 336.45024 336.262464 
L 353.33568 324.9792 
L 344.29536 311.02848 
M 333.35424 110.17152 
L 327.36096 101.59488 
L 322.32384 99.39456 
L 318.38688 101.29536 
L 314.12448 117.08064 
L 327.816 116.96256 
L 333.35424 110.17152 
M 278.41824 336.437856 
L 269.8416 321.70752 
L 266.6736 321.60096 
L 261.41472 326.13984 
L 261.41472 329.98176 
L 268.49376 340.951392 
L 277.28064 338.463936 
L 278.41824 336.437856 
M 197.14464 274.89024 
L 192.40128 274.51296 
L 186.03648 274.52736 
L 172.285344 282.00384 
L 175.199328 296.09856 
L 183.48192 293.57856 
L 196.00704 277.3584 
L 197.14464 274.89024 
M 413.47296 233.59968 
L 410.25888 232.9344 
L 401.97888 242.71488 
L 402.64128 246.35808 
L 413.44992 251.45856 
L 416.06784 238.00032 
L 413.47296 233.59968 
M 196.65792 276.52032 
L 184.1328 292.7376 
L 193.15008 298.03104 
L 203.57568 292.22784 
L 196.65792 276.52032 
M 206.57376 145.45728 
L 199.38528 141.34176 
L 192.1968 137.22624 
L 185.27328 144.72864 
L 188.856 154.82592 
L 195.50304 158.41152 
L 201.94272 156.24 
L 207.216 146.60064 
L 206.57376 145.45728 
M 401.67648 135.4896 
L 398.71584 126.5904 
L 386.02368 130.20192 
L 381.79584 139.78368 
L 389.03328 144.01728 
L 401.31072 137.9952 
L 401.67648 135.4896 
M 228.69216 289.63296 
L 225.38592 284.48064 
L 208.64448 294.92064 
L 211.49856 307.17792 
L 219.02976 311.65056 
L 220.81824 310.55616 
L 229.65696 295.88832 
L 228.69216 289.63296 
M 423.30528 154.2672 
L 414.10944 156.3696 
L 404.9136 158.472 
L 400.63104 168.1056 
L 405.98496 178.96896 
L 407.71008 179.36352 
L 423.54144 173.9088 
L 423.30528 154.2672 
M 330.15456 335.26368 
L 323.65152 329.48352 
L 317.15136 323.70336 
L 304.92 323.68032 
L 302.36256 326.69856 
L 300.07008 331.566912 
L 300.40992 333.371232 
L 307.31616 343.495872 
L 324.91296 341.030304 
L 330.15456 335.26368 
M 195.39936 158.59296 
L 188.856 154.82304 
L 180.2448 158.02848 
L 174.802752 169.07328 
L 180.3312 172.68768 
L 193.41216 164.22336 
L 195.39936 158.59296 
M 401.14944 138.07584 
L 388.872 144.09792 
L 390.31776 152.82144 
L 399.7872 152.11584 
L 402.8544 143.12448 
L 401.14944 138.07584 
M 422.49888 215.7552 
L 417.80736 212.39424 
L 405.39456 222.19776 
L 405.36 226.872 
L 410.33088 232.69536 
L 413.54496 233.35776 
L 426.0528 221.80608 
L 422.49888 215.7552 
M 345.07872 98.064 
L 336.09312 93.81888 
L 327.05856 101.16 
L 333.05184 109.73664 
L 337.75776 110.304 
L 341.9856 108.01728 
L 345.07872 98.064 
M 260.80704 326.4048 
L 253.09152 324.01152 
L 245.37888 321.61536 
L 243.52704 321.71616 
L 237.86208 330.4656 
L 251.2944 340.553088 
L 260.712 330.24384 
L 260.80704 326.4048 
M 403.416 273.20256 
L 394.43328 265.55328 
L 389.71584 267.31008 
L 390.67776 279.75456 
L 400.88448 282.59712 
L 403.416 273.20256 
M 185.52384 187.62048 
L 182.41344 181.72224 
L 161.412192 189.40608 
L 162.82224 194.40864 
L 167.450112 199.55232 
L 185.13504 194.03712 
L 185.52384 187.62048 
M 207.91008 128.77632 
L 204.7968 125.54496 
L 191.79072 130.81248 
L 192.0672 136.59552 
L 206.19648 145.24704 
L 207.91008 128.77632 
M 366.57792 313.85952 
L 359.8272 310.0608 
L 353.07648 306.26208 
L 346.03776 308.62656 
L 344.32992 311.0832 
L 353.40768 325.008 
L 357.03648 326.90016 
L 361.53504 324.8496 
L 366.57792 313.85952 
M 186.7536 244.74816 
L 173.641536 242.21376 
L 168.49728 251.11584 
L 177.2352 256.92192 
L 183.38976 254.83968 
L 187.83072 249.14304 
L 186.7536 244.74816 
M 433.80288 233.40384 
L 426.30336 221.56128 
L 414.06048 233.39808 
L 416.75328 237.74112 
L 427.824 240.408 
L 433.80288 233.40384 
M 182.53152 177.92064 
L 179.984448 172.45728 
L 174.3552 168.9984 
L 157.953888 184.02336 
L 161.255232 189.46368 
L 182.25504 181.77984 
L 182.53152 177.92064 
M 188.8416 207.87264 
L 170.383392 208.85472 
L 171.154944 211.536 
L 179.73648 220.58208 
L 188.42976 218.21472 
L 188.8416 207.87264 
M 400.74048 282.5568 
L 390.53088 279.71424 
L 386.14752 293.85216 
L 392.75136 298.80864 
L 407.5056 293.1408 
L 400.74048 282.5568 
M 189.05472 235.6848 
L 177.77376 229.42368 
L 169.64928 232.60608 
L 173.657952 242.21664 
L 186.77088 244.75104 
L 189.05472 235.6848 
M 423.42912 173.94624 
L 415.512 176.67648 
L 407.59488 179.40384 
L 419.13504 198.62496 
L 423.71424 195.94656 
L 424.69344 174.8448 
L 423.42912 173.94624 
M 207.82944 294.56352 
L 203.76576 292.10976 
L 193.50144 298.19232 
L 192.75552 306.8064 
L 198.91008 312.40512 
L 210.49344 306.864 
L 207.82944 294.56352 
M 226.84896 118.1232 
L 222.67296 111.73248 
L 213.36192 108.19872 
L 205.26912 116.16768 
L 205.36992 124.30368 
L 208.21824 127.7712 
L 222.03072 127.50048 
L 226.84896 118.1232 
L 226.84896 118.1232 
" style="fill:none;stroke:#0000ff;stroke-linecap:square;"/>
   </g>
   <g id="line2d_2">
    <path clip-path="url(#p7d3436a0f8)" d="M 173.871648 208.36224 
L 174.644928 211.04064 
L 174.644928 211.04064 
L 174.644928 211.04064 
L 174.63744 211.03488 
L 168.048 228.2688 
L 169.411392 231.08256 
L 173.280672 232.20576 
L 173.278368 232.20576 
L 177.295968 241.81056 
L 177.294528 241.81056 
L 172.158624 250.71552 
L 180.90144 256.51296 
L 180.90144 256.51296 
L 178.184448 263.78496 
L 189.29088 274.12128 
L 189.29088 274.12128 
L 175.739328 281.95488 
L 179.025696 295.96608 
L 187.2432 293.21856 
L 196.4016 298.27584 
L 195.64992 306.88992 
L 201.80448 312.48864 
L 213.3936 306.95328 
L 213.3936 306.95328 
L 220.85568 311.544 
L 220.89312 317.26656 
L 239.62176 329.90688 
L 253.04256 340.006176 
L 262.4688 329.71104 
L 262.4688 329.71104 
L 269.25408 340.860096 
L 278.1072 338.612256 
L 285.76224 353.318976 
L 285.768 353.310336 
L 285.77376 355.12128 
L 287.5392 356.984064 
L 300.88512 354.503808 
L 306.32544 343.888128 
L 306.27072 342.328896 
L 306.2736 342.333792 
L 323.8704 339.878304 
L 329.12352 334.11168 
L 333.56736 336.203136 
L 350.44704 324.91584 
L 350.44704 324.91872 
L 354.07296 326.81664 
L 358.5744 324.77472 
L 363.64032 313.79616 
L 363.64032 313.79616 
L 371.13696 310.88448 
L 383.72544 317.85696 
L 389.10528 298.50336 
L 403.87104 292.86432 
L 397.1232 282.2688 
L 397.12896 282.27168 
L 399.67776 272.88864 
L 399.67776 272.88864 
L 406.84032 269.29152 
L 407.46528 260.83584 
L 412.43328 254.96928 
L 409.70304 251.08416 
L 409.70592 251.08416 
L 412.34688 237.63168 
L 423.35136 240.57504 
L 429.50304 233.72064 
L 418.74912 215.64864 
L 418.752 215.64864 
L 431.04672 204.03648 
L 430.69248 198.14112 
L 420.48 195.94656 
L 421.7616 174.87072 
L 420.5088 173.95488 
L 420.552 154.31904 
L 402.09696 158.26464 
L 397.1088 151.8048 
L 397.1088 151.8048 
L 400.30272 142.8624 
L 398.67264 137.79072 
L 398.67552 137.79072 
L 399.07584 135.288 
L 396.2448 126.35424 
L 383.49792 129.78432 
L 372.7296 121.60224 
L 372.7296 121.60512 
L 372.72096 119.65248 
L 360.99072 115.09632 
L 360.99072 115.09632 
L 360.49824 101.88576 
L 360.49824 101.88576 
L 361.66464 99.40608 
L 356.33664 90.49824 
L 344.51424 98.67744 
L 335.52864 94.43232 
L 326.4912 101.77056 
L 326.4912 101.76768 
L 321.45408 99.57024 
L 321.45696 99.56736 
L 321.5664 90.50688 
L 311.76576 83.90592 
L 303.6096 94.77792 
L 296.94816 86.73408 
L 285.51168 91.1664 
L 285.51168 91.16064 
L 277.01568 81.63648 
L 267.35904 100.11744 
L 258.08256 91.9584 
L 256.05792 91.61568 
L 249.336 101.09088 
L 249.336 101.09088 
L 238.95072 95.40864 
L 237.94848 97.3872 
L 237.94848 97.3872 
L 226.49184 102.91968 
L 223.26048 110.48256 
L 223.2576 110.47968 
L 213.61824 107.97408 
L 206.43264 116.76672 
L 207.41184 124.83936 
L 207.41184 124.83936 
L 194.56128 130.4784 
L 195.0048 136.24992 
L 195.0048 136.24704 
L 188.07552 143.74656 
L 191.65536 153.84096 
L 191.64672 153.83808 
L 183.13056 157.27968 
L 178.000128 168.47136 
L 178.000128 168.47136 
L 161.59248 183.49632 
L 164.910816 188.928 
L 166.322304 193.92768 
L 170.95248 199.07136 
L 170.949888 199.07136 
L 172.713888 206.74656 
L 173.870208 208.36224 
L 173.870208 208.36224 
" style="fill:none;stroke:#000000;stroke-linecap:square;"/>
   </g>
   <g id="line2d_3">
    <path clip-path="url(#p7d3436a0f8)" d="M 170.383392 208.85472 
L 171.154944 211.536 
L 171.154944 211.536 
L 171.154944 211.536 
L 171.047232 211.42368 
L 164.443968 228.65472 
L 165.805056 231.47136 
L 169.673184 232.59744 
L 169.64928 232.60608 
L 173.657952 242.21664 
L 173.641536 242.21376 
L 168.49728 251.11584 
L 177.2352 256.92192 
L 177.555744 256.92192 
L 174.842208 264.19968 
L 186.03648 274.52736 
L 172.285344 282.00384 
L 175.199328 296.09856 
L 183.48192 293.57856 
L 184.1328 292.7376 
L 193.50144 298.19232 
L 192.75552 306.8064 
L 198.91008 312.40512 
L 210.49344 306.864 
L 211.49856 307.17792 
L 219.02976 311.65056 
L 219.09312 312.10272 
L 219.13344 317.82816 
L 237.87648 330.44832 
L 237.86208 330.4656 
L 251.2944 340.553088 
L 260.712 330.24384 
L 261.41472 329.98176 
L 268.49376 340.951392 
L 277.28064 338.463936 
L 278.30592 338.677632 
L 285.96384 353.384928 
L 286.0128 353.30832 
L 286.01856 355.119264 
L 287.784 356.982624 
L 301.12992 354.500064 
L 306.56736 343.878336 
L 306.51264 342.318528 
L 307.31616 343.495872 
L 324.91296 341.030304 
L 330.15456 335.26368 
L 332.00928 334.168416 
L 336.45024 336.262464 
L 353.40768 325.008 
L 357.03648 326.90016 
L 361.53504 324.8496 
L 366.57792 313.85952 
L 366.7248 313.94304 
L 374.2128 311.01408 
L 374.77728 311.20992 
L 387.35712 318.19392 
L 392.75136 298.80864 
L 407.5056 293.1408 
L 400.74048 282.5568 
L 400.88448 282.59712 
L 403.416 273.20256 
L 403.5024 273.27456 
L 410.65632 269.66304 
L 411.18912 261.19872 
L 416.14848 255.32352 
L 413.41248 251.44128 
L 413.44992 251.45856 
L 416.06784 238.00032 
L 416.75328 237.74112 
L 427.824 240.408 
L 433.80288 233.40384 
L 426.30336 221.56128 
L 426.0528 221.80608 
L 422.49888 215.7552 
L 422.90208 215.88768 
L 434.9088 203.97312 
L 434.41056 198.0864 
L 424.14912 196.1424 
L 423.71424 195.94656 
L 424.69344 174.8448 
L 423.42912 173.94624 
L 423.54144 173.9088 
L 423.30528 154.2672 
L 404.8992 158.50368 
L 399.7872 152.11584 
L 402.8544 143.12448 
L 401.14944 138.07584 
L 401.31072 137.9952 
L 401.67648 135.4896 
L 398.71584 126.5904 
L 386.02368 130.20192 
L 384.77376 129.73824 
L 373.89312 121.71168 
L 373.63392 122.01984 
L 373.62528 120.0672 
L 361.89216 115.51392 
L 362.08512 115.36992 
L 361.58688 102.1536 
L 361.50912 102.21984 
L 362.67552 99.74016 
L 357.34176 90.83232 
L 345.52512 99.0144 
L 345.07872 98.064 
L 336.09312 93.81888 
L 327.05856 101.16 
L 327.36096 101.59488 
L 322.32384 99.39456 
L 321.77376 99.65952 
L 321.8832 90.59328 
L 312.08544 83.98944 
L 303.93504 94.8672 
L 303.08544 94.35456 
L 296.0496 86.63328 
L 284.83776 91.60128 
L 284.8032 91.24128 
L 276.3072 81.71136 
L 266.65632 100.18944 
L 266.35968 100.02816 
L 257.08608 91.86336 
L 255.05856 91.51776 
L 248.33952 100.99584 
L 248.33664 100.99296 
L 237.95424 95.30496 
L 236.952 97.28352 
L 236.952 97.28352 
L 225.49248 102.816 
L 222.26112 110.37888 
L 222.67296 111.73248 
L 213.36192 108.19872 
L 205.26912 116.16768 
L 205.36992 124.30368 
L 204.7968 125.54496 
L 191.79072 130.81248 
L 192.1968 137.22624 
L 185.27328 144.72864 
L 188.856 154.82592 
L 188.856 154.82304 
L 180.2448 158.02848 
L 174.802752 169.07328 
L 174.3552 168.9984 
L 157.953888 184.02336 
L 161.255232 189.46368 
L 161.412192 189.40608 
L 162.82224 194.40864 
L 167.450112 199.55232 
L 167.421888 199.56384 
L 169.183872 207.23904 
L 170.33904 208.8576 
L 170.33904 208.8576 
" style="fill:none;stroke:#000000;stroke-linecap:square;stroke-width:2.0;"/>
    <defs>
     <path d="M 0 2.5 
C 0.663008 2.5 1.29895 2.236584 1.767767 1.767767 
C 2.236584 1.29895 2.5 0.663008 2.5 0 
C 2.5 -0.663008 2.236584 -1.29895 1.767767 -1.767767 
C 1.29895 -2.236584 0.663008 -2.5 0 -2.5 
C -0.663008 -2.5 -1.29895 -2.236584 -1.767767 -1.767767 
C -2.236584 -1.29895 -2.5 -0.663008 -2.5 0 
C -2.5 0.663008 -2.236584 1.29895 -1.767767 1.767767 
C -1.29895 2.236584 -0.663008 2.5 0 2.5 
z
" id="m423e2dfbf1" style="stroke:#000000;stroke-width:0.5;"/>
    </defs>
    <g clip-path="url(#p7d3436a0f8)">
     <use style="stroke:#000000;stroke-width:0.5;" x="170.383392" xlink:href="#m423e2dfbf1" y="208.85472"/>
     <use style="stroke:#000000;stroke-width:0.5;" x="171.154944" xlink:href="#m423e2dfbf1" y="211.536"/>
     <use style="stroke:#000000;stroke-width:0.5;" x="171.047232" xlink:href="#m423e2dfbf1" y="211.42368"/>
     <use style="stroke:#000000;stroke-width:0.5;" x="167.74704" xlink:href="#m423e2dfbf1" y="220.04064"/>
     <use style="stroke:#000000;stroke-width:0.5;" x="164.443968" xlink:href="#m423e2dfbf1" y="228.65472"/>
     <use style="stroke:#000000;stroke-width:0.5;" x="165.805056" xlink:href="#m423e2dfbf1" y="231.47136"/>
     <use style="stroke:#000000;stroke-width:0.5;" x="169.673184" xlink:href="#m423e2dfbf1" y="232.59744"/>
     <use style="stroke:#000000;stroke-width:0.5;" x="169.64928" xlink:href="#m423e2dfbf1" y="232.60608"/>
     <use style="stroke:#000000;stroke-width:0.5;" x="173.657952" xlink:href="#m423e2dfbf1" y="242.21664"/>
     <use style="stroke:#000000;stroke-width:0.5;" x="173.641536" xlink:href="#m423e2dfbf1" y="242.21376"/>
     <use style="stroke:#000000;stroke-width:0.5;" x="168.49728" xlink:href="#m423e2dfbf1" y="251.11584"/>
     <use style="stroke:#000000;stroke-width:0.5;" x="177.2352" xlink:href="#m423e2dfbf1" y="256.92192"/>
     <use style="stroke:#000000;stroke-width:0.5;" x="177.555744" xlink:href="#m423e2dfbf1" y="256.92192"/>
     <use style="stroke:#000000;stroke-width:0.5;" x="174.842208" xlink:href="#m423e2dfbf1" y="264.19968"/>
     <use style="stroke:#000000;stroke-width:0.5;" x="180.39744" xlink:href="#m423e2dfbf1" y="269.3664"/>
     <use style="stroke:#000000;stroke-width:0.5;" x="185.95584" xlink:href="#m423e2dfbf1" y="274.53312"/>
     <use style="stroke:#000000;stroke-width:0.5;" x="186.03648" xlink:href="#m423e2dfbf1" y="274.52736"/>
     <use style="stroke:#000000;stroke-width:0.5;" x="179.160768" xlink:href="#m423e2dfbf1" y="278.2656"/>
     <use style="stroke:#000000;stroke-width:0.5;" x="172.285344" xlink:href="#m423e2dfbf1" y="282.00384"/>
     <use style="stroke:#000000;stroke-width:0.5;" x="175.199328" xlink:href="#m423e2dfbf1" y="296.09856"/>
     <use style="stroke:#000000;stroke-width:0.5;" x="183.48192" xlink:href="#m423e2dfbf1" y="293.57856"/>
     <use style="stroke:#000000;stroke-width:0.5;" x="184.1328" xlink:href="#m423e2dfbf1" y="292.7376"/>
     <use style="stroke:#000000;stroke-width:0.5;" x="193.15008" xlink:href="#m423e2dfbf1" y="298.03104"/>
     <use style="stroke:#000000;stroke-width:0.5;" x="193.50144" xlink:href="#m423e2dfbf1" y="298.19232"/>
     <use style="stroke:#000000;stroke-width:0.5;" x="192.75552" xlink:href="#m423e2dfbf1" y="306.8064"/>
     <use style="stroke:#000000;stroke-width:0.5;" x="198.91008" xlink:href="#m423e2dfbf1" y="312.40512"/>
     <use style="stroke:#000000;stroke-width:0.5;" x="210.49344" xlink:href="#m423e2dfbf1" y="306.864"/>
     <use style="stroke:#000000;stroke-width:0.5;" x="211.49856" xlink:href="#m423e2dfbf1" y="307.17792"/>
     <use style="stroke:#000000;stroke-width:0.5;" x="219.02976" xlink:href="#m423e2dfbf1" y="311.65056"/>
     <use style="stroke:#000000;stroke-width:0.5;" x="219.09312" xlink:href="#m423e2dfbf1" y="312.10272"/>
     <use style="stroke:#000000;stroke-width:0.5;" x="219.13344" xlink:href="#m423e2dfbf1" y="317.82816"/>
     <use style="stroke:#000000;stroke-width:0.5;" x="228.50496" xlink:href="#m423e2dfbf1" y="324.14112"/>
     <use style="stroke:#000000;stroke-width:0.5;" x="237.87648" xlink:href="#m423e2dfbf1" y="330.44832"/>
     <use style="stroke:#000000;stroke-width:0.5;" x="237.86208" xlink:href="#m423e2dfbf1" y="330.4656"/>
     <use style="stroke:#000000;stroke-width:0.5;" x="244.58112" xlink:href="#m423e2dfbf1" y="335.508192"/>
     <use style="stroke:#000000;stroke-width:0.5;" x="251.2944" xlink:href="#m423e2dfbf1" y="340.553088"/>
     <use style="stroke:#000000;stroke-width:0.5;" x="260.712" xlink:href="#m423e2dfbf1" y="330.24384"/>
     <use style="stroke:#000000;stroke-width:0.5;" x="261.41472" xlink:href="#m423e2dfbf1" y="329.98176"/>
     <use style="stroke:#000000;stroke-width:0.5;" x="268.49376" xlink:href="#m423e2dfbf1" y="340.951392"/>
     <use style="stroke:#000000;stroke-width:0.5;" x="277.28064" xlink:href="#m423e2dfbf1" y="338.463936"/>
     <use style="stroke:#000000;stroke-width:0.5;" x="278.30592" xlink:href="#m423e2dfbf1" y="338.677632"/>
     <use style="stroke:#000000;stroke-width:0.5;" x="282.13344" xlink:href="#m423e2dfbf1" y="346.030848"/>
     <use style="stroke:#000000;stroke-width:0.5;" x="285.96384" xlink:href="#m423e2dfbf1" y="353.384928"/>
     <use style="stroke:#000000;stroke-width:0.5;" x="286.0128" xlink:href="#m423e2dfbf1" y="353.30832"/>
     <use style="stroke:#000000;stroke-width:0.5;" x="286.01856" xlink:href="#m423e2dfbf1" y="355.119264"/>
     <use style="stroke:#000000;stroke-width:0.5;" x="287.784" xlink:href="#m423e2dfbf1" y="356.982624"/>
     <use style="stroke:#000000;stroke-width:0.5;" x="301.12992" xlink:href="#m423e2dfbf1" y="354.500064"/>
     <use style="stroke:#000000;stroke-width:0.5;" x="306.56736" xlink:href="#m423e2dfbf1" y="343.878336"/>
     <use style="stroke:#000000;stroke-width:0.5;" x="306.51264" xlink:href="#m423e2dfbf1" y="342.318528"/>
     <use style="stroke:#000000;stroke-width:0.5;" x="307.31616" xlink:href="#m423e2dfbf1" y="343.495872"/>
     <use style="stroke:#000000;stroke-width:0.5;" x="316.11456" xlink:href="#m423e2dfbf1" y="342.263232"/>
     <use style="stroke:#000000;stroke-width:0.5;" x="324.91296" xlink:href="#m423e2dfbf1" y="341.030304"/>
     <use style="stroke:#000000;stroke-width:0.5;" x="330.15456" xlink:href="#m423e2dfbf1" y="335.26368"/>
     <use style="stroke:#000000;stroke-width:0.5;" x="332.00928" xlink:href="#m423e2dfbf1" y="334.168416"/>
     <use style="stroke:#000000;stroke-width:0.5;" x="336.45024" xlink:href="#m423e2dfbf1" y="336.262464"/>
     <use style="stroke:#000000;stroke-width:0.5;" x="344.8944" xlink:href="#m423e2dfbf1" y="330.62112"/>
     <use style="stroke:#000000;stroke-width:0.5;" x="353.33568" xlink:href="#m423e2dfbf1" y="324.9792"/>
     <use style="stroke:#000000;stroke-width:0.5;" x="353.40768" xlink:href="#m423e2dfbf1" y="325.008"/>
     <use style="stroke:#000000;stroke-width:0.5;" x="357.03648" xlink:href="#m423e2dfbf1" y="326.90016"/>
     <use style="stroke:#000000;stroke-width:0.5;" x="361.53504" xlink:href="#m423e2dfbf1" y="324.8496"/>
     <use style="stroke:#000000;stroke-width:0.5;" x="366.57792" xlink:href="#m423e2dfbf1" y="313.85952"/>
     <use style="stroke:#000000;stroke-width:0.5;" x="366.7248" xlink:href="#m423e2dfbf1" y="313.94304"/>
     <use style="stroke:#000000;stroke-width:0.5;" x="374.2128" xlink:href="#m423e2dfbf1" y="311.01408"/>
     <use style="stroke:#000000;stroke-width:0.5;" x="374.77728" xlink:href="#m423e2dfbf1" y="311.20992"/>
     <use style="stroke:#000000;stroke-width:0.5;" x="387.35712" xlink:href="#m423e2dfbf1" y="318.19392"/>
     <use style="stroke:#000000;stroke-width:0.5;" x="390.05856" xlink:href="#m423e2dfbf1" y="308.52"/>
     <use style="stroke:#000000;stroke-width:0.5;" x="392.76" xlink:href="#m423e2dfbf1" y="298.84608"/>
     <use style="stroke:#000000;stroke-width:0.5;" x="392.75136" xlink:href="#m423e2dfbf1" y="298.80864"/>
     <use style="stroke:#000000;stroke-width:0.5;" x="400.12704" xlink:href="#m423e2dfbf1" y="295.97472"/>
     <use style="stroke:#000000;stroke-width:0.5;" x="407.5056" xlink:href="#m423e2dfbf1" y="293.1408"/>
     <use style="stroke:#000000;stroke-width:0.5;" x="400.74048" xlink:href="#m423e2dfbf1" y="282.5568"/>
     <use style="stroke:#000000;stroke-width:0.5;" x="400.88448" xlink:href="#m423e2dfbf1" y="282.59712"/>
     <use style="stroke:#000000;stroke-width:0.5;" x="403.416" xlink:href="#m423e2dfbf1" y="273.20256"/>
     <use style="stroke:#000000;stroke-width:0.5;" x="403.5024" xlink:href="#m423e2dfbf1" y="273.27456"/>
     <use style="stroke:#000000;stroke-width:0.5;" x="410.65632" xlink:href="#m423e2dfbf1" y="269.66304"/>
     <use style="stroke:#000000;stroke-width:0.5;" x="411.264" xlink:href="#m423e2dfbf1" y="261.20448"/>
     <use style="stroke:#000000;stroke-width:0.5;" x="411.18912" xlink:href="#m423e2dfbf1" y="261.19872"/>
     <use style="stroke:#000000;stroke-width:0.5;" x="416.14848" xlink:href="#m423e2dfbf1" y="255.32352"/>
     <use style="stroke:#000000;stroke-width:0.5;" x="413.41248" xlink:href="#m423e2dfbf1" y="251.44128"/>
     <use style="stroke:#000000;stroke-width:0.5;" x="413.44992" xlink:href="#m423e2dfbf1" y="251.45856"/>
     <use style="stroke:#000000;stroke-width:0.5;" x="416.06784" xlink:href="#m423e2dfbf1" y="238.00032"/>
     <use style="stroke:#000000;stroke-width:0.5;" x="416.75328" xlink:href="#m423e2dfbf1" y="237.74112"/>
     <use style="stroke:#000000;stroke-width:0.5;" x="427.824" xlink:href="#m423e2dfbf1" y="240.408"/>
     <use style="stroke:#000000;stroke-width:0.5;" x="433.80288" xlink:href="#m423e2dfbf1" y="233.40384"/>
     <use style="stroke:#000000;stroke-width:0.5;" x="426.30336" xlink:href="#m423e2dfbf1" y="221.56128"/>
     <use style="stroke:#000000;stroke-width:0.5;" x="426.0528" xlink:href="#m423e2dfbf1" y="221.80608"/>
     <use style="stroke:#000000;stroke-width:0.5;" x="422.49888" xlink:href="#m423e2dfbf1" y="215.7552"/>
     <use style="stroke:#000000;stroke-width:0.5;" x="422.90208" xlink:href="#m423e2dfbf1" y="215.88768"/>
     <use style="stroke:#000000;stroke-width:0.5;" x="428.904" xlink:href="#m423e2dfbf1" y="209.92896"/>
     <use style="stroke:#000000;stroke-width:0.5;" x="434.9088" xlink:href="#m423e2dfbf1" y="203.97312"/>
     <use style="stroke:#000000;stroke-width:0.5;" x="434.41056" xlink:href="#m423e2dfbf1" y="198.0864"/>
     <use style="stroke:#000000;stroke-width:0.5;" x="424.14912" xlink:href="#m423e2dfbf1" y="196.1424"/>
     <use style="stroke:#000000;stroke-width:0.5;" x="423.71424" xlink:href="#m423e2dfbf1" y="195.94656"/>
     <use style="stroke:#000000;stroke-width:0.5;" x="424.20384" xlink:href="#m423e2dfbf1" y="185.39712"/>
     <use style="stroke:#000000;stroke-width:0.5;" x="424.69344" xlink:href="#m423e2dfbf1" y="174.8448"/>
     <use style="stroke:#000000;stroke-width:0.5;" x="423.42912" xlink:href="#m423e2dfbf1" y="173.94624"/>
     <use style="stroke:#000000;stroke-width:0.5;" x="423.54144" xlink:href="#m423e2dfbf1" y="173.9088"/>
     <use style="stroke:#000000;stroke-width:0.5;" x="423.42336" xlink:href="#m423e2dfbf1" y="164.088"/>
     <use style="stroke:#000000;stroke-width:0.5;" x="423.30528" xlink:href="#m423e2dfbf1" y="154.2672"/>
     <use style="stroke:#000000;stroke-width:0.5;" x="414.10944" xlink:href="#m423e2dfbf1" y="156.3696"/>
     <use style="stroke:#000000;stroke-width:0.5;" x="404.9136" xlink:href="#m423e2dfbf1" y="158.472"/>
     <use style="stroke:#000000;stroke-width:0.5;" x="404.8992" xlink:href="#m423e2dfbf1" y="158.50368"/>
     <use style="stroke:#000000;stroke-width:0.5;" x="399.81888" xlink:href="#m423e2dfbf1" y="152.11296"/>
     <use style="stroke:#000000;stroke-width:0.5;" x="399.7872" xlink:href="#m423e2dfbf1" y="152.11584"/>
     <use style="stroke:#000000;stroke-width:0.5;" x="402.8544" xlink:href="#m423e2dfbf1" y="143.12448"/>
     <use style="stroke:#000000;stroke-width:0.5;" x="401.14944" xlink:href="#m423e2dfbf1" y="138.07584"/>
     <use style="stroke:#000000;stroke-width:0.5;" x="401.31072" xlink:href="#m423e2dfbf1" y="137.9952"/>
     <use style="stroke:#000000;stroke-width:0.5;" x="401.67648" xlink:href="#m423e2dfbf1" y="135.4896"/>
     <use style="stroke:#000000;stroke-width:0.5;" x="398.71584" xlink:href="#m423e2dfbf1" y="126.5904"/>
     <use style="stroke:#000000;stroke-width:0.5;" x="386.02368" xlink:href="#m423e2dfbf1" y="130.20192"/>
     <use style="stroke:#000000;stroke-width:0.5;" x="384.77376" xlink:href="#m423e2dfbf1" y="129.73824"/>
     <use style="stroke:#000000;stroke-width:0.5;" x="373.89312" xlink:href="#m423e2dfbf1" y="121.71168"/>
     <use style="stroke:#000000;stroke-width:0.5;" x="373.63392" xlink:href="#m423e2dfbf1" y="122.01984"/>
     <use style="stroke:#000000;stroke-width:0.5;" x="373.62528" xlink:href="#m423e2dfbf1" y="120.0672"/>
     <use style="stroke:#000000;stroke-width:0.5;" x="361.89216" xlink:href="#m423e2dfbf1" y="115.51392"/>
     <use style="stroke:#000000;stroke-width:0.5;" x="362.08512" xlink:href="#m423e2dfbf1" y="115.36992"/>
     <use style="stroke:#000000;stroke-width:0.5;" x="361.58688" xlink:href="#m423e2dfbf1" y="102.1536"/>
     <use style="stroke:#000000;stroke-width:0.5;" x="361.50912" xlink:href="#m423e2dfbf1" y="102.21984"/>
     <use style="stroke:#000000;stroke-width:0.5;" x="362.67552" xlink:href="#m423e2dfbf1" y="99.74016"/>
     <use style="stroke:#000000;stroke-width:0.5;" x="357.34176" xlink:href="#m423e2dfbf1" y="90.83232"/>
     <use style="stroke:#000000;stroke-width:0.5;" x="345.52512" xlink:href="#m423e2dfbf1" y="99.0144"/>
     <use style="stroke:#000000;stroke-width:0.5;" x="345.07872" xlink:href="#m423e2dfbf1" y="98.064"/>
     <use style="stroke:#000000;stroke-width:0.5;" x="336.09312" xlink:href="#m423e2dfbf1" y="93.81888"/>
     <use style="stroke:#000000;stroke-width:0.5;" x="327.05856" xlink:href="#m423e2dfbf1" y="101.16"/>
     <use style="stroke:#000000;stroke-width:0.5;" x="327.36096" xlink:href="#m423e2dfbf1" y="101.59488"/>
     <use style="stroke:#000000;stroke-width:0.5;" x="322.32384" xlink:href="#m423e2dfbf1" y="99.39456"/>
     <use style="stroke:#000000;stroke-width:0.5;" x="321.77376" xlink:href="#m423e2dfbf1" y="99.65952"/>
     <use style="stroke:#000000;stroke-width:0.5;" x="321.8832" xlink:href="#m423e2dfbf1" y="90.59328"/>
     <use style="stroke:#000000;stroke-width:0.5;" x="312.08544" xlink:href="#m423e2dfbf1" y="83.98944"/>
     <use style="stroke:#000000;stroke-width:0.5;" x="303.93504" xlink:href="#m423e2dfbf1" y="94.8672"/>
     <use style="stroke:#000000;stroke-width:0.5;" x="303.08544" xlink:href="#m423e2dfbf1" y="94.35456"/>
     <use style="stroke:#000000;stroke-width:0.5;" x="296.0496" xlink:href="#m423e2dfbf1" y="86.63328"/>
     <use style="stroke:#000000;stroke-width:0.5;" x="284.83776" xlink:href="#m423e2dfbf1" y="91.60128"/>
     <use style="stroke:#000000;stroke-width:0.5;" x="284.8032" xlink:href="#m423e2dfbf1" y="91.24128"/>
     <use style="stroke:#000000;stroke-width:0.5;" x="276.3072" xlink:href="#m423e2dfbf1" y="81.71136"/>
     <use style="stroke:#000000;stroke-width:0.5;" x="271.4832" xlink:href="#m423e2dfbf1" y="90.9504"/>
     <use style="stroke:#000000;stroke-width:0.5;" x="266.65632" xlink:href="#m423e2dfbf1" y="100.18944"/>
     <use style="stroke:#000000;stroke-width:0.5;" x="266.35968" xlink:href="#m423e2dfbf1" y="100.02816"/>
     <use style="stroke:#000000;stroke-width:0.5;" x="257.08608" xlink:href="#m423e2dfbf1" y="91.86336"/>
     <use style="stroke:#000000;stroke-width:0.5;" x="255.05856" xlink:href="#m423e2dfbf1" y="91.51776"/>
     <use style="stroke:#000000;stroke-width:0.5;" x="248.33952" xlink:href="#m423e2dfbf1" y="100.99584"/>
     <use style="stroke:#000000;stroke-width:0.5;" x="248.33664" xlink:href="#m423e2dfbf1" y="100.99296"/>
     <use style="stroke:#000000;stroke-width:0.5;" x="237.95424" xlink:href="#m423e2dfbf1" y="95.30496"/>
     <use style="stroke:#000000;stroke-width:0.5;" x="236.952" xlink:href="#m423e2dfbf1" y="97.28352"/>
     <use style="stroke:#000000;stroke-width:0.5;" x="236.952" xlink:href="#m423e2dfbf1" y="97.28352"/>
     <use style="stroke:#000000;stroke-width:0.5;" x="225.49248" xlink:href="#m423e2dfbf1" y="102.816"/>
     <use style="stroke:#000000;stroke-width:0.5;" x="222.26112" xlink:href="#m423e2dfbf1" y="110.37888"/>
     <use style="stroke:#000000;stroke-width:0.5;" x="222.67296" xlink:href="#m423e2dfbf1" y="111.73248"/>
     <use style="stroke:#000000;stroke-width:0.5;" x="213.36192" xlink:href="#m423e2dfbf1" y="108.19872"/>
     <use style="stroke:#000000;stroke-width:0.5;" x="205.26912" xlink:href="#m423e2dfbf1" y="116.16768"/>
     <use style="stroke:#000000;stroke-width:0.5;" x="205.36992" xlink:href="#m423e2dfbf1" y="124.30368"/>
     <use style="stroke:#000000;stroke-width:0.5;" x="204.7968" xlink:href="#m423e2dfbf1" y="125.54496"/>
     <use style="stroke:#000000;stroke-width:0.5;" x="191.79072" xlink:href="#m423e2dfbf1" y="130.81248"/>
     <use style="stroke:#000000;stroke-width:0.5;" x="192.0672" xlink:href="#m423e2dfbf1" y="136.59552"/>
     <use style="stroke:#000000;stroke-width:0.5;" x="192.1968" xlink:href="#m423e2dfbf1" y="137.22624"/>
     <use style="stroke:#000000;stroke-width:0.5;" x="185.27328" xlink:href="#m423e2dfbf1" y="144.72864"/>
     <use style="stroke:#000000;stroke-width:0.5;" x="188.856" xlink:href="#m423e2dfbf1" y="154.82592"/>
     <use style="stroke:#000000;stroke-width:0.5;" x="188.856" xlink:href="#m423e2dfbf1" y="154.82304"/>
     <use style="stroke:#000000;stroke-width:0.5;" x="180.2448" xlink:href="#m423e2dfbf1" y="158.02848"/>
     <use style="stroke:#000000;stroke-width:0.5;" x="174.802752" xlink:href="#m423e2dfbf1" y="169.07328"/>
     <use style="stroke:#000000;stroke-width:0.5;" x="174.3552" xlink:href="#m423e2dfbf1" y="168.9984"/>
     <use style="stroke:#000000;stroke-width:0.5;" x="166.154976" xlink:href="#m423e2dfbf1" y="176.51232"/>
     <use style="stroke:#000000;stroke-width:0.5;" x="157.953888" xlink:href="#m423e2dfbf1" y="184.02336"/>
     <use style="stroke:#000000;stroke-width:0.5;" x="161.255232" xlink:href="#m423e2dfbf1" y="189.46368"/>
     <use style="stroke:#000000;stroke-width:0.5;" x="161.412192" xlink:href="#m423e2dfbf1" y="189.40608"/>
     <use style="stroke:#000000;stroke-width:0.5;" x="162.82224" xlink:href="#m423e2dfbf1" y="194.40864"/>
     <use style="stroke:#000000;stroke-width:0.5;" x="167.450112" xlink:href="#m423e2dfbf1" y="199.55232"/>
     <use style="stroke:#000000;stroke-width:0.5;" x="167.421888" xlink:href="#m423e2dfbf1" y="199.56384"/>
     <use style="stroke:#000000;stroke-width:0.5;" x="169.183872" xlink:href="#m423e2dfbf1" y="207.23904"/>
     <use style="stroke:#000000;stroke-width:0.5;" x="170.33904" xlink:href="#m423e2dfbf1" y="208.8576"/>
    </g>
   </g>
   <g id="line2d_4">
    <path clip-path="url(#p7d3436a0f8)" d="M 367.2 141.12 
L 396 141.12 
L 396 118.08 
L 367.2 118.08 
L 367.2 141.12 
" style="fill:none;stroke:#ff0000;stroke-linecap:square;"/>
   </g>
   <g id="patch_3">
    <path d="M 72 43.2 
L 518.4 43.2 
" style="fill:none;stroke:#000000;stroke-linecap:square;stroke-linejoin:miter;"/>
   </g>
   <g id="patch_4">
    <path d="M 518.4 388.8 
L 518.4 43.2 
" style="fill:none;stroke:#000000;stroke-linecap:square;stroke-linejoin:miter;"/>
   </g>
   <g id="patch_5">
    <path d="M 72 388.8 
L 518.4 388.8 
" style="fill:none;stroke:#000000;stroke-linecap:square;stroke-linejoin:miter;"/>
   </g>
   <g id="patch_6">
    <path d="M 72 388.8 
L 72 43.2 
" style="fill:none;stroke:#000000;stroke-linecap:square;stroke-linejoin:miter;"/>
   </g>
   <g id="matplotlib.axis_1">
    <g id="xtick_1">
     <g id="line2d_5">
      <defs>
       <path d="M 0 0 
L 0 -4 
" id="m415a775eb8" style="stroke:#000000;stroke-width:0.5;"/>
      </defs>
      <g>
       <use style="stroke:#000000;stroke-width:0.5;" x="93.6" xlink:href="#m415a775eb8" y="388.8"/>
      </g>
     </g>
     <g id="line2d_6">
      <defs>
       <path d="M 0 0 
L 0 4 
" id="m09016efe1d" style="stroke:#000000;stroke-width:0.5;"/>
      </defs>
      <g>
       <use style="stroke:#000000;stroke-width:0.5;" x="93.6" xlink:href="#m09016efe1d" y="43.2"/>
      </g>
     </g>
     <g id="text_1">
      <!-- −2 -->
      <defs>
       <path d="M 10.59375 35.5 
L 73.1875 35.5 
L 73.1875 27.203125 
L 10.59375 27.203125 
z
" id="BitstreamVeraSans-Roman-2212"/>
       <path d="M 19.1875 8.296875 
L 53.609375 8.296875 
L 53.609375 0 
L 7.328125 0 
L 7.328125 8.296875 
Q 12.9375 14.109375 22.625 23.890625 
Q 32.328125 33.6875 34.8125 36.53125 
Q 39.546875 41.84375 41.421875 45.53125 
Q 43.3125 49.21875 43.3125 52.78125 
Q 43.3125 58.59375 39.234375 62.25 
Q 35.15625 65.921875 28.609375 65.921875 
Q 23.96875 65.921875 18.8125 64.3125 
Q 13.671875 62.703125 7.8125 59.421875 
L 7.8125 69.390625 
Q 13.765625 71.78125 18.9375 73 
Q 24.125 74.21875 28.421875 74.21875 
Q 39.75 74.21875 46.484375 68.546875 
Q 53.21875 62.890625 53.21875 53.421875 
Q 53.21875 48.921875 51.53125 44.890625 
Q 49.859375 40.875 45.40625 35.40625 
Q 44.1875 33.984375 37.640625 27.21875 
Q 31.109375 20.453125 19.1875 8.296875 
" id="BitstreamVeraSans-Roman-32"/>
      </defs>
      <g transform="translate(84.7546875 401.918125)scale(0.12 -0.12)">
       <use xlink:href="#BitstreamVeraSans-Roman-2212"/>
       <use x="83.7890625" xlink:href="#BitstreamVeraSans-Roman-32"/>
      </g>
     </g>
    </g>
    <g id="xtick_2">
     <g id="line2d_7">
      <g>
       <use style="stroke:#000000;stroke-width:0.5;" x="151.2" xlink:href="#m415a775eb8" y="388.8"/>
      </g>
     </g>
     <g id="line2d_8">
      <g>
       <use style="stroke:#000000;stroke-width:0.5;" x="151.2" xlink:href="#m09016efe1d" y="43.2"/>
      </g>
     </g>
     <g id="text_2">
      <!-- 0 -->
      <defs>
       <path d="M 31.78125 66.40625 
Q 24.171875 66.40625 20.328125 58.90625 
Q 16.5 51.421875 16.5 36.375 
Q 16.5 21.390625 20.328125 13.890625 
Q 24.171875 6.390625 31.78125 6.390625 
Q 39.453125 6.390625 43.28125 13.890625 
Q 47.125 21.390625 47.125 36.375 
Q 47.125 51.421875 43.28125 58.90625 
Q 39.453125 66.40625 31.78125 66.40625 
M 31.78125 74.21875 
Q 44.046875 74.21875 50.515625 64.515625 
Q 56.984375 54.828125 56.984375 36.375 
Q 56.984375 17.96875 50.515625 8.265625 
Q 44.046875 -1.421875 31.78125 -1.421875 
Q 19.53125 -1.421875 13.0625 8.265625 
Q 6.59375 17.96875 6.59375 36.375 
Q 6.59375 54.828125 13.0625 64.515625 
Q 19.53125 74.21875 31.78125 74.21875 
" id="BitstreamVeraSans-Roman-30"/>
      </defs>
      <g transform="translate(147.3825 401.918125)scale(0.12 -0.12)">
       <use xlink:href="#BitstreamVeraSans-Roman-30"/>
      </g>
     </g>
    </g>
    <g id="xtick_3">
     <g id="line2d_9">
      <g>
       <use style="stroke:#000000;stroke-width:0.5;" x="208.8" xlink:href="#m415a775eb8" y="388.8"/>
      </g>
     </g>
     <g id="line2d_10">
      <g>
       <use style="stroke:#000000;stroke-width:0.5;" x="208.8" xlink:href="#m09016efe1d" y="43.2"/>
      </g>
     </g>
     <g id="text_3">
      <!-- 2 -->
      <g transform="translate(204.9825 401.918125)scale(0.12 -0.12)">
       <use xlink:href="#BitstreamVeraSans-Roman-32"/>
      </g>
     </g>
    </g>
    <g id="xtick_4">
     <g id="line2d_11">
      <g>
       <use style="stroke:#000000;stroke-width:0.5;" x="266.4" xlink:href="#m415a775eb8" y="388.8"/>
      </g>
     </g>
     <g id="line2d_12">
      <g>
       <use style="stroke:#000000;stroke-width:0.5;" x="266.4" xlink:href="#m09016efe1d" y="43.2"/>
      </g>
     </g>
     <g id="text_4">
      <!-- 4 -->
      <defs>
       <path d="M 37.796875 64.3125 
L 12.890625 25.390625 
L 37.796875 25.390625 
z
M 35.203125 72.90625 
L 47.609375 72.90625 
L 47.609375 25.390625 
L 58.015625 25.390625 
L 58.015625 17.1875 
L 47.609375 17.1875 
L 47.609375 0 
L 37.796875 0 
L 37.796875 17.1875 
L 4.890625 17.1875 
L 4.890625 26.703125 
z
" id="BitstreamVeraSans-Roman-34"/>
      </defs>
      <g transform="translate(262.5825 401.918125)scale(0.12 -0.12)">
       <use xlink:href="#BitstreamVeraSans-Roman-34"/>
      </g>
     </g>
    </g>
    <g id="xtick_5">
     <g id="line2d_13">
      <g>
       <use style="stroke:#000000;stroke-width:0.5;" x="324.0" xlink:href="#m415a775eb8" y="388.8"/>
      </g>
     </g>
     <g id="line2d_14">
      <g>
       <use style="stroke:#000000;stroke-width:0.5;" x="324.0" xlink:href="#m09016efe1d" y="43.2"/>
      </g>
     </g>
     <g id="text_5">
      <!-- 6 -->
      <defs>
       <path d="M 33.015625 40.375 
Q 26.375 40.375 22.484375 35.828125 
Q 18.609375 31.296875 18.609375 23.390625 
Q 18.609375 15.53125 22.484375 10.953125 
Q 26.375 6.390625 33.015625 6.390625 
Q 39.65625 6.390625 43.53125 10.953125 
Q 47.40625 15.53125 47.40625 23.390625 
Q 47.40625 31.296875 43.53125 35.828125 
Q 39.65625 40.375 33.015625 40.375 
M 52.59375 71.296875 
L 52.59375 62.3125 
Q 48.875 64.0625 45.09375 64.984375 
Q 41.3125 65.921875 37.59375 65.921875 
Q 27.828125 65.921875 22.671875 59.328125 
Q 17.53125 52.734375 16.796875 39.40625 
Q 19.671875 43.65625 24.015625 45.921875 
Q 28.375 48.1875 33.59375 48.1875 
Q 44.578125 48.1875 50.953125 41.515625 
Q 57.328125 34.859375 57.328125 23.390625 
Q 57.328125 12.15625 50.6875 5.359375 
Q 44.046875 -1.421875 33.015625 -1.421875 
Q 20.359375 -1.421875 13.671875 8.265625 
Q 6.984375 17.96875 6.984375 36.375 
Q 6.984375 53.65625 15.1875 63.9375 
Q 23.390625 74.21875 37.203125 74.21875 
Q 40.921875 74.21875 44.703125 73.484375 
Q 48.484375 72.75 52.59375 71.296875 
" id="BitstreamVeraSans-Roman-36"/>
      </defs>
      <g transform="translate(320.1825 401.918125)scale(0.12 -0.12)">
       <use xlink:href="#BitstreamVeraSans-Roman-36"/>
      </g>
     </g>
    </g>
    <g id="xtick_6">
     <g id="line2d_15">
      <g>
       <use style="stroke:#000000;stroke-width:0.5;" x="381.6" xlink:href="#m415a775eb8" y="388.8"/>
      </g>
     </g>
     <g id="line2d_16">
      <g>
       <use style="stroke:#000000;stroke-width:0.5;" x="381.6" xlink:href="#m09016efe1d" y="43.2"/>
      </g>
     </g>
     <g id="text_6">
      <!-- 8 -->
      <defs>
       <path d="M 31.78125 34.625 
Q 24.75 34.625 20.71875 30.859375 
Q 16.703125 27.09375 16.703125 20.515625 
Q 16.703125 13.921875 20.71875 10.15625 
Q 24.75 6.390625 31.78125 6.390625 
Q 38.8125 6.390625 42.859375 10.171875 
Q 46.921875 13.96875 46.921875 20.515625 
Q 46.921875 27.09375 42.890625 30.859375 
Q 38.875 34.625 31.78125 34.625 
M 21.921875 38.8125 
Q 15.578125 40.375 12.03125 44.71875 
Q 8.5 49.078125 8.5 55.328125 
Q 8.5 64.0625 14.71875 69.140625 
Q 20.953125 74.21875 31.78125 74.21875 
Q 42.671875 74.21875 48.875 69.140625 
Q 55.078125 64.0625 55.078125 55.328125 
Q 55.078125 49.078125 51.53125 44.71875 
Q 48 40.375 41.703125 38.8125 
Q 48.828125 37.15625 52.796875 32.3125 
Q 56.78125 27.484375 56.78125 20.515625 
Q 56.78125 9.90625 50.3125 4.234375 
Q 43.84375 -1.421875 31.78125 -1.421875 
Q 19.734375 -1.421875 13.25 4.234375 
Q 6.78125 9.90625 6.78125 20.515625 
Q 6.78125 27.484375 10.78125 32.3125 
Q 14.796875 37.15625 21.921875 38.8125 
M 18.3125 54.390625 
Q 18.3125 48.734375 21.84375 45.5625 
Q 25.390625 42.390625 31.78125 42.390625 
Q 38.140625 42.390625 41.71875 45.5625 
Q 45.3125 48.734375 45.3125 54.390625 
Q 45.3125 60.0625 41.71875 63.234375 
Q 38.140625 66.40625 31.78125 66.40625 
Q 25.390625 66.40625 21.84375 63.234375 
Q 18.3125 60.0625 18.3125 54.390625 
" id="BitstreamVeraSans-Roman-38"/>
      </defs>
      <g transform="translate(377.7825 401.918125)scale(0.12 -0.12)">
       <use xlink:href="#BitstreamVeraSans-Roman-38"/>
      </g>
     </g>
    </g>
    <g id="xtick_7">
     <g id="line2d_17">
      <g>
       <use style="stroke:#000000;stroke-width:0.5;" x="439.2" xlink:href="#m415a775eb8" y="388.8"/>
      </g>
     </g>
     <g id="line2d_18">
      <g>
       <use style="stroke:#000000;stroke-width:0.5;" x="439.2" xlink:href="#m09016efe1d" y="43.2"/>
      </g>
     </g>
     <g id="text_7">
      <!-- 10 -->
      <defs>
       <path d="M 12.40625 8.296875 
L 28.515625 8.296875 
L 28.515625 63.921875 
L 10.984375 60.40625 
L 10.984375 69.390625 
L 28.421875 72.90625 
L 38.28125 72.90625 
L 38.28125 8.296875 
L 54.390625 8.296875 
L 54.390625 0 
L 12.40625 0 
z
" id="BitstreamVeraSans-Roman-31"/>
      </defs>
      <g transform="translate(431.565 401.918125)scale(0.12 -0.12)">
       <use xlink:href="#BitstreamVeraSans-Roman-31"/>
       <use x="63.623046875" xlink:href="#BitstreamVeraSans-Roman-30"/>
      </g>
     </g>
    </g>
    <g id="xtick_8">
     <g id="line2d_19">
      <g>
       <use style="stroke:#000000;stroke-width:0.5;" x="496.8" xlink:href="#m415a775eb8" y="388.8"/>
      </g>
     </g>
     <g id="line2d_20">
      <g>
       <use style="stroke:#000000;stroke-width:0.5;" x="496.8" xlink:href="#m09016efe1d" y="43.2"/>
      </g>
     </g>
     <g id="text_8">
      <!-- 12 -->
      <g transform="translate(489.165 401.918125)scale(0.12 -0.12)">
       <use xlink:href="#BitstreamVeraSans-Roman-31"/>
       <use x="63.623046875" xlink:href="#BitstreamVeraSans-Roman-32"/>
      </g>
     </g>
    </g>
    <g id="text_9">
     <!-- Horizontal (m) -->
     <defs>
      <path d="M 30.609375 48.390625 
Q 23.390625 48.390625 19.1875 42.75 
Q 14.984375 37.109375 14.984375 27.296875 
Q 14.984375 17.484375 19.15625 11.84375 
Q 23.34375 6.203125 30.609375 6.203125 
Q 37.796875 6.203125 41.984375 11.859375 
Q 46.1875 17.53125 46.1875 27.296875 
Q 46.1875 37.015625 41.984375 42.703125 
Q 37.796875 48.390625 30.609375 48.390625 
M 30.609375 56 
Q 42.328125 56 49.015625 48.375 
Q 55.71875 40.765625 55.71875 27.296875 
Q 55.71875 13.875 49.015625 6.21875 
Q 42.328125 -1.421875 30.609375 -1.421875 
Q 18.84375 -1.421875 12.171875 6.21875 
Q 5.515625 13.875 5.515625 27.296875 
Q 5.515625 40.765625 12.171875 48.375 
Q 18.84375 56 30.609375 56 
" id="BitstreamVeraSans-Roman-6f"/>
      <path id="BitstreamVeraSans-Roman-20"/>
      <path d="M 31 75.875 
Q 24.46875 64.65625 21.28125 53.65625 
Q 18.109375 42.671875 18.109375 31.390625 
Q 18.109375 20.125 21.3125 9.0625 
Q 24.515625 -2 31 -13.1875 
L 23.1875 -13.1875 
Q 15.875 -1.703125 12.234375 9.375 
Q 8.59375 20.453125 8.59375 31.390625 
Q 8.59375 42.28125 12.203125 53.3125 
Q 15.828125 64.359375 23.1875 75.875 
z
" id="BitstreamVeraSans-Roman-28"/>
      <path d="M 9.8125 72.90625 
L 19.671875 72.90625 
L 19.671875 43.015625 
L 55.515625 43.015625 
L 55.515625 72.90625 
L 65.375 72.90625 
L 65.375 0 
L 55.515625 0 
L 55.515625 34.71875 
L 19.671875 34.71875 
L 19.671875 0 
L 9.8125 0 
z
" id="BitstreamVeraSans-Roman-48"/>
      <path d="M 41.109375 46.296875 
Q 39.59375 47.171875 37.8125 47.578125 
Q 36.03125 48 33.890625 48 
Q 26.265625 48 22.1875 43.046875 
Q 18.109375 38.09375 18.109375 28.8125 
L 18.109375 0 
L 9.078125 0 
L 9.078125 54.6875 
L 18.109375 54.6875 
L 18.109375 46.1875 
Q 20.953125 51.171875 25.484375 53.578125 
Q 30.03125 56 36.53125 56 
Q 37.453125 56 38.578125 55.875 
Q 39.703125 55.765625 41.0625 55.515625 
z
" id="BitstreamVeraSans-Roman-72"/>
      <path d="M 8.015625 75.875 
L 15.828125 75.875 
Q 23.140625 64.359375 26.78125 53.3125 
Q 30.421875 42.28125 30.421875 31.390625 
Q 30.421875 20.453125 26.78125 9.375 
Q 23.140625 -1.703125 15.828125 -13.1875 
L 8.015625 -13.1875 
Q 14.5 -2 17.703125 9.0625 
Q 20.90625 20.125 20.90625 31.390625 
Q 20.90625 42.671875 17.703125 53.65625 
Q 14.5 64.65625 8.015625 75.875 
" id="BitstreamVeraSans-Roman-29"/>
      <path d="M 54.890625 33.015625 
L 54.890625 0 
L 45.90625 0 
L 45.90625 32.71875 
Q 45.90625 40.484375 42.875 44.328125 
Q 39.84375 48.1875 33.796875 48.1875 
Q 26.515625 48.1875 22.3125 43.546875 
Q 18.109375 38.921875 18.109375 30.90625 
L 18.109375 0 
L 9.078125 0 
L 9.078125 54.6875 
L 18.109375 54.6875 
L 18.109375 46.1875 
Q 21.34375 51.125 25.703125 53.5625 
Q 30.078125 56 35.796875 56 
Q 45.21875 56 50.046875 50.171875 
Q 54.890625 44.34375 54.890625 33.015625 
" id="BitstreamVeraSans-Roman-6e"/>
      <path d="M 18.3125 70.21875 
L 18.3125 54.6875 
L 36.8125 54.6875 
L 36.8125 47.703125 
L 18.3125 47.703125 
L 18.3125 18.015625 
Q 18.3125 11.328125 20.140625 9.421875 
Q 21.96875 7.515625 27.59375 7.515625 
L 36.8125 7.515625 
L 36.8125 0 
L 27.59375 0 
Q 17.1875 0 13.234375 3.875 
Q 9.28125 7.765625 9.28125 18.015625 
L 9.28125 47.703125 
L 2.6875 47.703125 
L 2.6875 54.6875 
L 9.28125 54.6875 
L 9.28125 70.21875 
z
" id="BitstreamVeraSans-Roman-74"/>
      <path d="M 34.28125 27.484375 
Q 23.390625 27.484375 19.1875 25 
Q 14.984375 22.515625 14.984375 16.5 
Q 14.984375 11.71875 18.140625 8.90625 
Q 21.296875 6.109375 26.703125 6.109375 
Q 34.1875 6.109375 38.703125 11.40625 
Q 43.21875 16.703125 43.21875 25.484375 
L 43.21875 27.484375 
z
M 52.203125 31.203125 
L 52.203125 0 
L 43.21875 0 
L 43.21875 8.296875 
Q 40.140625 3.328125 35.546875 0.953125 
Q 30.953125 -1.421875 24.3125 -1.421875 
Q 15.921875 -1.421875 10.953125 3.296875 
Q 6 8.015625 6 15.921875 
Q 6 25.140625 12.171875 29.828125 
Q 18.359375 34.515625 30.609375 34.515625 
L 43.21875 34.515625 
L 43.21875 35.40625 
Q 43.21875 41.609375 39.140625 45 
Q 35.0625 48.390625 27.6875 48.390625 
Q 23 48.390625 18.546875 47.265625 
Q 14.109375 46.140625 10.015625 43.890625 
L 10.015625 52.203125 
Q 14.9375 54.109375 19.578125 55.046875 
Q 24.21875 56 28.609375 56 
Q 40.484375 56 46.34375 49.84375 
Q 52.203125 43.703125 52.203125 31.203125 
" id="BitstreamVeraSans-Roman-61"/>
      <path d="M 9.421875 54.6875 
L 18.40625 54.6875 
L 18.40625 0 
L 9.421875 0 
z
M 9.421875 75.984375 
L 18.40625 75.984375 
L 18.40625 64.59375 
L 9.421875 64.59375 
z
" id="BitstreamVeraSans-Roman-69"/>
      <path d="M 9.421875 75.984375 
L 18.40625 75.984375 
L 18.40625 0 
L 9.421875 0 
z
" id="BitstreamVeraSans-Roman-6c"/>
      <path d="M 5.515625 54.6875 
L 48.1875 54.6875 
L 48.1875 46.484375 
L 14.40625 7.171875 
L 48.1875 7.171875 
L 48.1875 0 
L 4.296875 0 
L 4.296875 8.203125 
L 38.09375 47.515625 
L 5.515625 47.515625 
z
" id="BitstreamVeraSans-Roman-7a"/>
      <path d="M 52 44.1875 
Q 55.375 50.25 60.0625 53.125 
Q 64.75 56 71.09375 56 
Q 79.640625 56 84.28125 50.015625 
Q 88.921875 44.046875 88.921875 33.015625 
L 88.921875 0 
L 79.890625 0 
L 79.890625 32.71875 
Q 79.890625 40.578125 77.09375 44.375 
Q 74.3125 48.1875 68.609375 48.1875 
Q 61.625 48.1875 57.5625 43.546875 
Q 53.515625 38.921875 53.515625 30.90625 
L 53.515625 0 
L 44.484375 0 
L 44.484375 32.71875 
Q 44.484375 40.625 41.703125 44.40625 
Q 38.921875 48.1875 33.109375 48.1875 
Q 26.21875 48.1875 22.15625 43.53125 
Q 18.109375 38.875 18.109375 30.90625 
L 18.109375 0 
L 9.078125 0 
L 9.078125 54.6875 
L 18.109375 54.6875 
L 18.109375 46.1875 
Q 21.1875 51.21875 25.484375 53.609375 
Q 29.78125 56 35.6875 56 
Q 41.65625 56 45.828125 52.96875 
Q 50 49.953125 52 44.1875 
" id="BitstreamVeraSans-Roman-6d"/>
     </defs>
     <g transform="translate(252.13125 418.531875)scale(0.12 -0.12)">
      <use xlink:href="#BitstreamVeraSans-Roman-48"/>
      <use x="75.1953125" xlink:href="#BitstreamVeraSans-Roman-6f"/>
      <use x="136.376953125" xlink:href="#BitstreamVeraSans-Roman-72"/>
      <use x="177.490234375" xlink:href="#BitstreamVeraSans-Roman-69"/>
      <use x="205.2734375" xlink:href="#BitstreamVeraSans-Roman-7a"/>
      <use x="257.763671875" xlink:href="#BitstreamVeraSans-Roman-6f"/>
      <use x="318.9453125" xlink:href="#BitstreamVeraSans-Roman-6e"/>
      <use x="382.32421875" xlink:href="#BitstreamVeraSans-Roman-74"/>
      <use x="421.533203125" xlink:href="#BitstreamVeraSans-Roman-61"/>
      <use x="482.8125" xlink:href="#BitstreamVeraSans-Roman-6c"/>
      <use x="510.595703125" xlink:href="#BitstreamVeraSans-Roman-20"/>
      <use x="542.3828125" xlink:href="#BitstreamVeraSans-Roman-28"/>
      <use x="581.396484375" xlink:href="#BitstreamVeraSans-Roman-6d"/>
      <use x="678.80859375" xlink:href="#BitstreamVeraSans-Roman-29"/>
     </g>
    </g>
   </g>
   <g id="matplotlib.axis_2">
    <g id="ytick_1">
     <g id="line2d_21">
      <defs>
       <path d="M 0 0 
L 4 0 
" id="m7f04f61fd1" style="stroke:#000000;stroke-width:0.5;"/>
      </defs>
      <g>
       <use style="stroke:#000000;stroke-width:0.5;" x="72.0" xlink:href="#m7f04f61fd1" y="360.0"/>
      </g>
     </g>
     <g id="line2d_22">
      <defs>
       <path d="M 0 0 
L -4 0 
" id="mc099a12795" style="stroke:#000000;stroke-width:0.5;"/>
      </defs>
      <g>
       <use style="stroke:#000000;stroke-width:0.5;" x="518.4" xlink:href="#mc099a12795" y="360.0"/>
      </g>
     </g>
     <g id="text_10">
      <!-- 0 -->
      <g transform="translate(60.365 363.31125)scale(0.12 -0.12)">
       <use xlink:href="#BitstreamVeraSans-Roman-30"/>
      </g>
     </g>
    </g>
    <g id="ytick_2">
     <g id="line2d_23">
      <g>
       <use style="stroke:#000000;stroke-width:0.5;" x="72.0" xlink:href="#m7f04f61fd1" y="302.4"/>
      </g>
     </g>
     <g id="line2d_24">
      <g>
       <use style="stroke:#000000;stroke-width:0.5;" x="518.4" xlink:href="#mc099a12795" y="302.4"/>
      </g>
     </g>
     <g id="text_11">
      <!-- 2 -->
      <g transform="translate(60.365 305.71125)scale(0.12 -0.12)">
       <use xlink:href="#BitstreamVeraSans-Roman-32"/>
      </g>
     </g>
    </g>
    <g id="ytick_3">
     <g id="line2d_25">
      <g>
       <use style="stroke:#000000;stroke-width:0.5;" x="72.0" xlink:href="#m7f04f61fd1" y="244.8"/>
      </g>
     </g>
     <g id="line2d_26">
      <g>
       <use style="stroke:#000000;stroke-width:0.5;" x="518.4" xlink:href="#mc099a12795" y="244.8"/>
      </g>
     </g>
     <g id="text_12">
      <!-- 4 -->
      <g transform="translate(60.365 248.11125)scale(0.12 -0.12)">
       <use xlink:href="#BitstreamVeraSans-Roman-34"/>
      </g>
     </g>
    </g>
    <g id="ytick_4">
     <g id="line2d_27">
      <g>
       <use style="stroke:#000000;stroke-width:0.5;" x="72.0" xlink:href="#m7f04f61fd1" y="187.2"/>
      </g>
     </g>
     <g id="line2d_28">
      <g>
       <use style="stroke:#000000;stroke-width:0.5;" x="518.4" xlink:href="#mc099a12795" y="187.2"/>
      </g>
     </g>
     <g id="text_13">
      <!-- 6 -->
      <g transform="translate(60.365 190.51125)scale(0.12 -0.12)">
       <use xlink:href="#BitstreamVeraSans-Roman-36"/>
      </g>
     </g>
    </g>
    <g id="ytick_5">
     <g id="line2d_29">
      <g>
       <use style="stroke:#000000;stroke-width:0.5;" x="72.0" xlink:href="#m7f04f61fd1" y="129.6"/>
      </g>
     </g>
     <g id="line2d_30">
      <g>
       <use style="stroke:#000000;stroke-width:0.5;" x="518.4" xlink:href="#mc099a12795" y="129.6"/>
      </g>
     </g>
     <g id="text_14">
      <!-- 8 -->
      <g transform="translate(60.365 132.91125)scale(0.12 -0.12)">
       <use xlink:href="#BitstreamVeraSans-Roman-38"/>
      </g>
     </g>
    </g>
    <g id="ytick_6">
     <g id="line2d_31">
      <g>
       <use style="stroke:#000000;stroke-width:0.5;" x="72.0" xlink:href="#m7f04f61fd1" y="72.0"/>
      </g>
     </g>
     <g id="line2d_32">
      <g>
       <use style="stroke:#000000;stroke-width:0.5;" x="518.4" xlink:href="#mc099a12795" y="72.0"/>
      </g>
     </g>
     <g id="text_15">
      <!-- 10 -->
      <g transform="translate(52.73 75.31125)scale(0.12 -0.12)">
       <use xlink:href="#BitstreamVeraSans-Roman-31"/>
       <use x="63.623046875" xlink:href="#BitstreamVeraSans-Roman-30"/>
      </g>
     </g>
    </g>
    <g id="text_16">
     <!-- Vertical (m) -->
     <defs>
      <path d="M 56.203125 29.59375 
L 56.203125 25.203125 
L 14.890625 25.203125 
Q 15.484375 15.921875 20.484375 11.0625 
Q 25.484375 6.203125 34.421875 6.203125 
Q 39.59375 6.203125 44.453125 7.46875 
Q 49.3125 8.734375 54.109375 11.28125 
L 54.109375 2.78125 
Q 49.265625 0.734375 44.1875 -0.34375 
Q 39.109375 -1.421875 33.890625 -1.421875 
Q 20.796875 -1.421875 13.15625 6.1875 
Q 5.515625 13.8125 5.515625 26.8125 
Q 5.515625 40.234375 12.765625 48.109375 
Q 20.015625 56 32.328125 56 
Q 43.359375 56 49.78125 48.890625 
Q 56.203125 41.796875 56.203125 29.59375 
M 47.21875 32.234375 
Q 47.125 39.59375 43.09375 43.984375 
Q 39.0625 48.390625 32.421875 48.390625 
Q 24.90625 48.390625 20.390625 44.140625 
Q 15.875 39.890625 15.1875 32.171875 
z
" id="BitstreamVeraSans-Roman-65"/>
      <path d="M 28.609375 0 
L 0.78125 72.90625 
L 11.078125 72.90625 
L 34.1875 11.53125 
L 57.328125 72.90625 
L 67.578125 72.90625 
L 39.796875 0 
z
" id="BitstreamVeraSans-Roman-56"/>
      <path d="M 48.78125 52.59375 
L 48.78125 44.1875 
Q 44.96875 46.296875 41.140625 47.34375 
Q 37.3125 48.390625 33.40625 48.390625 
Q 24.65625 48.390625 19.8125 42.84375 
Q 14.984375 37.3125 14.984375 27.296875 
Q 14.984375 17.28125 19.8125 11.734375 
Q 24.65625 6.203125 33.40625 6.203125 
Q 37.3125 6.203125 41.140625 7.25 
Q 44.96875 8.296875 48.78125 10.40625 
L 48.78125 2.09375 
Q 45.015625 0.34375 40.984375 -0.53125 
Q 36.96875 -1.421875 32.421875 -1.421875 
Q 20.0625 -1.421875 12.78125 6.34375 
Q 5.515625 14.109375 5.515625 27.296875 
Q 5.515625 40.671875 12.859375 48.328125 
Q 20.21875 56 33.015625 56 
Q 37.15625 56 41.109375 55.140625 
Q 45.0625 54.296875 48.78125 52.59375 
" id="BitstreamVeraSans-Roman-63"/>
     </defs>
     <g transform="translate(45.234375 251.35125)rotate(-90.0)scale(0.12 -0.12)">
      <use xlink:href="#BitstreamVeraSans-Roman-56"/>
      <use x="68.298828125" xlink:href="#BitstreamVeraSans-Roman-65"/>
      <use x="129.822265625" xlink:href="#BitstreamVeraSans-Roman-72"/>
      <use x="170.935546875" xlink:href="#BitstreamVeraSans-Roman-74"/>
      <use x="210.14453125" xlink:href="#BitstreamVeraSans-Roman-69"/>
      <use x="237.927734375" xlink:href="#BitstreamVeraSans-Roman-63"/>
      <use x="292.908203125" xlink:href="#BitstreamVeraSans-Roman-61"/>
      <use x="354.1875" xlink:href="#BitstreamVeraSans-Roman-6c"/>
      <use x="381.970703125" xlink:href="#BitstreamVeraSans-Roman-20"/>
      <use x="413.7578125" xlink:href="#BitstreamVeraSans-Roman-28"/>
      <use x="452.771484375" xlink:href="#BitstreamVeraSans-Roman-6d"/>
      <use x="550.18359375" xlink:href="#BitstreamVeraSans-Roman-29"/>
     </g>
    </g>
   </g>
  </g>
 </g>
 <defs>
  <clipPath id="p7d3436a0f8">
   <rect height="345.6" width="446.4" x="72.0" y="43.2"/>
  </clipPath>
 </defs>
</svg>
