<?xml version="1.0" encoding="utf-8" standalone="no"?>
<!DOCTYPE svg PUBLIC "-//W3C//DTD SVG 1.1//EN"
  "http://www.w3.org/Graphics/SVG/1.1/DTD/svg11.dtd">
<!-- Created with matplotlib (http://matplotlib.org/) -->
<svg height="432pt" version="1.1" viewBox="0 0 576 432" width="576pt" xmlns="http://www.w3.org/2000/svg" xmlns:xlink="http://www.w3.org/1999/xlink">
 <defs>
  <style type="text/css">
*{stroke-linecap:butt;stroke-linejoin:round;stroke-miterlimit:100000;}
  </style>
 </defs>
 <g id="figure_1">
  <g id="patch_1">
   <path d="M 0 432 
L 576 432 
L 576 0 
L 0 0 
z
" style="fill:#ffffff;"/>
  </g>
  <g id="axes_1">
   <g id="patch_2">
    <path d="M 72 388.8 
L 518.4 388.8 
L 518.4 43.2 
L 72 43.2 
z
" style="fill:#ffffff;"/>
   </g>
   <g id="patch_3">
    <path clip-path="url(#p690a7a0d40)" d="M -223.2 1442.88 
C -35.308908 1442.88 144.911947 1368.230078 277.771012 1235.371012 
C 410.630078 1102.511947 485.28 922.291092 485.28 734.4 
C 485.28 546.508908 410.630078 366.288053 277.771012 233.428988 
C 144.911947 100.569922 -35.308908 25.92 -223.2 25.92 
C -411.091092 25.92 -591.311947 100.569922 -724.171012 233.428988 
C -857.030078 366.288053 -931.68 546.508908 -931.68 734.4 
C -931.68 922.291092 -857.030078 1102.511947 -724.171012 1235.371012 
C -591.311947 1368.230078 -411.091092 1442.88 -223.2 1442.88 
" style="fill:none;stroke:#ff0000;stroke-linejoin:miter;"/>
   </g>
   <g id="line2d_1">
    <path clip-path="url(#p690a7a0d40)" d="M 546.72768 286.39872 
L 530.96832 256.27968 
L 400.176 250.23168 
L 397.79136 265.23072 
L 407.58912 295.6608 
L 533.45664 356.15808 
L 534.7008 346.2048 
L 546.72768 286.39872 
M 528.912 364.31424 
L 473.54688 376.15104 
L 418.19904 387.98784 
L 397.400224 433 
M 528.753681 433 
L 528.912 364.31424 
M 397.63584 265.14432 
L 323.43552 300.20544 
L 331.34976 352.63296 
L 388.2528 349.2288 
L 407.41632 295.5744 
L 397.63584 265.14432 
M 306.906039 -1 
L 324.90432 20.96064 
L 365.94432 2.54016 
L 367.078008 -1 
M 85.54176 397.05984 
L 55.76832 391.06368 
L -1 428.470822 
M 91.130432 433 
L 85.54176 397.05984 
M 241.92576 156.31488 
L 171.54432 128.97792 
L 132.2496 157.17888 
L 152.08704 201.60576 
L 219.49632 193.74336 
L 241.9776 168.03072 
L 241.92576 156.31488 
M 280.35648 274.19904 
L 221.03424 255.00096 
L 195.2352 275.13216 
L 211.0464 321.408 
L 251.68896 328.21632 
L 280.35648 274.19904 
M 535.4784 230.4288 
L 494.352 106.47936 
L 444.68928 174.0096 
L 530.88192 256.27968 
L 535.4784 230.4288 
M 18.508637 -1 
L 18.75456 4.99392 
L 72.66816 30.46464 
L 118.168823 -1 
M 561.619637 -1 
L 554.62464 66.2688 
L 577 72.187275 
M 472.02624 38.3616 
L 450.78912 24.48576 
L 397.27296 43.68384 
L 389.23776 89.7696 
L 494.36928 106.5312 
L 472.02624 38.3616 
M 195.2352 275.11488 
L 121.58784 266.49216 
L 123.59232 339.79392 
L 184.59072 352.71936 
L 211.0464 321.39072 
L 195.2352 275.11488 
M 54.29952 186.90048 
L -1 218.331462 
M -1 288.568869 
L 3.23712 294.20928 
L 121.55328 266.50944 
L 54.29952 186.90048 
M 0.4896 100.44864 
L -1 98.31665 
M -1 102.273477 
L 0.4896 100.44864 
M 323.43552 300.18816 
L 280.37376 274.16448 
L 251.68896 328.21632 
L 280.3392 386.91648 
L 299.6928 391.51296 
L 331.34976 352.63296 
L 323.43552 300.18816 
M 100.64448 107.20512 
L 54.10944 90.14976 
L 28.72512 103.8528 
L 54.29952 186.95232 
L 122.84928 152.61696 
L 100.64448 107.20512 
M 356.78592 117.8496 
L 347.52384 113.08032 
L 258.70464 122.48064 
L 241.94304 156.31488 
L 241.99488 168.03072 
L 306.57024 217.08864 
L 383.03424 196.52544 
L 356.78592 117.8496 
M 184.459329 433 
L 85.54176 397.04256 
L 91.131353 433 
M 577 378.630421 
L 533.26656 356.01984 
L 528.912 364.27968 
L 528.753616 433 
M 121.58784 266.49216 
L 3.27168 294.192 
L 55.7856 391.06368 
L 85.55904 397.05984 
L 123.59232 339.8112 
L 121.58784 266.49216 
M 577 274.593338 
L 546.74496 286.36416 
L 534.71808 346.17024 
L 577 346.733267 
M 444.70656 174.02688 
L 383.10336 196.59456 
L 400.0896 250.23168 
L 530.88192 256.27968 
L 444.70656 174.02688 
M 132.2496 157.19616 
L 122.86656 152.59968 
L 54.3168 186.93504 
L 121.58784 266.544 
L 152.10432 201.64032 
L 132.2496 157.19616 
M 418.18176 387.98784 
L 388.2528 349.2288 
L 331.34976 352.63296 
L 299.6928 391.51296 
L 315.02016 418.03776 
L 356.95791 433 
M 397.410044 433 
L 418.18176 387.98784 
M 214.00128 415.51488 
L 184.59072 352.71936 
L 123.6096 339.79392 
L 85.55904 397.04256 
L 184.461769 433 
M 190.794983 433 
L 207.936 424.69056 
L 214.00128 415.51488 
M 306.58752 217.10592 
L 241.9776 168.01344 
L 219.5136 193.72608 
L 221.05152 255.00096 
L 280.37376 274.19904 
L 306.58752 217.10592 
M 3.2544 294.17472 
L -1 299.591168 
M -1 428.458756 
L 55.76832 391.0464 
L 3.2544 294.17472 
M 534.71808 346.17024 
L 533.45664 356.12352 
L 577 378.621854 
M 577 346.733267 
L 534.71808 346.17024 
M 28.72512 103.8528 
L 0.4896 100.46592 
L -1 102.289983 
M -1 218.346637 
L 54.28224 186.91776 
L 28.72512 103.8528 
M 154.160097 -1 
L 175.60512 34.85376 
L 227.96352 49.55904 
L 258.901179 -1 
M 213.175405 433 
L 207.936 424.69056 
L 190.794983 433 
M 400.05504 250.128 
L 383.0688 196.52544 
L 306.6048 217.08864 
L 280.39104 274.18176 
L 323.4528 300.20544 
L 397.65312 265.14432 
L 400.05504 250.128 
M 324.88704 20.9088 
L 306.918819 -1 
M 258.905736 -1 
L 227.96352 49.55904 
L 235.8432 56.8512 
L 316.78272 37.04832 
L 324.88704 20.9088 
M 356.948459 433 
L 315.02016 418.03776 
L 310.15057 433 
M -1 299.586448 
L 3.23712 294.192 
L -1 288.55386 
M 445.697733 -1 
L 450.82368 24.50304 
L 472.0608 38.39616 
L 514.32568 -1 
M 219.5136 193.74336 
L 152.10432 201.60576 
L 121.6224 266.49216 
L 195.25248 275.11488 
L 221.05152 255.00096 
L 219.5136 193.74336 
M 494.31744 106.5312 
L 441.76896 98.1504 
L 389.22048 89.7696 
L 356.8032 117.91872 
L 383.0688 196.61184 
L 444.65472 174.04416 
L 494.31744 106.5312 
M 251.68896 328.21632 
L 211.0464 321.39072 
L 184.59072 352.71936 
L 214.00128 415.53216 
L 280.3392 386.91648 
L 251.68896 328.21632 
M 577 175.42524 
L 535.58208 230.4288 
L 530.96832 256.2624 
L 546.7104 286.38144 
L 577 274.582237 
M 316.78272 37.04832 
L 235.82592 56.8512 
L 258.70464 122.48064 
L 347.57568 113.08032 
L 316.78272 37.04832 
M 258.70464 122.48064 
L 235.82592 56.83392 
L 227.92896 49.55904 
L 175.58784 34.85376 
L 168.58944 49.71456 
L 171.54432 128.97792 
L 241.94304 156.31488 
L 258.70464 122.48064 
M 175.58784 34.83648 
L 154.153153 -1 
M 118.156174 -1 
L 72.68544 30.44736 
L 54.10944 90.14976 
L 100.64448 107.20512 
L 168.58944 49.71456 
L 175.58784 34.83648 
M 367.083541 -1 
L 365.94432 2.55744 
L 397.29024 43.68384 
L 450.8064 24.46848 
L 445.690553 -1 
M 533.24928 356.07168 
L 470.3328 325.8144 
L 407.41632 295.5744 
L 388.2528 349.2288 
L 418.18176 387.98784 
L 528.87744 364.31424 
L 533.24928 356.07168 
M 514.32359 -1 
L 472.02624 38.41344 
L 494.38656 106.58304 
L 510.71616 105.7536 
L 554.62464 66.28608 
L 561.621433 -1 
M 577 146.496313 
L 510.71616 105.7536 
L 494.38656 106.58304 
L 535.51296 230.5152 
L 577 175.438549 
M 397.27296 43.64928 
L 365.94432 2.55744 
L 324.90432 20.96064 
L 316.8 37.10016 
L 347.59296 113.11488 
L 356.83776 117.86688 
L 389.25504 89.75232 
L 397.27296 43.64928 
M 168.58944 49.71456 
L 134.61696 78.4512 
L 100.64448 107.18784 
L 122.84928 152.59968 
L 132.23232 157.17888 
L 171.54432 128.97792 
L 168.58944 49.71456 
M 299.67552 391.51296 
L 280.3392 386.91648 
L 214.01856 415.53216 
L 207.95328 424.70784 
L 213.180946 433 
M 310.15057 433 
L 315.02016 418.03776 
L 299.67552 391.51296 
M 577 72.185774 
L 554.64192 66.2688 
L 510.71616 105.7536 
L 577 146.505827 
M 72.68544 30.46464 
L 18.77184 4.99392 
L -1 21.048301 
M -1 98.33393 
L 0.4896 100.46592 
L 28.72512 103.8528 
L 54.10944 90.14976 
L 72.68544 30.46464 
M -1 21.050366 
L 18.75456 5.0112 
L 18.507978 -1 
M 640.9728 706.00896 
" style="fill:none;stroke:#0000ff;stroke-linecap:square;"/>
   </g>
   <g id="line2d_2">
    <path clip-path="url(#p690a7a0d40)" d="M 122.4 354.24 
L 468 354.24 
L 468 77.76 
L 122.4 77.76 
L 122.4 354.24 
" style="fill:none;stroke:#ff0000;stroke-linecap:square;"/>
   </g>
   <g id="line2d_3"/>
   <g id="line2d_4">
    <path clip-path="url(#p690a7a0d40)" d="M 528.753681 433 
L 528.912 364.31424 
L 418.18176 387.98784 
L 388.2528 349.2288 
L 388.2528 349.2288 
L 407.41632 295.5744 
L 397.63584 265.14432 
L 397.65312 265.14432 
L 400.05504 250.128 
L 383.0688 196.52544 
L 306.58752 217.10592 
L 241.9776 168.01344 
L 241.9776 168.03072 
L 241.92576 156.31488 
L 171.54432 128.97792 
L 168.58944 49.71456 
L 168.58944 49.71456 
L 175.58784 34.83648 
L 154.153153 -1 
M 118.156174 -1 
L 72.68544 30.44736 
L 72.68544 30.46464 
L 18.77184 4.99392 
L -1 21.048301 
L -1 21.048301 
" style="fill:none;stroke:#000000;stroke-linecap:square;stroke-width:5.0;"/>
   </g>
   <g id="patch_4">
    <path d="M 72 388.8 
L 518.4 388.8 
" style="fill:none;stroke:#000000;stroke-linecap:square;stroke-linejoin:miter;"/>
   </g>
   <g id="patch_5">
    <path d="M 72 43.2 
L 518.4 43.2 
" style="fill:none;stroke:#000000;stroke-linecap:square;stroke-linejoin:miter;"/>
   </g>
   <g id="patch_6">
    <path d="M 72 388.8 
L 72 43.2 
" style="fill:none;stroke:#000000;stroke-linecap:square;stroke-linejoin:miter;"/>
   </g>
   <g id="patch_7">
    <path d="M 518.4 388.8 
L 518.4 43.2 
" style="fill:none;stroke:#000000;stroke-linecap:square;stroke-linejoin:miter;"/>
   </g>
   <g id="matplotlib.axis_1">
    <g id="xtick_1">
     <g id="line2d_5">
      <defs>
       <path d="M 0 0 
L 0 -4 
" id="ma78de94635" style="stroke:#000000;stroke-width:0.5;"/>
      </defs>
      <g>
       <use style="stroke:#000000;stroke-width:0.5;" x="122.4" xlink:href="#ma78de94635" y="388.8"/>
      </g>
     </g>
     <g id="line2d_6">
      <defs>
       <path d="M 0 0 
L 0 4 
" id="m335e099f75" style="stroke:#000000;stroke-width:0.5;"/>
      </defs>
      <g>
       <use style="stroke:#000000;stroke-width:0.5;" x="122.4" xlink:href="#m335e099f75" y="43.2"/>
      </g>
     </g>
     <g id="text_1">
      <!-- 7.0 -->
      <defs>
       <path d="M 31.78125 66.40625 
Q 24.171875 66.40625 20.328125 58.90625 
Q 16.5 51.421875 16.5 36.375 
Q 16.5 21.390625 20.328125 13.890625 
Q 24.171875 6.390625 31.78125 6.390625 
Q 39.453125 6.390625 43.28125 13.890625 
Q 47.125 21.390625 47.125 36.375 
Q 47.125 51.421875 43.28125 58.90625 
Q 39.453125 66.40625 31.78125 66.40625 
M 31.78125 74.21875 
Q 44.046875 74.21875 50.515625 64.515625 
Q 56.984375 54.828125 56.984375 36.375 
Q 56.984375 17.96875 50.515625 8.265625 
Q 44.046875 -1.421875 31.78125 -1.421875 
Q 19.53125 -1.421875 13.0625 8.265625 
Q 6.59375 17.96875 6.59375 36.375 
Q 6.59375 54.828125 13.0625 64.515625 
Q 19.53125 74.21875 31.78125 74.21875 
" id="BitstreamVeraSans-Roman-30"/>
       <path d="M 8.203125 72.90625 
L 55.078125 72.90625 
L 55.078125 68.703125 
L 28.609375 0 
L 18.3125 0 
L 43.21875 64.59375 
L 8.203125 64.59375 
z
" id="BitstreamVeraSans-Roman-37"/>
       <path d="M 10.6875 12.40625 
L 21 12.40625 
L 21 0 
L 10.6875 0 
z
" id="BitstreamVeraSans-Roman-2e"/>
      </defs>
      <g transform="translate(112.858125 401.918125)scale(0.12 -0.12)">
       <use xlink:href="#BitstreamVeraSans-Roman-37"/>
       <use x="63.623046875" xlink:href="#BitstreamVeraSans-Roman-2e"/>
       <use x="95.41015625" xlink:href="#BitstreamVeraSans-Roman-30"/>
      </g>
     </g>
    </g>
    <g id="xtick_2">
     <g id="line2d_7">
      <g>
       <use style="stroke:#000000;stroke-width:0.5;" x="208.8" xlink:href="#ma78de94635" y="388.8"/>
      </g>
     </g>
     <g id="line2d_8">
      <g>
       <use style="stroke:#000000;stroke-width:0.5;" x="208.8" xlink:href="#m335e099f75" y="43.2"/>
      </g>
     </g>
     <g id="text_2">
      <!-- 7.5 -->
      <defs>
       <path d="M 10.796875 72.90625 
L 49.515625 72.90625 
L 49.515625 64.59375 
L 19.828125 64.59375 
L 19.828125 46.734375 
Q 21.96875 47.46875 24.109375 47.828125 
Q 26.265625 48.1875 28.421875 48.1875 
Q 40.625 48.1875 47.75 41.5 
Q 54.890625 34.8125 54.890625 23.390625 
Q 54.890625 11.625 47.5625 5.09375 
Q 40.234375 -1.421875 26.90625 -1.421875 
Q 22.3125 -1.421875 17.546875 -0.640625 
Q 12.796875 0.140625 7.71875 1.703125 
L 7.71875 11.625 
Q 12.109375 9.234375 16.796875 8.0625 
Q 21.484375 6.890625 26.703125 6.890625 
Q 35.15625 6.890625 40.078125 11.328125 
Q 45.015625 15.765625 45.015625 23.390625 
Q 45.015625 31 40.078125 35.4375 
Q 35.15625 39.890625 26.703125 39.890625 
Q 22.75 39.890625 18.8125 39.015625 
Q 14.890625 38.140625 10.796875 36.28125 
z
" id="BitstreamVeraSans-Roman-35"/>
      </defs>
      <g transform="translate(199.258125 401.918125)scale(0.12 -0.12)">
       <use xlink:href="#BitstreamVeraSans-Roman-37"/>
       <use x="63.623046875" xlink:href="#BitstreamVeraSans-Roman-2e"/>
       <use x="95.41015625" xlink:href="#BitstreamVeraSans-Roman-35"/>
      </g>
     </g>
    </g>
    <g id="xtick_3">
     <g id="line2d_9">
      <g>
       <use style="stroke:#000000;stroke-width:0.5;" x="295.2" xlink:href="#ma78de94635" y="388.8"/>
      </g>
     </g>
     <g id="line2d_10">
      <g>
       <use style="stroke:#000000;stroke-width:0.5;" x="295.2" xlink:href="#m335e099f75" y="43.2"/>
      </g>
     </g>
     <g id="text_3">
      <!-- 8.0 -->
      <defs>
       <path d="M 31.78125 34.625 
Q 24.75 34.625 20.71875 30.859375 
Q 16.703125 27.09375 16.703125 20.515625 
Q 16.703125 13.921875 20.71875 10.15625 
Q 24.75 6.390625 31.78125 6.390625 
Q 38.8125 6.390625 42.859375 10.171875 
Q 46.921875 13.96875 46.921875 20.515625 
Q 46.921875 27.09375 42.890625 30.859375 
Q 38.875 34.625 31.78125 34.625 
M 21.921875 38.8125 
Q 15.578125 40.375 12.03125 44.71875 
Q 8.5 49.078125 8.5 55.328125 
Q 8.5 64.0625 14.71875 69.140625 
Q 20.953125 74.21875 31.78125 74.21875 
Q 42.671875 74.21875 48.875 69.140625 
Q 55.078125 64.0625 55.078125 55.328125 
Q 55.078125 49.078125 51.53125 44.71875 
Q 48 40.375 41.703125 38.8125 
Q 48.828125 37.15625 52.796875 32.3125 
Q 56.78125 27.484375 56.78125 20.515625 
Q 56.78125 9.90625 50.3125 4.234375 
Q 43.84375 -1.421875 31.78125 -1.421875 
Q 19.734375 -1.421875 13.25 4.234375 
Q 6.78125 9.90625 6.78125 20.515625 
Q 6.78125 27.484375 10.78125 32.3125 
Q 14.796875 37.15625 21.921875 38.8125 
M 18.3125 54.390625 
Q 18.3125 48.734375 21.84375 45.5625 
Q 25.390625 42.390625 31.78125 42.390625 
Q 38.140625 42.390625 41.71875 45.5625 
Q 45.3125 48.734375 45.3125 54.390625 
Q 45.3125 60.0625 41.71875 63.234375 
Q 38.140625 66.40625 31.78125 66.40625 
Q 25.390625 66.40625 21.84375 63.234375 
Q 18.3125 60.0625 18.3125 54.390625 
" id="BitstreamVeraSans-Roman-38"/>
      </defs>
      <g transform="translate(285.658125 401.918125)scale(0.12 -0.12)">
       <use xlink:href="#BitstreamVeraSans-Roman-38"/>
       <use x="63.623046875" xlink:href="#BitstreamVeraSans-Roman-2e"/>
       <use x="95.41015625" xlink:href="#BitstreamVeraSans-Roman-30"/>
      </g>
     </g>
    </g>
    <g id="xtick_4">
     <g id="line2d_11">
      <g>
       <use style="stroke:#000000;stroke-width:0.5;" x="381.6" xlink:href="#ma78de94635" y="388.8"/>
      </g>
     </g>
     <g id="line2d_12">
      <g>
       <use style="stroke:#000000;stroke-width:0.5;" x="381.6" xlink:href="#m335e099f75" y="43.2"/>
      </g>
     </g>
     <g id="text_4">
      <!-- 8.5 -->
      <g transform="translate(372.058125 401.918125)scale(0.12 -0.12)">
       <use xlink:href="#BitstreamVeraSans-Roman-38"/>
       <use x="63.623046875" xlink:href="#BitstreamVeraSans-Roman-2e"/>
       <use x="95.41015625" xlink:href="#BitstreamVeraSans-Roman-35"/>
      </g>
     </g>
    </g>
    <g id="xtick_5">
     <g id="line2d_13">
      <g>
       <use style="stroke:#000000;stroke-width:0.5;" x="468.0" xlink:href="#ma78de94635" y="388.8"/>
      </g>
     </g>
     <g id="line2d_14">
      <g>
       <use style="stroke:#000000;stroke-width:0.5;" x="468.0" xlink:href="#m335e099f75" y="43.2"/>
      </g>
     </g>
     <g id="text_5">
      <!-- 9.0 -->
      <defs>
       <path d="M 10.984375 1.515625 
L 10.984375 10.5 
Q 14.703125 8.734375 18.5 7.8125 
Q 22.3125 6.890625 25.984375 6.890625 
Q 35.75 6.890625 40.890625 13.453125 
Q 46.046875 20.015625 46.78125 33.40625 
Q 43.953125 29.203125 39.59375 26.953125 
Q 35.25 24.703125 29.984375 24.703125 
Q 19.046875 24.703125 12.671875 31.3125 
Q 6.296875 37.9375 6.296875 49.421875 
Q 6.296875 60.640625 12.9375 67.421875 
Q 19.578125 74.21875 30.609375 74.21875 
Q 43.265625 74.21875 49.921875 64.515625 
Q 56.59375 54.828125 56.59375 36.375 
Q 56.59375 19.140625 48.40625 8.859375 
Q 40.234375 -1.421875 26.421875 -1.421875 
Q 22.703125 -1.421875 18.890625 -0.6875 
Q 15.09375 0.046875 10.984375 1.515625 
M 30.609375 32.421875 
Q 37.25 32.421875 41.125 36.953125 
Q 45.015625 41.5 45.015625 49.421875 
Q 45.015625 57.28125 41.125 61.84375 
Q 37.25 66.40625 30.609375 66.40625 
Q 23.96875 66.40625 20.09375 61.84375 
Q 16.21875 57.28125 16.21875 49.421875 
Q 16.21875 41.5 20.09375 36.953125 
Q 23.96875 32.421875 30.609375 32.421875 
" id="BitstreamVeraSans-Roman-39"/>
      </defs>
      <g transform="translate(458.458125 401.918125)scale(0.12 -0.12)">
       <use xlink:href="#BitstreamVeraSans-Roman-39"/>
       <use x="63.623046875" xlink:href="#BitstreamVeraSans-Roman-2e"/>
       <use x="95.41015625" xlink:href="#BitstreamVeraSans-Roman-30"/>
      </g>
     </g>
    </g>
    <g id="text_6">
     <!-- Horizontal (m) -->
     <defs>
      <path d="M 5.515625 54.6875 
L 48.1875 54.6875 
L 48.1875 46.484375 
L 14.40625 7.171875 
L 48.1875 7.171875 
L 48.1875 0 
L 4.296875 0 
L 4.296875 8.203125 
L 38.09375 47.515625 
L 5.515625 47.515625 
z
" id="BitstreamVeraSans-Roman-7a"/>
      <path d="M 52 44.1875 
Q 55.375 50.25 60.0625 53.125 
Q 64.75 56 71.09375 56 
Q 79.640625 56 84.28125 50.015625 
Q 88.921875 44.046875 88.921875 33.015625 
L 88.921875 0 
L 79.890625 0 
L 79.890625 32.71875 
Q 79.890625 40.578125 77.09375 44.375 
Q 74.3125 48.1875 68.609375 48.1875 
Q 61.625 48.1875 57.5625 43.546875 
Q 53.515625 38.921875 53.515625 30.90625 
L 53.515625 0 
L 44.484375 0 
L 44.484375 32.71875 
Q 44.484375 40.625 41.703125 44.40625 
Q 38.921875 48.1875 33.109375 48.1875 
Q 26.21875 48.1875 22.15625 43.53125 
Q 18.109375 38.875 18.109375 30.90625 
L 18.109375 0 
L 9.078125 0 
L 9.078125 54.6875 
L 18.109375 54.6875 
L 18.109375 46.1875 
Q 21.1875 51.21875 25.484375 53.609375 
Q 29.78125 56 35.6875 56 
Q 41.65625 56 45.828125 52.96875 
Q 50 49.953125 52 44.1875 
" id="BitstreamVeraSans-Roman-6d"/>
      <path d="M 30.609375 48.390625 
Q 23.390625 48.390625 19.1875 42.75 
Q 14.984375 37.109375 14.984375 27.296875 
Q 14.984375 17.484375 19.15625 11.84375 
Q 23.34375 6.203125 30.609375 6.203125 
Q 37.796875 6.203125 41.984375 11.859375 
Q 46.1875 17.53125 46.1875 27.296875 
Q 46.1875 37.015625 41.984375 42.703125 
Q 37.796875 48.390625 30.609375 48.390625 
M 30.609375 56 
Q 42.328125 56 49.015625 48.375 
Q 55.71875 40.765625 55.71875 27.296875 
Q 55.71875 13.875 49.015625 6.21875 
Q 42.328125 -1.421875 30.609375 -1.421875 
Q 18.84375 -1.421875 12.171875 6.21875 
Q 5.515625 13.875 5.515625 27.296875 
Q 5.515625 40.765625 12.171875 48.375 
Q 18.84375 56 30.609375 56 
" id="BitstreamVeraSans-Roman-6f"/>
      <path d="M 41.109375 46.296875 
Q 39.59375 47.171875 37.8125 47.578125 
Q 36.03125 48 33.890625 48 
Q 26.265625 48 22.1875 43.046875 
Q 18.109375 38.09375 18.109375 28.8125 
L 18.109375 0 
L 9.078125 0 
L 9.078125 54.6875 
L 18.109375 54.6875 
L 18.109375 46.1875 
Q 20.953125 51.171875 25.484375 53.578125 
Q 30.03125 56 36.53125 56 
Q 37.453125 56 38.578125 55.875 
Q 39.703125 55.765625 41.0625 55.515625 
z
" id="BitstreamVeraSans-Roman-72"/>
      <path d="M 34.28125 27.484375 
Q 23.390625 27.484375 19.1875 25 
Q 14.984375 22.515625 14.984375 16.5 
Q 14.984375 11.71875 18.140625 8.90625 
Q 21.296875 6.109375 26.703125 6.109375 
Q 34.1875 6.109375 38.703125 11.40625 
Q 43.21875 16.703125 43.21875 25.484375 
L 43.21875 27.484375 
z
M 52.203125 31.203125 
L 52.203125 0 
L 43.21875 0 
L 43.21875 8.296875 
Q 40.140625 3.328125 35.546875 0.953125 
Q 30.953125 -1.421875 24.3125 -1.421875 
Q 15.921875 -1.421875 10.953125 3.296875 
Q 6 8.015625 6 15.921875 
Q 6 25.140625 12.171875 29.828125 
Q 18.359375 34.515625 30.609375 34.515625 
L 43.21875 34.515625 
L 43.21875 35.40625 
Q 43.21875 41.609375 39.140625 45 
Q 35.0625 48.390625 27.6875 48.390625 
Q 23 48.390625 18.546875 47.265625 
Q 14.109375 46.140625 10.015625 43.890625 
L 10.015625 52.203125 
Q 14.9375 54.109375 19.578125 55.046875 
Q 24.21875 56 28.609375 56 
Q 40.484375 56 46.34375 49.84375 
Q 52.203125 43.703125 52.203125 31.203125 
" id="BitstreamVeraSans-Roman-61"/>
      <path d="M 9.421875 75.984375 
L 18.40625 75.984375 
L 18.40625 0 
L 9.421875 0 
z
" id="BitstreamVeraSans-Roman-6c"/>
      <path d="M 31 75.875 
Q 24.46875 64.65625 21.28125 53.65625 
Q 18.109375 42.671875 18.109375 31.390625 
Q 18.109375 20.125 21.3125 9.0625 
Q 24.515625 -2 31 -13.1875 
L 23.1875 -13.1875 
Q 15.875 -1.703125 12.234375 9.375 
Q 8.59375 20.453125 8.59375 31.390625 
Q 8.59375 42.28125 12.203125 53.3125 
Q 15.828125 64.359375 23.1875 75.875 
z
" id="BitstreamVeraSans-Roman-28"/>
      <path d="M 54.890625 33.015625 
L 54.890625 0 
L 45.90625 0 
L 45.90625 32.71875 
Q 45.90625 40.484375 42.875 44.328125 
Q 39.84375 48.1875 33.796875 48.1875 
Q 26.515625 48.1875 22.3125 43.546875 
Q 18.109375 38.921875 18.109375 30.90625 
L 18.109375 0 
L 9.078125 0 
L 9.078125 54.6875 
L 18.109375 54.6875 
L 18.109375 46.1875 
Q 21.34375 51.125 25.703125 53.5625 
Q 30.078125 56 35.796875 56 
Q 45.21875 56 50.046875 50.171875 
Q 54.890625 44.34375 54.890625 33.015625 
" id="BitstreamVeraSans-Roman-6e"/>
      <path d="M 18.3125 70.21875 
L 18.3125 54.6875 
L 36.8125 54.6875 
L 36.8125 47.703125 
L 18.3125 47.703125 
L 18.3125 18.015625 
Q 18.3125 11.328125 20.140625 9.421875 
Q 21.96875 7.515625 27.59375 7.515625 
L 36.8125 7.515625 
L 36.8125 0 
L 27.59375 0 
Q 17.1875 0 13.234375 3.875 
Q 9.28125 7.765625 9.28125 18.015625 
L 9.28125 47.703125 
L 2.6875 47.703125 
L 2.6875 54.6875 
L 9.28125 54.6875 
L 9.28125 70.21875 
z
" id="BitstreamVeraSans-Roman-74"/>
      <path d="M 9.421875 54.6875 
L 18.40625 54.6875 
L 18.40625 0 
L 9.421875 0 
z
M 9.421875 75.984375 
L 18.40625 75.984375 
L 18.40625 64.59375 
L 9.421875 64.59375 
z
" id="BitstreamVeraSans-Roman-69"/>
      <path d="M 8.015625 75.875 
L 15.828125 75.875 
Q 23.140625 64.359375 26.78125 53.3125 
Q 30.421875 42.28125 30.421875 31.390625 
Q 30.421875 20.453125 26.78125 9.375 
Q 23.140625 -1.703125 15.828125 -13.1875 
L 8.015625 -13.1875 
Q 14.5 -2 17.703125 9.0625 
Q 20.90625 20.125 20.90625 31.390625 
Q 20.90625 42.671875 17.703125 53.65625 
Q 14.5 64.65625 8.015625 75.875 
" id="BitstreamVeraSans-Roman-29"/>
      <path d="M 9.8125 72.90625 
L 19.671875 72.90625 
L 19.671875 43.015625 
L 55.515625 43.015625 
L 55.515625 72.90625 
L 65.375 72.90625 
L 65.375 0 
L 55.515625 0 
L 55.515625 34.71875 
L 19.671875 34.71875 
L 19.671875 0 
L 9.8125 0 
z
" id="BitstreamVeraSans-Roman-48"/>
      <path id="BitstreamVeraSans-Roman-20"/>
     </defs>
     <g transform="translate(252.13125 418.531875)scale(0.12 -0.12)">
      <use xlink:href="#BitstreamVeraSans-Roman-48"/>
      <use x="75.1953125" xlink:href="#BitstreamVeraSans-Roman-6f"/>
      <use x="136.376953125" xlink:href="#BitstreamVeraSans-Roman-72"/>
      <use x="177.490234375" xlink:href="#BitstreamVeraSans-Roman-69"/>
      <use x="205.2734375" xlink:href="#BitstreamVeraSans-Roman-7a"/>
      <use x="257.763671875" xlink:href="#BitstreamVeraSans-Roman-6f"/>
      <use x="318.9453125" xlink:href="#BitstreamVeraSans-Roman-6e"/>
      <use x="382.32421875" xlink:href="#BitstreamVeraSans-Roman-74"/>
      <use x="421.533203125" xlink:href="#BitstreamVeraSans-Roman-61"/>
      <use x="482.8125" xlink:href="#BitstreamVeraSans-Roman-6c"/>
      <use x="510.595703125" xlink:href="#BitstreamVeraSans-Roman-20"/>
      <use x="542.3828125" xlink:href="#BitstreamVeraSans-Roman-28"/>
      <use x="581.396484375" xlink:href="#BitstreamVeraSans-Roman-6d"/>
      <use x="678.80859375" xlink:href="#BitstreamVeraSans-Roman-29"/>
     </g>
    </g>
   </g>
   <g id="matplotlib.axis_2">
    <g id="ytick_1">
     <g id="line2d_15">
      <defs>
       <path d="M 0 0 
L 4 0 
" id="ma9932b8be0" style="stroke:#000000;stroke-width:0.5;"/>
      </defs>
      <g>
       <use style="stroke:#000000;stroke-width:0.5;" x="72.0" xlink:href="#ma9932b8be0" y="388.8"/>
      </g>
     </g>
     <g id="line2d_16">
      <defs>
       <path d="M 0 0 
L -4 0 
" id="me68f2d9b81" style="stroke:#000000;stroke-width:0.5;"/>
      </defs>
      <g>
       <use style="stroke:#000000;stroke-width:0.5;" x="518.4" xlink:href="#me68f2d9b81" y="388.8"/>
      </g>
     </g>
     <g id="text_7">
      <!-- 7.0 -->
      <g transform="translate(48.91625 392.11125)scale(0.12 -0.12)">
       <use xlink:href="#BitstreamVeraSans-Roman-37"/>
       <use x="63.623046875" xlink:href="#BitstreamVeraSans-Roman-2e"/>
       <use x="95.41015625" xlink:href="#BitstreamVeraSans-Roman-30"/>
      </g>
     </g>
    </g>
    <g id="ytick_2">
     <g id="line2d_17">
      <g>
       <use style="stroke:#000000;stroke-width:0.5;" x="72.0" xlink:href="#ma9932b8be0" y="302.4"/>
      </g>
     </g>
     <g id="line2d_18">
      <g>
       <use style="stroke:#000000;stroke-width:0.5;" x="518.4" xlink:href="#me68f2d9b81" y="302.4"/>
      </g>
     </g>
     <g id="text_8">
      <!-- 7.5 -->
      <g transform="translate(48.91625 305.71125)scale(0.12 -0.12)">
       <use xlink:href="#BitstreamVeraSans-Roman-37"/>
       <use x="63.623046875" xlink:href="#BitstreamVeraSans-Roman-2e"/>
       <use x="95.41015625" xlink:href="#BitstreamVeraSans-Roman-35"/>
      </g>
     </g>
    </g>
    <g id="ytick_3">
     <g id="line2d_19">
      <g>
       <use style="stroke:#000000;stroke-width:0.5;" x="72.0" xlink:href="#ma9932b8be0" y="216.0"/>
      </g>
     </g>
     <g id="line2d_20">
      <g>
       <use style="stroke:#000000;stroke-width:0.5;" x="518.4" xlink:href="#me68f2d9b81" y="216.0"/>
      </g>
     </g>
     <g id="text_9">
      <!-- 8.0 -->
      <g transform="translate(48.91625 219.31125)scale(0.12 -0.12)">
       <use xlink:href="#BitstreamVeraSans-Roman-38"/>
       <use x="63.623046875" xlink:href="#BitstreamVeraSans-Roman-2e"/>
       <use x="95.41015625" xlink:href="#BitstreamVeraSans-Roman-30"/>
      </g>
     </g>
    </g>
    <g id="ytick_4">
     <g id="line2d_21">
      <g>
       <use style="stroke:#000000;stroke-width:0.5;" x="72.0" xlink:href="#ma9932b8be0" y="129.6"/>
      </g>
     </g>
     <g id="line2d_22">
      <g>
       <use style="stroke:#000000;stroke-width:0.5;" x="518.4" xlink:href="#me68f2d9b81" y="129.6"/>
      </g>
     </g>
     <g id="text_10">
      <!-- 8.5 -->
      <g transform="translate(48.91625 132.91125)scale(0.12 -0.12)">
       <use xlink:href="#BitstreamVeraSans-Roman-38"/>
       <use x="63.623046875" xlink:href="#BitstreamVeraSans-Roman-2e"/>
       <use x="95.41015625" xlink:href="#BitstreamVeraSans-Roman-35"/>
      </g>
     </g>
    </g>
    <g id="ytick_5">
     <g id="line2d_23">
      <g>
       <use style="stroke:#000000;stroke-width:0.5;" x="72.0" xlink:href="#ma9932b8be0" y="43.2"/>
      </g>
     </g>
     <g id="line2d_24">
      <g>
       <use style="stroke:#000000;stroke-width:0.5;" x="518.4" xlink:href="#me68f2d9b81" y="43.2"/>
      </g>
     </g>
     <g id="text_11">
      <!-- 9.0 -->
      <g transform="translate(48.91625 46.51125)scale(0.12 -0.12)">
       <use xlink:href="#BitstreamVeraSans-Roman-39"/>
       <use x="63.623046875" xlink:href="#BitstreamVeraSans-Roman-2e"/>
       <use x="95.41015625" xlink:href="#BitstreamVeraSans-Roman-30"/>
      </g>
     </g>
    </g>
    <g id="text_12">
     <!-- Vertical (m) -->
     <defs>
      <path d="M 28.609375 0 
L 0.78125 72.90625 
L 11.078125 72.90625 
L 34.1875 11.53125 
L 57.328125 72.90625 
L 67.578125 72.90625 
L 39.796875 0 
z
" id="BitstreamVeraSans-Roman-56"/>
      <path d="M 56.203125 29.59375 
L 56.203125 25.203125 
L 14.890625 25.203125 
Q 15.484375 15.921875 20.484375 11.0625 
Q 25.484375 6.203125 34.421875 6.203125 
Q 39.59375 6.203125 44.453125 7.46875 
Q 49.3125 8.734375 54.109375 11.28125 
L 54.109375 2.78125 
Q 49.265625 0.734375 44.1875 -0.34375 
Q 39.109375 -1.421875 33.890625 -1.421875 
Q 20.796875 -1.421875 13.15625 6.1875 
Q 5.515625 13.8125 5.515625 26.8125 
Q 5.515625 40.234375 12.765625 48.109375 
Q 20.015625 56 32.328125 56 
Q 43.359375 56 49.78125 48.890625 
Q 56.203125 41.796875 56.203125 29.59375 
M 47.21875 32.234375 
Q 47.125 39.59375 43.09375 43.984375 
Q 39.0625 48.390625 32.421875 48.390625 
Q 24.90625 48.390625 20.390625 44.140625 
Q 15.875 39.890625 15.1875 32.171875 
z
" id="BitstreamVeraSans-Roman-65"/>
      <path d="M 48.78125 52.59375 
L 48.78125 44.1875 
Q 44.96875 46.296875 41.140625 47.34375 
Q 37.3125 48.390625 33.40625 48.390625 
Q 24.65625 48.390625 19.8125 42.84375 
Q 14.984375 37.3125 14.984375 27.296875 
Q 14.984375 17.28125 19.8125 11.734375 
Q 24.65625 6.203125 33.40625 6.203125 
Q 37.3125 6.203125 41.140625 7.25 
Q 44.96875 8.296875 48.78125 10.40625 
L 48.78125 2.09375 
Q 45.015625 0.34375 40.984375 -0.53125 
Q 36.96875 -1.421875 32.421875 -1.421875 
Q 20.0625 -1.421875 12.78125 6.34375 
Q 5.515625 14.109375 5.515625 27.296875 
Q 5.515625 40.671875 12.859375 48.328125 
Q 20.21875 56 33.015625 56 
Q 37.15625 56 41.109375 55.140625 
Q 45.0625 54.296875 48.78125 52.59375 
" id="BitstreamVeraSans-Roman-63"/>
     </defs>
     <g transform="translate(41.420625 251.35125)rotate(-90.0)scale(0.12 -0.12)">
      <use xlink:href="#BitstreamVeraSans-Roman-56"/>
      <use x="68.298828125" xlink:href="#BitstreamVeraSans-Roman-65"/>
      <use x="129.822265625" xlink:href="#BitstreamVeraSans-Roman-72"/>
      <use x="170.935546875" xlink:href="#BitstreamVeraSans-Roman-74"/>
      <use x="210.14453125" xlink:href="#BitstreamVeraSans-Roman-69"/>
      <use x="237.927734375" xlink:href="#BitstreamVeraSans-Roman-63"/>
      <use x="292.908203125" xlink:href="#BitstreamVeraSans-Roman-61"/>
      <use x="354.1875" xlink:href="#BitstreamVeraSans-Roman-6c"/>
      <use x="381.970703125" xlink:href="#BitstreamVeraSans-Roman-20"/>
      <use x="413.7578125" xlink:href="#BitstreamVeraSans-Roman-28"/>
      <use x="452.771484375" xlink:href="#BitstreamVeraSans-Roman-6d"/>
      <use x="550.18359375" xlink:href="#BitstreamVeraSans-Roman-29"/>
     </g>
    </g>
   </g>
  </g>
 </g>
 <defs>
  <clipPath id="p690a7a0d40">
   <rect height="345.6" width="446.4" x="72.0" y="43.2"/>
  </clipPath>
 </defs>
</svg>
