<?xml version="1.0" encoding="utf-8" standalone="no"?>
<!DOCTYPE svg PUBLIC "-//W3C//DTD SVG 1.1//EN"
  "http://www.w3.org/Graphics/SVG/1.1/DTD/svg11.dtd">
<!-- Created with matplotlib (http://matplotlib.org/) -->
<svg height="432pt" version="1.1" viewBox="0 0 576 432" width="576pt" xmlns="http://www.w3.org/2000/svg" xmlns:xlink="http://www.w3.org/1999/xlink">
 <defs>
  <style type="text/css">
*{stroke-linecap:butt;stroke-linejoin:round;stroke-miterlimit:100000;}
  </style>
 </defs>
 <g id="figure_1">
  <g id="patch_1">
   <path d="M 0 432 
L 576 432 
L 576 0 
L 0 0 
z
" style="fill:#ffffff;"/>
  </g>
  <g id="axes_1">
   <g id="patch_2">
    <path d="M 72 388.8 
L 518.4 388.8 
L 518.4 43.2 
L 72 43.2 
z
" style="fill:#ffffff;"/>
   </g>
   <g id="line2d_1">
    <path clip-path="url(#pc858e754e8)" d="M 199.50336 101.6064 
L 58.70592 46.96704 
L -1 89.88067 
M -1 145.535331 
L 19.89504 192.3264 
L 154.67904 176.53248 
L 199.60704 125.03808 
L 199.50336 101.6064 
M 333.28512 217.65888 
L 202.71744 121.34016 
L 158.5152 173.45664 
L 163.38816 295.97184 
L 282.55104 332.64 
L 333.28512 217.65888 
M -1 89.871546 
L 61.02144 45.23904 
L 59.278282 -1 
M 536.11776 286.6752 
L 500.59008 179.8848 
L 348.28416 223.22304 
L 297.55008 338.20416 
L 384.39936 389.00736 
L 531.72864 316.7424 
L 536.11776 286.6752 
M 529.79328 317.71008 
L 382.464 389.97504 
L 389.594581 433 
M 531.590998 433 
L 550.2528 378.29376 
L 529.79328 317.71008 
M -1561.81248 78.2784 
" style="fill:none;stroke:#0000ff;stroke-linecap:square;"/>
   </g>
   <g id="line2d_2">
    <path clip-path="url(#pc858e754e8)" d="M 498.970166 433 
L 519.63264 375.1488 
L 500.07168 314.28864 
L 500.10624 314.28864 
L 504.91008 284.256 
L 470.9376 177.05088 
L 317.97504 218.21184 
L 188.7552 120.02688 
L 188.7552 120.06144 
L 188.65152 96.62976 
L 47.88864 41.95584 
L 46.287278 -1 
L 46.287278 -1 
" style="fill:none;stroke:#000000;stroke-linecap:square;"/>
   </g>
   <g id="line2d_3">
    <path clip-path="url(#pc858e754e8)" d="M 531.590998 433 
L 550.2528 378.29376 
L 529.79328 317.71008 
L 531.72864 316.7424 
L 536.11776 286.6752 
L 500.59008 179.8848 
L 348.28416 223.22304 
L 333.28512 217.65888 
L 202.71744 121.34016 
L 199.60704 125.03808 
L 199.50336 101.6064 
L 58.70592 46.96704 
L 61.02144 45.23904 
L 59.278282 -1 
L 59.278282 -1 
" style="fill:none;stroke:#000000;stroke-linecap:square;stroke-width:2.0;"/>
    <defs>
     <path d="M 0 5 
C 1.326016 5 2.597899 4.473168 3.535534 3.535534 
C 4.473168 2.597899 5 1.326016 5 0 
C 5 -1.326016 4.473168 -2.597899 3.535534 -3.535534 
C 2.597899 -4.473168 1.326016 -5 0 -5 
C -1.326016 -5 -2.597899 -4.473168 -3.535534 -3.535534 
C -4.473168 -2.597899 -5 -1.326016 -5 0 
C -5 1.326016 -4.473168 2.597899 -3.535534 3.535534 
C -2.597899 4.473168 -1.326016 5 0 5 
z
" id="m274450aa6f" style="stroke:#000000;stroke-width:0.5;"/>
    </defs>
    <g clip-path="url(#pc858e754e8)">
     <use style="stroke:#000000;stroke-width:0.5;" x="-2239.399296" xlink:href="#m274450aa6f" y="1167.05664"/>
     <use style="stroke:#000000;stroke-width:0.5;" x="-1.0" xlink:href="#m274450aa6f" y="2582.85223086"/>
     <use style="stroke:#000000;stroke-width:0.5;" x="0.43776" xlink:href="#m274450aa6f" y="2583.60192"/>
     <use style="stroke:#000000;stroke-width:0.5;" x="54.42048" xlink:href="#m274450aa6f" y="2558.9952"/>
     <use style="stroke:#000000;stroke-width:0.5;" x="114.93504" xlink:href="#m274450aa6f" y="2427.11424"/>
     <use style="stroke:#000000;stroke-width:0.5;" x="116.6976" xlink:href="#m274450aa6f" y="2428.11648"/>
     <use style="stroke:#000000;stroke-width:0.5;" x="206.5536" xlink:href="#m274450aa6f" y="2392.96896"/>
     <use style="stroke:#000000;stroke-width:0.5;" x="213.32736" xlink:href="#m274450aa6f" y="2395.31904"/>
     <use style="stroke:#000000;stroke-width:0.5;" x="364.28544" xlink:href="#m274450aa6f" y="2479.12704"/>
     <use style="stroke:#000000;stroke-width:0.5;" x="396.70272" xlink:href="#m274450aa6f" y="2363.04"/>
     <use style="stroke:#000000;stroke-width:0.5;" x="429.12" xlink:href="#m274450aa6f" y="2246.95296"/>
     <use style="stroke:#000000;stroke-width:0.5;" x="429.01632" xlink:href="#m274450aa6f" y="2246.50368"/>
     <use style="stroke:#000000;stroke-width:0.5;" x="517.52448" xlink:href="#m274450aa6f" y="2212.49664"/>
     <use style="stroke:#000000;stroke-width:0.5;" x="606.0672" xlink:href="#m274450aa6f" y="2178.4896"/>
     <use style="stroke:#000000;stroke-width:0.5;" x="524.88576" xlink:href="#m274450aa6f" y="2051.4816"/>
     <use style="stroke:#000000;stroke-width:0.5;" x="526.61376" xlink:href="#m274450aa6f" y="2051.96544"/>
     <use style="stroke:#000000;stroke-width:0.5;" x="556.992" xlink:href="#m274450aa6f" y="1939.23072"/>
     <use style="stroke:#000000;stroke-width:0.5;" x="558.0288" xlink:href="#m274450aa6f" y="1940.09472"/>
     <use style="stroke:#000000;stroke-width:0.5;" x="643.87584" xlink:href="#m274450aa6f" y="1896.75648"/>
     <use style="stroke:#000000;stroke-width:0.5;" x="651.168" xlink:href="#m274450aa6f" y="1795.25376"/>
     <use style="stroke:#000000;stroke-width:0.5;" x="650.26944" xlink:href="#m274450aa6f" y="1795.18464"/>
     <use style="stroke:#000000;stroke-width:0.5;" x="709.78176" xlink:href="#m274450aa6f" y="1724.68224"/>
     <use style="stroke:#000000;stroke-width:0.5;" x="676.94976" xlink:href="#m274450aa6f" y="1678.09536"/>
     <use style="stroke:#000000;stroke-width:0.5;" x="677.39904" xlink:href="#m274450aa6f" y="1678.30272"/>
     <use style="stroke:#000000;stroke-width:0.5;" x="708.81408" xlink:href="#m274450aa6f" y="1516.80384"/>
     <use style="stroke:#000000;stroke-width:0.5;" x="717.03936" xlink:href="#m274450aa6f" y="1513.69344"/>
     <use style="stroke:#000000;stroke-width:0.5;" x="849.888" xlink:href="#m274450aa6f" y="1545.696"/>
     <use style="stroke:#000000;stroke-width:0.5;" x="921.63456" xlink:href="#m274450aa6f" y="1461.64608"/>
     <use style="stroke:#000000;stroke-width:0.5;" x="831.64032" xlink:href="#m274450aa6f" y="1319.53536"/>
     <use style="stroke:#000000;stroke-width:0.5;" x="828.6336" xlink:href="#m274450aa6f" y="1322.47296"/>
     <use style="stroke:#000000;stroke-width:0.5;" x="785.98656" xlink:href="#m274450aa6f" y="1249.8624"/>
     <use style="stroke:#000000;stroke-width:0.5;" x="790.82496" xlink:href="#m274450aa6f" y="1251.45216"/>
     <use style="stroke:#000000;stroke-width:0.5;" x="862.848" xlink:href="#m274450aa6f" y="1179.94752"/>
     <use style="stroke:#000000;stroke-width:0.5;" x="934.9056" xlink:href="#m274450aa6f" y="1108.47744"/>
     <use style="stroke:#000000;stroke-width:0.5;" x="928.92672" xlink:href="#m274450aa6f" y="1037.8368"/>
     <use style="stroke:#000000;stroke-width:0.5;" x="805.78944" xlink:href="#m274450aa6f" y="1014.5088"/>
     <use style="stroke:#000000;stroke-width:0.5;" x="800.57088" xlink:href="#m274450aa6f" y="1012.15872"/>
     <use style="stroke:#000000;stroke-width:0.5;" x="806.44608" xlink:href="#m274450aa6f" y="885.56544"/>
     <use style="stroke:#000000;stroke-width:0.5;" x="812.32128" xlink:href="#m274450aa6f" y="758.9376"/>
     <use style="stroke:#000000;stroke-width:0.5;" x="797.14944" xlink:href="#m274450aa6f" y="748.15488"/>
     <use style="stroke:#000000;stroke-width:0.5;" x="798.49728" xlink:href="#m274450aa6f" y="747.7056"/>
     <use style="stroke:#000000;stroke-width:0.5;" x="797.08032" xlink:href="#m274450aa6f" y="629.856"/>
     <use style="stroke:#000000;stroke-width:0.5;" x="795.66336" xlink:href="#m274450aa6f" y="512.0064"/>
     <use style="stroke:#000000;stroke-width:0.5;" x="685.31328" xlink:href="#m274450aa6f" y="537.2352"/>
     <use style="stroke:#000000;stroke-width:0.5;" x="574.9632" xlink:href="#m274450aa6f" y="562.464"/>
     <use style="stroke:#000000;stroke-width:0.5;" x="574.7904" xlink:href="#m274450aa6f" y="562.84416"/>
     <use style="stroke:#000000;stroke-width:0.5;" x="513.82656" xlink:href="#m274450aa6f" y="486.15552"/>
     <use style="stroke:#000000;stroke-width:0.5;" x="513.4464" xlink:href="#m274450aa6f" y="486.19008"/>
     <use style="stroke:#000000;stroke-width:0.5;" x="550.2528" xlink:href="#m274450aa6f" y="378.29376"/>
     <use style="stroke:#000000;stroke-width:0.5;" x="529.79328" xlink:href="#m274450aa6f" y="317.71008"/>
     <use style="stroke:#000000;stroke-width:0.5;" x="531.72864" xlink:href="#m274450aa6f" y="316.7424"/>
     <use style="stroke:#000000;stroke-width:0.5;" x="536.11776" xlink:href="#m274450aa6f" y="286.6752"/>
     <use style="stroke:#000000;stroke-width:0.5;" x="500.59008" xlink:href="#m274450aa6f" y="179.8848"/>
     <use style="stroke:#000000;stroke-width:0.5;" x="348.28416" xlink:href="#m274450aa6f" y="223.22304"/>
     <use style="stroke:#000000;stroke-width:0.5;" x="333.28512" xlink:href="#m274450aa6f" y="217.65888"/>
     <use style="stroke:#000000;stroke-width:0.5;" x="202.71744" xlink:href="#m274450aa6f" y="121.34016"/>
     <use style="stroke:#000000;stroke-width:0.5;" x="199.60704" xlink:href="#m274450aa6f" y="125.03808"/>
     <use style="stroke:#000000;stroke-width:0.5;" x="199.50336" xlink:href="#m274450aa6f" y="101.6064"/>
     <use style="stroke:#000000;stroke-width:0.5;" x="58.70592" xlink:href="#m274450aa6f" y="46.96704"/>
     <use style="stroke:#000000;stroke-width:0.5;" x="61.02144" xlink:href="#m274450aa6f" y="45.23904"/>
     <use style="stroke:#000000;stroke-width:0.5;" x="59.2782815951" xlink:href="#m274450aa6f" y="-1.0"/>
    </g>
   </g>
   <g id="line2d_4">
    <path clip-path="url(#pc858e754e8)" d="M 122.4 354.24 
L 468 354.24 
L 468 77.76 
L 122.4 77.76 
L 122.4 354.24 
" style="fill:none;stroke:#ff0000;stroke-linecap:square;"/>
   </g>
   <g id="patch_3">
    <path d="M 72 388.8 
L 72 43.2 
" style="fill:none;stroke:#000000;stroke-linecap:square;stroke-linejoin:miter;"/>
   </g>
   <g id="patch_4">
    <path d="M 72 43.2 
L 518.4 43.2 
" style="fill:none;stroke:#000000;stroke-linecap:square;stroke-linejoin:miter;"/>
   </g>
   <g id="patch_5">
    <path d="M 518.4 388.8 
L 518.4 43.2 
" style="fill:none;stroke:#000000;stroke-linecap:square;stroke-linejoin:miter;"/>
   </g>
   <g id="patch_6">
    <path d="M 72 388.8 
L 518.4 388.8 
" style="fill:none;stroke:#000000;stroke-linecap:square;stroke-linejoin:miter;"/>
   </g>
   <g id="matplotlib.axis_1">
    <g id="xtick_1">
     <g id="line2d_5">
      <defs>
       <path d="M 0 0 
L 0 -4 
" id="m67c0118fb5" style="stroke:#000000;stroke-width:0.5;"/>
      </defs>
      <g>
       <use style="stroke:#000000;stroke-width:0.5;" x="87.84" xlink:href="#m67c0118fb5" y="388.8"/>
      </g>
     </g>
     <g id="line2d_6">
      <defs>
       <path d="M 0 0 
L 0 4 
" id="m9783c43bdd" style="stroke:#000000;stroke-width:0.5;"/>
      </defs>
      <g>
       <use style="stroke:#000000;stroke-width:0.5;" x="87.84" xlink:href="#m9783c43bdd" y="43.2"/>
      </g>
     </g>
     <g id="text_1">
      <!-- 7.4 -->
      <defs>
       <path d="M 8.203125 72.90625 
L 55.078125 72.90625 
L 55.078125 68.703125 
L 28.609375 0 
L 18.3125 0 
L 43.21875 64.59375 
L 8.203125 64.59375 
z
" id="BitstreamVeraSans-Roman-37"/>
       <path d="M 37.796875 64.3125 
L 12.890625 25.390625 
L 37.796875 25.390625 
z
M 35.203125 72.90625 
L 47.609375 72.90625 
L 47.609375 25.390625 
L 58.015625 25.390625 
L 58.015625 17.1875 
L 47.609375 17.1875 
L 47.609375 0 
L 37.796875 0 
L 37.796875 17.1875 
L 4.890625 17.1875 
L 4.890625 26.703125 
z
" id="BitstreamVeraSans-Roman-34"/>
       <path d="M 10.6875 12.40625 
L 21 12.40625 
L 21 0 
L 10.6875 0 
z
" id="BitstreamVeraSans-Roman-2e"/>
      </defs>
      <g transform="translate(78.298125 401.918125)scale(0.12 -0.12)">
       <use xlink:href="#BitstreamVeraSans-Roman-37"/>
       <use x="63.623046875" xlink:href="#BitstreamVeraSans-Roman-2e"/>
       <use x="95.41015625" xlink:href="#BitstreamVeraSans-Roman-34"/>
      </g>
     </g>
    </g>
    <g id="xtick_2">
     <g id="line2d_7">
      <g>
       <use style="stroke:#000000;stroke-width:0.5;" x="156.96" xlink:href="#m67c0118fb5" y="388.8"/>
      </g>
     </g>
     <g id="line2d_8">
      <g>
       <use style="stroke:#000000;stroke-width:0.5;" x="156.96" xlink:href="#m9783c43bdd" y="43.2"/>
      </g>
     </g>
     <g id="text_2">
      <!-- 7.6 -->
      <defs>
       <path d="M 33.015625 40.375 
Q 26.375 40.375 22.484375 35.828125 
Q 18.609375 31.296875 18.609375 23.390625 
Q 18.609375 15.53125 22.484375 10.953125 
Q 26.375 6.390625 33.015625 6.390625 
Q 39.65625 6.390625 43.53125 10.953125 
Q 47.40625 15.53125 47.40625 23.390625 
Q 47.40625 31.296875 43.53125 35.828125 
Q 39.65625 40.375 33.015625 40.375 
M 52.59375 71.296875 
L 52.59375 62.3125 
Q 48.875 64.0625 45.09375 64.984375 
Q 41.3125 65.921875 37.59375 65.921875 
Q 27.828125 65.921875 22.671875 59.328125 
Q 17.53125 52.734375 16.796875 39.40625 
Q 19.671875 43.65625 24.015625 45.921875 
Q 28.375 48.1875 33.59375 48.1875 
Q 44.578125 48.1875 50.953125 41.515625 
Q 57.328125 34.859375 57.328125 23.390625 
Q 57.328125 12.15625 50.6875 5.359375 
Q 44.046875 -1.421875 33.015625 -1.421875 
Q 20.359375 -1.421875 13.671875 8.265625 
Q 6.984375 17.96875 6.984375 36.375 
Q 6.984375 53.65625 15.1875 63.9375 
Q 23.390625 74.21875 37.203125 74.21875 
Q 40.921875 74.21875 44.703125 73.484375 
Q 48.484375 72.75 52.59375 71.296875 
" id="BitstreamVeraSans-Roman-36"/>
      </defs>
      <g transform="translate(147.418125 401.918125)scale(0.12 -0.12)">
       <use xlink:href="#BitstreamVeraSans-Roman-37"/>
       <use x="63.623046875" xlink:href="#BitstreamVeraSans-Roman-2e"/>
       <use x="95.41015625" xlink:href="#BitstreamVeraSans-Roman-36"/>
      </g>
     </g>
    </g>
    <g id="xtick_3">
     <g id="line2d_9">
      <g>
       <use style="stroke:#000000;stroke-width:0.5;" x="226.08" xlink:href="#m67c0118fb5" y="388.8"/>
      </g>
     </g>
     <g id="line2d_10">
      <g>
       <use style="stroke:#000000;stroke-width:0.5;" x="226.08" xlink:href="#m9783c43bdd" y="43.2"/>
      </g>
     </g>
     <g id="text_3">
      <!-- 7.8 -->
      <defs>
       <path d="M 31.78125 34.625 
Q 24.75 34.625 20.71875 30.859375 
Q 16.703125 27.09375 16.703125 20.515625 
Q 16.703125 13.921875 20.71875 10.15625 
Q 24.75 6.390625 31.78125 6.390625 
Q 38.8125 6.390625 42.859375 10.171875 
Q 46.921875 13.96875 46.921875 20.515625 
Q 46.921875 27.09375 42.890625 30.859375 
Q 38.875 34.625 31.78125 34.625 
M 21.921875 38.8125 
Q 15.578125 40.375 12.03125 44.71875 
Q 8.5 49.078125 8.5 55.328125 
Q 8.5 64.0625 14.71875 69.140625 
Q 20.953125 74.21875 31.78125 74.21875 
Q 42.671875 74.21875 48.875 69.140625 
Q 55.078125 64.0625 55.078125 55.328125 
Q 55.078125 49.078125 51.53125 44.71875 
Q 48 40.375 41.703125 38.8125 
Q 48.828125 37.15625 52.796875 32.3125 
Q 56.78125 27.484375 56.78125 20.515625 
Q 56.78125 9.90625 50.3125 4.234375 
Q 43.84375 -1.421875 31.78125 -1.421875 
Q 19.734375 -1.421875 13.25 4.234375 
Q 6.78125 9.90625 6.78125 20.515625 
Q 6.78125 27.484375 10.78125 32.3125 
Q 14.796875 37.15625 21.921875 38.8125 
M 18.3125 54.390625 
Q 18.3125 48.734375 21.84375 45.5625 
Q 25.390625 42.390625 31.78125 42.390625 
Q 38.140625 42.390625 41.71875 45.5625 
Q 45.3125 48.734375 45.3125 54.390625 
Q 45.3125 60.0625 41.71875 63.234375 
Q 38.140625 66.40625 31.78125 66.40625 
Q 25.390625 66.40625 21.84375 63.234375 
Q 18.3125 60.0625 18.3125 54.390625 
" id="BitstreamVeraSans-Roman-38"/>
      </defs>
      <g transform="translate(216.538125 401.918125)scale(0.12 -0.12)">
       <use xlink:href="#BitstreamVeraSans-Roman-37"/>
       <use x="63.623046875" xlink:href="#BitstreamVeraSans-Roman-2e"/>
       <use x="95.41015625" xlink:href="#BitstreamVeraSans-Roman-38"/>
      </g>
     </g>
    </g>
    <g id="xtick_4">
     <g id="line2d_11">
      <g>
       <use style="stroke:#000000;stroke-width:0.5;" x="295.2" xlink:href="#m67c0118fb5" y="388.8"/>
      </g>
     </g>
     <g id="line2d_12">
      <g>
       <use style="stroke:#000000;stroke-width:0.5;" x="295.2" xlink:href="#m9783c43bdd" y="43.2"/>
      </g>
     </g>
     <g id="text_4">
      <!-- 8.0 -->
      <defs>
       <path d="M 31.78125 66.40625 
Q 24.171875 66.40625 20.328125 58.90625 
Q 16.5 51.421875 16.5 36.375 
Q 16.5 21.390625 20.328125 13.890625 
Q 24.171875 6.390625 31.78125 6.390625 
Q 39.453125 6.390625 43.28125 13.890625 
Q 47.125 21.390625 47.125 36.375 
Q 47.125 51.421875 43.28125 58.90625 
Q 39.453125 66.40625 31.78125 66.40625 
M 31.78125 74.21875 
Q 44.046875 74.21875 50.515625 64.515625 
Q 56.984375 54.828125 56.984375 36.375 
Q 56.984375 17.96875 50.515625 8.265625 
Q 44.046875 -1.421875 31.78125 -1.421875 
Q 19.53125 -1.421875 13.0625 8.265625 
Q 6.59375 17.96875 6.59375 36.375 
Q 6.59375 54.828125 13.0625 64.515625 
Q 19.53125 74.21875 31.78125 74.21875 
" id="BitstreamVeraSans-Roman-30"/>
      </defs>
      <g transform="translate(285.658125 401.918125)scale(0.12 -0.12)">
       <use xlink:href="#BitstreamVeraSans-Roman-38"/>
       <use x="63.623046875" xlink:href="#BitstreamVeraSans-Roman-2e"/>
       <use x="95.41015625" xlink:href="#BitstreamVeraSans-Roman-30"/>
      </g>
     </g>
    </g>
    <g id="xtick_5">
     <g id="line2d_13">
      <g>
       <use style="stroke:#000000;stroke-width:0.5;" x="364.32" xlink:href="#m67c0118fb5" y="388.8"/>
      </g>
     </g>
     <g id="line2d_14">
      <g>
       <use style="stroke:#000000;stroke-width:0.5;" x="364.32" xlink:href="#m9783c43bdd" y="43.2"/>
      </g>
     </g>
     <g id="text_5">
      <!-- 8.2 -->
      <defs>
       <path d="M 19.1875 8.296875 
L 53.609375 8.296875 
L 53.609375 0 
L 7.328125 0 
L 7.328125 8.296875 
Q 12.9375 14.109375 22.625 23.890625 
Q 32.328125 33.6875 34.8125 36.53125 
Q 39.546875 41.84375 41.421875 45.53125 
Q 43.3125 49.21875 43.3125 52.78125 
Q 43.3125 58.59375 39.234375 62.25 
Q 35.15625 65.921875 28.609375 65.921875 
Q 23.96875 65.921875 18.8125 64.3125 
Q 13.671875 62.703125 7.8125 59.421875 
L 7.8125 69.390625 
Q 13.765625 71.78125 18.9375 73 
Q 24.125 74.21875 28.421875 74.21875 
Q 39.75 74.21875 46.484375 68.546875 
Q 53.21875 62.890625 53.21875 53.421875 
Q 53.21875 48.921875 51.53125 44.890625 
Q 49.859375 40.875 45.40625 35.40625 
Q 44.1875 33.984375 37.640625 27.21875 
Q 31.109375 20.453125 19.1875 8.296875 
" id="BitstreamVeraSans-Roman-32"/>
      </defs>
      <g transform="translate(354.778125 401.918125)scale(0.12 -0.12)">
       <use xlink:href="#BitstreamVeraSans-Roman-38"/>
       <use x="63.623046875" xlink:href="#BitstreamVeraSans-Roman-2e"/>
       <use x="95.41015625" xlink:href="#BitstreamVeraSans-Roman-32"/>
      </g>
     </g>
    </g>
    <g id="xtick_6">
     <g id="line2d_15">
      <g>
       <use style="stroke:#000000;stroke-width:0.5;" x="433.44" xlink:href="#m67c0118fb5" y="388.8"/>
      </g>
     </g>
     <g id="line2d_16">
      <g>
       <use style="stroke:#000000;stroke-width:0.5;" x="433.44" xlink:href="#m9783c43bdd" y="43.2"/>
      </g>
     </g>
     <g id="text_6">
      <!-- 8.4 -->
      <g transform="translate(423.898125 401.918125)scale(0.12 -0.12)">
       <use xlink:href="#BitstreamVeraSans-Roman-38"/>
       <use x="63.623046875" xlink:href="#BitstreamVeraSans-Roman-2e"/>
       <use x="95.41015625" xlink:href="#BitstreamVeraSans-Roman-34"/>
      </g>
     </g>
    </g>
    <g id="xtick_7">
     <g id="line2d_17">
      <g>
       <use style="stroke:#000000;stroke-width:0.5;" x="502.56" xlink:href="#m67c0118fb5" y="388.8"/>
      </g>
     </g>
     <g id="line2d_18">
      <g>
       <use style="stroke:#000000;stroke-width:0.5;" x="502.56" xlink:href="#m9783c43bdd" y="43.2"/>
      </g>
     </g>
     <g id="text_7">
      <!-- 8.6 -->
      <g transform="translate(493.018125 401.918125)scale(0.12 -0.12)">
       <use xlink:href="#BitstreamVeraSans-Roman-38"/>
       <use x="63.623046875" xlink:href="#BitstreamVeraSans-Roman-2e"/>
       <use x="95.41015625" xlink:href="#BitstreamVeraSans-Roman-36"/>
      </g>
     </g>
    </g>
    <g id="text_8">
     <!-- Horizontal (m) -->
     <defs>
      <path d="M 52 44.1875 
Q 55.375 50.25 60.0625 53.125 
Q 64.75 56 71.09375 56 
Q 79.640625 56 84.28125 50.015625 
Q 88.921875 44.046875 88.921875 33.015625 
L 88.921875 0 
L 79.890625 0 
L 79.890625 32.71875 
Q 79.890625 40.578125 77.09375 44.375 
Q 74.3125 48.1875 68.609375 48.1875 
Q 61.625 48.1875 57.5625 43.546875 
Q 53.515625 38.921875 53.515625 30.90625 
L 53.515625 0 
L 44.484375 0 
L 44.484375 32.71875 
Q 44.484375 40.625 41.703125 44.40625 
Q 38.921875 48.1875 33.109375 48.1875 
Q 26.21875 48.1875 22.15625 43.53125 
Q 18.109375 38.875 18.109375 30.90625 
L 18.109375 0 
L 9.078125 0 
L 9.078125 54.6875 
L 18.109375 54.6875 
L 18.109375 46.1875 
Q 21.1875 51.21875 25.484375 53.609375 
Q 29.78125 56 35.6875 56 
Q 41.65625 56 45.828125 52.96875 
Q 50 49.953125 52 44.1875 
" id="BitstreamVeraSans-Roman-6d"/>
      <path d="M 30.609375 48.390625 
Q 23.390625 48.390625 19.1875 42.75 
Q 14.984375 37.109375 14.984375 27.296875 
Q 14.984375 17.484375 19.15625 11.84375 
Q 23.34375 6.203125 30.609375 6.203125 
Q 37.796875 6.203125 41.984375 11.859375 
Q 46.1875 17.53125 46.1875 27.296875 
Q 46.1875 37.015625 41.984375 42.703125 
Q 37.796875 48.390625 30.609375 48.390625 
M 30.609375 56 
Q 42.328125 56 49.015625 48.375 
Q 55.71875 40.765625 55.71875 27.296875 
Q 55.71875 13.875 49.015625 6.21875 
Q 42.328125 -1.421875 30.609375 -1.421875 
Q 18.84375 -1.421875 12.171875 6.21875 
Q 5.515625 13.875 5.515625 27.296875 
Q 5.515625 40.765625 12.171875 48.375 
Q 18.84375 56 30.609375 56 
" id="BitstreamVeraSans-Roman-6f"/>
      <path d="M 54.890625 33.015625 
L 54.890625 0 
L 45.90625 0 
L 45.90625 32.71875 
Q 45.90625 40.484375 42.875 44.328125 
Q 39.84375 48.1875 33.796875 48.1875 
Q 26.515625 48.1875 22.3125 43.546875 
Q 18.109375 38.921875 18.109375 30.90625 
L 18.109375 0 
L 9.078125 0 
L 9.078125 54.6875 
L 18.109375 54.6875 
L 18.109375 46.1875 
Q 21.34375 51.125 25.703125 53.5625 
Q 30.078125 56 35.796875 56 
Q 45.21875 56 50.046875 50.171875 
Q 54.890625 44.34375 54.890625 33.015625 
" id="BitstreamVeraSans-Roman-6e"/>
      <path d="M 9.421875 54.6875 
L 18.40625 54.6875 
L 18.40625 0 
L 9.421875 0 
z
M 9.421875 75.984375 
L 18.40625 75.984375 
L 18.40625 64.59375 
L 9.421875 64.59375 
z
" id="BitstreamVeraSans-Roman-69"/>
      <path id="BitstreamVeraSans-Roman-20"/>
      <path d="M 8.015625 75.875 
L 15.828125 75.875 
Q 23.140625 64.359375 26.78125 53.3125 
Q 30.421875 42.28125 30.421875 31.390625 
Q 30.421875 20.453125 26.78125 9.375 
Q 23.140625 -1.703125 15.828125 -13.1875 
L 8.015625 -13.1875 
Q 14.5 -2 17.703125 9.0625 
Q 20.90625 20.125 20.90625 31.390625 
Q 20.90625 42.671875 17.703125 53.65625 
Q 14.5 64.65625 8.015625 75.875 
" id="BitstreamVeraSans-Roman-29"/>
      <path d="M 34.28125 27.484375 
Q 23.390625 27.484375 19.1875 25 
Q 14.984375 22.515625 14.984375 16.5 
Q 14.984375 11.71875 18.140625 8.90625 
Q 21.296875 6.109375 26.703125 6.109375 
Q 34.1875 6.109375 38.703125 11.40625 
Q 43.21875 16.703125 43.21875 25.484375 
L 43.21875 27.484375 
z
M 52.203125 31.203125 
L 52.203125 0 
L 43.21875 0 
L 43.21875 8.296875 
Q 40.140625 3.328125 35.546875 0.953125 
Q 30.953125 -1.421875 24.3125 -1.421875 
Q 15.921875 -1.421875 10.953125 3.296875 
Q 6 8.015625 6 15.921875 
Q 6 25.140625 12.171875 29.828125 
Q 18.359375 34.515625 30.609375 34.515625 
L 43.21875 34.515625 
L 43.21875 35.40625 
Q 43.21875 41.609375 39.140625 45 
Q 35.0625 48.390625 27.6875 48.390625 
Q 23 48.390625 18.546875 47.265625 
Q 14.109375 46.140625 10.015625 43.890625 
L 10.015625 52.203125 
Q 14.9375 54.109375 19.578125 55.046875 
Q 24.21875 56 28.609375 56 
Q 40.484375 56 46.34375 49.84375 
Q 52.203125 43.703125 52.203125 31.203125 
" id="BitstreamVeraSans-Roman-61"/>
      <path d="M 9.421875 75.984375 
L 18.40625 75.984375 
L 18.40625 0 
L 9.421875 0 
z
" id="BitstreamVeraSans-Roman-6c"/>
      <path d="M 31 75.875 
Q 24.46875 64.65625 21.28125 53.65625 
Q 18.109375 42.671875 18.109375 31.390625 
Q 18.109375 20.125 21.3125 9.0625 
Q 24.515625 -2 31 -13.1875 
L 23.1875 -13.1875 
Q 15.875 -1.703125 12.234375 9.375 
Q 8.59375 20.453125 8.59375 31.390625 
Q 8.59375 42.28125 12.203125 53.3125 
Q 15.828125 64.359375 23.1875 75.875 
z
" id="BitstreamVeraSans-Roman-28"/>
      <path d="M 41.109375 46.296875 
Q 39.59375 47.171875 37.8125 47.578125 
Q 36.03125 48 33.890625 48 
Q 26.265625 48 22.1875 43.046875 
Q 18.109375 38.09375 18.109375 28.8125 
L 18.109375 0 
L 9.078125 0 
L 9.078125 54.6875 
L 18.109375 54.6875 
L 18.109375 46.1875 
Q 20.953125 51.171875 25.484375 53.578125 
Q 30.03125 56 36.53125 56 
Q 37.453125 56 38.578125 55.875 
Q 39.703125 55.765625 41.0625 55.515625 
z
" id="BitstreamVeraSans-Roman-72"/>
      <path d="M 5.515625 54.6875 
L 48.1875 54.6875 
L 48.1875 46.484375 
L 14.40625 7.171875 
L 48.1875 7.171875 
L 48.1875 0 
L 4.296875 0 
L 4.296875 8.203125 
L 38.09375 47.515625 
L 5.515625 47.515625 
z
" id="BitstreamVeraSans-Roman-7a"/>
      <path d="M 9.8125 72.90625 
L 19.671875 72.90625 
L 19.671875 43.015625 
L 55.515625 43.015625 
L 55.515625 72.90625 
L 65.375 72.90625 
L 65.375 0 
L 55.515625 0 
L 55.515625 34.71875 
L 19.671875 34.71875 
L 19.671875 0 
L 9.8125 0 
z
" id="BitstreamVeraSans-Roman-48"/>
      <path d="M 18.3125 70.21875 
L 18.3125 54.6875 
L 36.8125 54.6875 
L 36.8125 47.703125 
L 18.3125 47.703125 
L 18.3125 18.015625 
Q 18.3125 11.328125 20.140625 9.421875 
Q 21.96875 7.515625 27.59375 7.515625 
L 36.8125 7.515625 
L 36.8125 0 
L 27.59375 0 
Q 17.1875 0 13.234375 3.875 
Q 9.28125 7.765625 9.28125 18.015625 
L 9.28125 47.703125 
L 2.6875 47.703125 
L 2.6875 54.6875 
L 9.28125 54.6875 
L 9.28125 70.21875 
z
" id="BitstreamVeraSans-Roman-74"/>
     </defs>
     <g transform="translate(252.13125 418.531875)scale(0.12 -0.12)">
      <use xlink:href="#BitstreamVeraSans-Roman-48"/>
      <use x="75.1953125" xlink:href="#BitstreamVeraSans-Roman-6f"/>
      <use x="136.376953125" xlink:href="#BitstreamVeraSans-Roman-72"/>
      <use x="177.490234375" xlink:href="#BitstreamVeraSans-Roman-69"/>
      <use x="205.2734375" xlink:href="#BitstreamVeraSans-Roman-7a"/>
      <use x="257.763671875" xlink:href="#BitstreamVeraSans-Roman-6f"/>
      <use x="318.9453125" xlink:href="#BitstreamVeraSans-Roman-6e"/>
      <use x="382.32421875" xlink:href="#BitstreamVeraSans-Roman-74"/>
      <use x="421.533203125" xlink:href="#BitstreamVeraSans-Roman-61"/>
      <use x="482.8125" xlink:href="#BitstreamVeraSans-Roman-6c"/>
      <use x="510.595703125" xlink:href="#BitstreamVeraSans-Roman-20"/>
      <use x="542.3828125" xlink:href="#BitstreamVeraSans-Roman-28"/>
      <use x="581.396484375" xlink:href="#BitstreamVeraSans-Roman-6d"/>
      <use x="678.80859375" xlink:href="#BitstreamVeraSans-Roman-29"/>
     </g>
    </g>
   </g>
   <g id="matplotlib.axis_2">
    <g id="ytick_1">
     <g id="line2d_19">
      <defs>
       <path d="M 0 0 
L 4 0 
" id="me6cab55def" style="stroke:#000000;stroke-width:0.5;"/>
      </defs>
      <g>
       <use style="stroke:#000000;stroke-width:0.5;" x="72.0" xlink:href="#me6cab55def" y="354.24"/>
      </g>
     </g>
     <g id="line2d_20">
      <defs>
       <path d="M 0 0 
L -4 0 
" id="m9de2cc49cc" style="stroke:#000000;stroke-width:0.5;"/>
      </defs>
      <g>
       <use style="stroke:#000000;stroke-width:0.5;" x="518.4" xlink:href="#m9de2cc49cc" y="354.24"/>
      </g>
     </g>
     <g id="text_9">
      <!-- 7.6 -->
      <g transform="translate(48.91625 357.55125)scale(0.12 -0.12)">
       <use xlink:href="#BitstreamVeraSans-Roman-37"/>
       <use x="63.623046875" xlink:href="#BitstreamVeraSans-Roman-2e"/>
       <use x="95.41015625" xlink:href="#BitstreamVeraSans-Roman-36"/>
      </g>
     </g>
    </g>
    <g id="ytick_2">
     <g id="line2d_21">
      <g>
       <use style="stroke:#000000;stroke-width:0.5;" x="72.0" xlink:href="#me6cab55def" y="285.12"/>
      </g>
     </g>
     <g id="line2d_22">
      <g>
       <use style="stroke:#000000;stroke-width:0.5;" x="518.4" xlink:href="#m9de2cc49cc" y="285.12"/>
      </g>
     </g>
     <g id="text_10">
      <!-- 7.8 -->
      <g transform="translate(48.91625 288.43125)scale(0.12 -0.12)">
       <use xlink:href="#BitstreamVeraSans-Roman-37"/>
       <use x="63.623046875" xlink:href="#BitstreamVeraSans-Roman-2e"/>
       <use x="95.41015625" xlink:href="#BitstreamVeraSans-Roman-38"/>
      </g>
     </g>
    </g>
    <g id="ytick_3">
     <g id="line2d_23">
      <g>
       <use style="stroke:#000000;stroke-width:0.5;" x="72.0" xlink:href="#me6cab55def" y="216.0"/>
      </g>
     </g>
     <g id="line2d_24">
      <g>
       <use style="stroke:#000000;stroke-width:0.5;" x="518.4" xlink:href="#m9de2cc49cc" y="216.0"/>
      </g>
     </g>
     <g id="text_11">
      <!-- 8.0 -->
      <g transform="translate(48.91625 219.31125)scale(0.12 -0.12)">
       <use xlink:href="#BitstreamVeraSans-Roman-38"/>
       <use x="63.623046875" xlink:href="#BitstreamVeraSans-Roman-2e"/>
       <use x="95.41015625" xlink:href="#BitstreamVeraSans-Roman-30"/>
      </g>
     </g>
    </g>
    <g id="ytick_4">
     <g id="line2d_25">
      <g>
       <use style="stroke:#000000;stroke-width:0.5;" x="72.0" xlink:href="#me6cab55def" y="146.88"/>
      </g>
     </g>
     <g id="line2d_26">
      <g>
       <use style="stroke:#000000;stroke-width:0.5;" x="518.4" xlink:href="#m9de2cc49cc" y="146.88"/>
      </g>
     </g>
     <g id="text_12">
      <!-- 8.2 -->
      <g transform="translate(48.91625 150.19125)scale(0.12 -0.12)">
       <use xlink:href="#BitstreamVeraSans-Roman-38"/>
       <use x="63.623046875" xlink:href="#BitstreamVeraSans-Roman-2e"/>
       <use x="95.41015625" xlink:href="#BitstreamVeraSans-Roman-32"/>
      </g>
     </g>
    </g>
    <g id="ytick_5">
     <g id="line2d_27">
      <g>
       <use style="stroke:#000000;stroke-width:0.5;" x="72.0" xlink:href="#me6cab55def" y="77.76"/>
      </g>
     </g>
     <g id="line2d_28">
      <g>
       <use style="stroke:#000000;stroke-width:0.5;" x="518.4" xlink:href="#m9de2cc49cc" y="77.76"/>
      </g>
     </g>
     <g id="text_13">
      <!-- 8.4 -->
      <g transform="translate(48.91625 81.07125)scale(0.12 -0.12)">
       <use xlink:href="#BitstreamVeraSans-Roman-38"/>
       <use x="63.623046875" xlink:href="#BitstreamVeraSans-Roman-2e"/>
       <use x="95.41015625" xlink:href="#BitstreamVeraSans-Roman-34"/>
      </g>
     </g>
    </g>
    <g id="text_14">
     <!-- Vertical (m) -->
     <defs>
      <path d="M 56.203125 29.59375 
L 56.203125 25.203125 
L 14.890625 25.203125 
Q 15.484375 15.921875 20.484375 11.0625 
Q 25.484375 6.203125 34.421875 6.203125 
Q 39.59375 6.203125 44.453125 7.46875 
Q 49.3125 8.734375 54.109375 11.28125 
L 54.109375 2.78125 
Q 49.265625 0.734375 44.1875 -0.34375 
Q 39.109375 -1.421875 33.890625 -1.421875 
Q 20.796875 -1.421875 13.15625 6.1875 
Q 5.515625 13.8125 5.515625 26.8125 
Q 5.515625 40.234375 12.765625 48.109375 
Q 20.015625 56 32.328125 56 
Q 43.359375 56 49.78125 48.890625 
Q 56.203125 41.796875 56.203125 29.59375 
M 47.21875 32.234375 
Q 47.125 39.59375 43.09375 43.984375 
Q 39.0625 48.390625 32.421875 48.390625 
Q 24.90625 48.390625 20.390625 44.140625 
Q 15.875 39.890625 15.1875 32.171875 
z
" id="BitstreamVeraSans-Roman-65"/>
      <path d="M 28.609375 0 
L 0.78125 72.90625 
L 11.078125 72.90625 
L 34.1875 11.53125 
L 57.328125 72.90625 
L 67.578125 72.90625 
L 39.796875 0 
z
" id="BitstreamVeraSans-Roman-56"/>
      <path d="M 48.78125 52.59375 
L 48.78125 44.1875 
Q 44.96875 46.296875 41.140625 47.34375 
Q 37.3125 48.390625 33.40625 48.390625 
Q 24.65625 48.390625 19.8125 42.84375 
Q 14.984375 37.3125 14.984375 27.296875 
Q 14.984375 17.28125 19.8125 11.734375 
Q 24.65625 6.203125 33.40625 6.203125 
Q 37.3125 6.203125 41.140625 7.25 
Q 44.96875 8.296875 48.78125 10.40625 
L 48.78125 2.09375 
Q 45.015625 0.34375 40.984375 -0.53125 
Q 36.96875 -1.421875 32.421875 -1.421875 
Q 20.0625 -1.421875 12.78125 6.34375 
Q 5.515625 14.109375 5.515625 27.296875 
Q 5.515625 40.671875 12.859375 48.328125 
Q 20.21875 56 33.015625 56 
Q 37.15625 56 41.109375 55.140625 
Q 45.0625 54.296875 48.78125 52.59375 
" id="BitstreamVeraSans-Roman-63"/>
     </defs>
     <g transform="translate(41.420625 251.35125)rotate(-90.0)scale(0.12 -0.12)">
      <use xlink:href="#BitstreamVeraSans-Roman-56"/>
      <use x="68.298828125" xlink:href="#BitstreamVeraSans-Roman-65"/>
      <use x="129.822265625" xlink:href="#BitstreamVeraSans-Roman-72"/>
      <use x="170.935546875" xlink:href="#BitstreamVeraSans-Roman-74"/>
      <use x="210.14453125" xlink:href="#BitstreamVeraSans-Roman-69"/>
      <use x="237.927734375" xlink:href="#BitstreamVeraSans-Roman-63"/>
      <use x="292.908203125" xlink:href="#BitstreamVeraSans-Roman-61"/>
      <use x="354.1875" xlink:href="#BitstreamVeraSans-Roman-6c"/>
      <use x="381.970703125" xlink:href="#BitstreamVeraSans-Roman-20"/>
      <use x="413.7578125" xlink:href="#BitstreamVeraSans-Roman-28"/>
      <use x="452.771484375" xlink:href="#BitstreamVeraSans-Roman-6d"/>
      <use x="550.18359375" xlink:href="#BitstreamVeraSans-Roman-29"/>
     </g>
    </g>
   </g>
  </g>
 </g>
 <defs>
  <clipPath id="pc858e754e8">
   <rect height="345.6" width="446.4" x="72.0" y="43.2"/>
  </clipPath>
 </defs>
</svg>
